<svg width="420" height="173" viewBox="0 0 420 173" fill="none" xmlns="http://www.w3.org/2000/svg">
<g clip-path="url(#clip0_471_2619)">
<g filter="url(#filter0_d_471_2619)">
<path d="M165.366 98.7497C165.316 99.9979 165.558 101.24 166.075 102.375C166.591 103.51 167.365 104.504 168.335 105.276C170.642 107.028 173.486 107.899 176.365 107.736H188.748C191.772 107.921 194.771 107.092 197.284 105.379C198.282 104.603 199.082 103.596 199.617 102.443C200.151 101.289 200.404 100.023 200.355 98.7497C200.355 94.6152 197.419 92.5651 191.616 92.5651H184.362L211.084 25.9688L211.86 24.0894C212.483 22.5948 212.826 20.9958 212.872 19.3741C212.879 18.4985 212.702 17.6315 212.353 16.8304C212.004 16.0293 211.491 15.3123 210.848 14.727C210.191 14.0747 209.409 13.5654 208.55 13.2305C207.691 12.8955 206.774 12.742 205.854 12.7793C203.573 12.8007 201.359 13.5623 199.537 14.9522C197.715 16.3422 196.382 18.2872 195.732 20.5016L194.99 22.381L167.323 91.5741C166.293 93.8435 165.632 96.2667 165.366 98.7497Z" fill="#3B89E2"/>
</g>
<g filter="url(#filter1_d_471_2619)">
<path d="M203.392 87.9864C203.161 93.1647 204.818 98.2484 208.049 102.269C209.536 104.056 211.406 105.477 213.517 106.424C215.627 107.372 217.922 107.82 220.229 107.736H254.846C257.873 107.9 260.87 107.061 263.383 105.344C264.413 104.582 265.243 103.577 265.802 102.416C266.36 101.254 266.63 99.9725 266.588 98.6814C266.588 94.6152 263.72 92.5651 257.951 92.5651H250.258L260.144 67.7922L260.886 65.9129C261.55 64.4511 261.928 62.8731 261.999 61.2658C262.017 60.3635 261.846 59.4677 261.497 58.6373C261.148 57.8068 260.629 57.0607 259.975 56.448C259.3 55.8017 258.505 55.2969 257.636 54.9626C256.768 54.6284 255.843 54.4713 254.914 54.5003C253.096 54.4943 251.309 54.9746 249.733 55.8926C248.157 56.8106 246.848 58.1337 245.939 59.7282C244.516 57.6509 242.58 55.9871 240.325 54.9021C238.07 53.8171 235.573 53.3488 233.084 53.5435C229.116 53.6647 225.223 54.6706 221.683 56.4897C218.143 58.3088 215.043 60.8963 212.604 64.0677C206.68 70.5889 203.393 79.1259 203.392 87.9864ZM230.014 63.3502C229.44 77.4622 230.722 79.3415 243.948 83.8519C230.014 83.271 228.158 84.5694 223.704 97.9639C224.278 83.8519 222.996 81.9725 209.769 77.4622C223.738 78.0089 225.594 76.7446 230.014 63.3502Z" fill="#3B89E2"/>
</g>
<g filter="url(#filter2_d_471_2619)">
<path d="M272.559 105.208C275.38 107.035 278.697 107.919 282.04 107.736H292.972C296.007 107.921 299.017 107.092 301.542 105.379C302.536 104.601 303.331 103.593 303.86 102.44C304.388 101.286 304.635 100.02 304.579 98.7497C304.579 94.6152 301.711 92.5651 295.941 92.5651H288.181L298 67.9289C299.013 65.7803 299.641 63.4663 299.855 61.095C299.858 60.2085 299.673 59.3316 299.312 58.524C298.951 57.7163 298.423 56.9966 297.763 56.4138C296.378 55.2121 294.592 54.5891 292.77 54.6711C290.472 54.7012 288.244 55.4826 286.42 56.8988C284.596 58.315 283.273 60.2902 282.648 62.5301L281.872 64.4778L270.535 92.7359C269.709 94.5779 269.229 96.5592 269.118 98.5789C269.102 99.8866 269.408 101.178 270.009 102.335C270.61 103.493 271.486 104.48 272.559 105.208Z" fill="#3B89E2"/>
</g>
<g filter="url(#filter3_d_471_2619)">
<path d="M297.224 51.6642C298.479 51.6687 299.723 51.4217 300.884 50.9373C302.044 50.453 303.099 49.7409 303.986 48.842C304.874 47.9432 305.577 46.8754 306.055 45.7001C306.533 44.5249 306.777 43.2654 306.773 41.9943C306.774 40.4035 306.388 38.837 305.648 37.4336C304.908 36.0301 303.838 34.8332 302.533 33.9488C301.227 33.0644 299.726 32.5199 298.163 32.3635C296.6 32.2072 295.023 32.4438 293.571 33.0524C292.12 33.661 290.839 34.6228 289.843 35.8525C288.846 37.0822 288.165 38.542 287.859 40.1022C287.553 41.6625 287.631 43.2752 288.088 44.7973C288.545 46.3194 289.365 47.7039 290.476 48.8282C291.351 49.742 292.4 50.465 293.561 50.9527C294.721 51.4405 295.968 51.6826 297.224 51.6642Z" fill="#3B89E2"/>
</g>
<g filter="url(#filter4_d_471_2619)">
<path d="M317.872 107.736H332.212C338.118 107.91 343.869 105.81 348.306 101.859C350.371 100.04 352.018 97.7849 353.131 95.2526C354.245 92.7203 354.797 89.972 354.751 87.2005C354.507 81.276 352.416 75.5819 348.778 70.9358L344.865 65.4345C342.829 62.8764 341.647 59.7297 341.491 56.4479C341.508 55.5422 341.599 54.6395 341.76 53.7486C341.963 52.8489 342.098 51.9352 342.165 51.015C342.164 50.2153 341.991 49.4256 341.659 48.7C341.327 47.9745 340.843 47.3304 340.242 46.8122C338.987 45.657 337.349 45.0227 335.654 45.0353C332.279 45.0353 329.513 47.2905 327.286 51.8692L318.142 70.6624C317.005 72.635 316.324 74.843 316.152 77.1205C316.164 77.9983 316.37 78.8622 316.756 79.6486C317.141 80.435 317.696 81.124 318.378 81.665C319.756 82.9517 321.565 83.6601 323.439 83.6468C325.39 83.5448 327.262 82.8329 328.797 81.609C330.332 80.3851 331.454 78.7096 332.01 76.8129L333.325 73.601L336.328 79.5807C337.395 81.422 338.009 83.4965 338.117 85.6287C338.117 90.3099 334.945 92.6676 328.568 92.6676H320.74C317.721 92.4775 314.727 93.3198 312.238 95.0594C311.222 95.8286 310.408 96.8382 309.867 97.9998C309.326 99.1613 309.074 100.44 309.134 101.722C309.134 105.686 312.035 107.736 317.872 107.736Z" fill="#3B89E2"/>
</g>
<g filter="url(#filter5_d_471_2619)">
<path d="M359.914 105.276C362.322 107.032 365.251 107.9 368.214 107.736H380.496C383.53 107.921 386.54 107.092 389.066 105.379C390.06 104.601 390.855 103.593 391.383 102.44C391.912 101.286 392.158 100.02 392.102 98.7498C392.102 94.6153 389.201 92.5651 383.397 92.5651H375.704L384.882 69.6715H389.909C392.921 69.8457 395.907 69.0177 398.412 67.3139C399.429 66.5541 400.245 65.5512 400.786 64.3946C401.328 63.2379 401.579 61.9635 401.516 60.685C401.516 56.5846 398.614 54.5003 392.811 54.5003H390.651L393.216 48.999C394.253 46.9244 394.862 44.6571 395.004 42.336C395.014 41.4648 394.839 40.6016 394.49 39.8054C394.14 39.0093 393.625 38.299 392.979 37.7231C392.338 37.0877 391.578 36.5881 390.744 36.2537C389.91 35.9193 389.018 35.7567 388.121 35.7754C385.838 35.8097 383.626 36.5803 381.806 37.9752C379.985 39.3702 378.652 41.3167 377.999 43.5319L377.223 45.4112L373.545 54.6712H370.407C367.369 54.497 364.358 55.3373 361.837 57.063C360.823 57.8682 360.016 58.9107 359.487 60.101C358.958 61.2914 358.723 62.594 358.8 63.8969C358.8 67.9289 361.365 69.9449 366.493 69.9449H367.505L359.408 90.2074L358.092 93.2485C357.34 95.0576 356.928 96.9927 356.877 98.9548C356.867 100.174 357.135 101.38 357.662 102.477C358.189 103.573 358.96 104.532 359.914 105.276Z" fill="#3B89E2"/>
</g>
<g filter="url(#filter6_d_471_2619)">
<path d="M406.104 124.206C403.337 124.924 400.672 126.256 398.006 127.179C392.608 129.058 387.075 130.596 381.575 132.031C367.7 135.907 353.604 138.92 339.366 141.052C310.797 145.462 281.763 145.842 253.092 142.179C241.339 140.672 229.696 138.389 218.238 135.345C189.642 127.395 163.343 112.619 141.546 92.2575C135.439 86.8246 128.893 80.4691 121.909 74.6261L125.924 64.5461H138.746C152.242 64.5461 162.173 61.8581 168.538 56.4821C172.779 53.0911 176.185 48.7489 178.486 43.7976C180.787 38.8463 181.921 33.4215 181.798 27.9506C181.798 18.4287 178.953 11.3898 173.262 6.83388C167.571 2.27795 158.72 -9.18513e-06 146.708 -9.18513e-06H111.045C106.537 -0.322019 102.052 0.879754 98.2909 3.41694C96.7557 4.61264 95.5365 6.17433 94.7418 7.96286C93.947 9.75139 93.6015 11.7112 93.7359 13.6678C93.7359 19.7272 98.0434 22.7569 106.658 22.7569H116.781L101.462 60.9583C102.036 59.5574 90.4968 57.9856 89.5184 57.8147C70.5317 55.2673 51.2513 59.276 34.7915 69.1931C26.2995 74.0541 18.9089 80.6651 13.0971 88.599C7.28529 96.533 3.1816 105.613 1.05113 115.254C0.325399 119.45 -0.0134634 123.705 0.0389236 127.965C-0.210421 133.955 0.740199 139.934 2.83351 145.542C4.92683 151.15 8.1195 156.271 12.2192 160.596C16.3758 164.757 21.3342 168.005 26.785 170.139C32.2359 172.273 38.0625 173.247 43.9014 173C55.7087 173.196 67.2169 169.234 76.4608 161.792C82.8998 156.695 88.3168 150.397 92.42 143.238C99.2027 130.377 105.197 117.106 110.37 103.499L113.035 96.8362C116.005 99.5015 118.771 102.098 121.167 104.183C131.902 114.181 143.286 123.439 155.245 131.894C177.513 146.071 202.249 155.812 228.124 160.596C285.482 171.838 345.641 166.849 401.381 149.423C408.601 147.168 418.251 145.425 419.904 136.439C420.353 133.753 419.814 130.994 418.39 128.684C416.967 126.373 414.756 124.671 412.177 123.898C410.158 123.504 408.075 123.609 406.104 124.206ZM142.929 22.6543H149.171C154.873 22.6543 157.708 25.012 157.708 29.6591C157.708 37.9053 152.714 42.017 142.727 41.9943H135L142.929 22.6543ZM92.3188 90.7199C90.5136 95.3833 88.4637 99.9457 86.1781 104.388C81.9943 112.52 77.2031 120.379 72.4457 128.306C66.5412 137.942 58.6459 148.125 46.3307 148.125C43.6208 148.247 40.9181 147.756 38.4197 146.686C35.9214 145.616 33.6905 143.994 31.8898 141.94C28.0945 137.234 26.1694 131.264 26.4914 125.197C26.5091 118.256 28.4244 111.456 32.0248 105.549C39.0885 94.7303 49.9398 87.0256 62.3911 83.9885C70.1851 81.7675 80.5434 79.239 88.5062 81.6308C93.2635 82.8951 93.9383 86.2437 92.2513 90.7199H92.3188Z" fill="#3B89E2"/>
</g>
</g>
<defs>
<filter id="filter0_d_471_2619" x="160.359" y="11.7739" width="57.5137" height="104.988" filterUnits="userSpaceOnUse" color-interpolation-filters="sRGB">
<feFlood flood-opacity="0" result="BackgroundImageFix"/>
<feColorMatrix in="SourceAlpha" type="matrix" values="0 0 0 0 0 0 0 0 0 0 0 0 0 0 0 0 0 0 127 0" result="hardAlpha"/>
<feOffset dy="4"/>
<feGaussianBlur stdDeviation="2.5"/>
<feComposite in2="hardAlpha" operator="out"/>
<feColorMatrix type="matrix" values="0 0 0 0 0.188235 0 0 0 0 0.431373 0 0 0 0 0.709804 0 0 0 0.3 0"/>
<feBlend mode="normal" in2="BackgroundImageFix" result="effect1_dropShadow_471_2619"/>
<feBlend mode="normal" in="SourceGraphic" in2="effect1_dropShadow_471_2619" result="shape"/>
</filter>
<filter id="filter1_d_471_2619" x="198.371" y="52.5005" width="73.2207" height="64.256" filterUnits="userSpaceOnUse" color-interpolation-filters="sRGB">
<feFlood flood-opacity="0" result="BackgroundImageFix"/>
<feColorMatrix in="SourceAlpha" type="matrix" values="0 0 0 0 0 0 0 0 0 0 0 0 0 0 0 0 0 0 127 0" result="hardAlpha"/>
<feOffset dy="4"/>
<feGaussianBlur stdDeviation="2.5"/>
<feComposite in2="hardAlpha" operator="out"/>
<feColorMatrix type="matrix" values="0 0 0 0 0.188235 0 0 0 0 0.431373 0 0 0 0 0.709804 0 0 0 0.3 0"/>
<feBlend mode="normal" in2="BackgroundImageFix" result="effect1_dropShadow_471_2619"/>
<feBlend mode="normal" in="SourceGraphic" in2="effect1_dropShadow_471_2619" result="shape"/>
</filter>
<filter id="filter2_d_471_2619" x="264.117" y="53.6639" width="45.4688" height="63.0976" filterUnits="userSpaceOnUse" color-interpolation-filters="sRGB">
<feFlood flood-opacity="0" result="BackgroundImageFix"/>
<feColorMatrix in="SourceAlpha" type="matrix" values="0 0 0 0 0 0 0 0 0 0 0 0 0 0 0 0 0 0 127 0" result="hardAlpha"/>
<feOffset dy="4"/>
<feGaussianBlur stdDeviation="2.5"/>
<feComposite in2="hardAlpha" operator="out"/>
<feColorMatrix type="matrix" values="0 0 0 0 0.188235 0 0 0 0 0.431373 0 0 0 0 0.709804 0 0 0 0.3 0"/>
<feBlend mode="normal" in2="BackgroundImageFix" result="effect1_dropShadow_471_2619"/>
<feBlend mode="normal" in="SourceGraphic" in2="effect1_dropShadow_471_2619" result="shape"/>
</filter>
<filter id="filter3_d_471_2619" x="282.676" y="31.3167" width="29.0977" height="29.3485" filterUnits="userSpaceOnUse" color-interpolation-filters="sRGB">
<feFlood flood-opacity="0" result="BackgroundImageFix"/>
<feColorMatrix in="SourceAlpha" type="matrix" values="0 0 0 0 0 0 0 0 0 0 0 0 0 0 0 0 0 0 127 0" result="hardAlpha"/>
<feOffset dy="4"/>
<feGaussianBlur stdDeviation="2.5"/>
<feComposite in2="hardAlpha" operator="out"/>
<feColorMatrix type="matrix" values="0 0 0 0 0.188235 0 0 0 0 0.431373 0 0 0 0 0.709804 0 0 0 0.3 0"/>
<feBlend mode="normal" in2="BackgroundImageFix" result="effect1_dropShadow_471_2619"/>
<feBlend mode="normal" in="SourceGraphic" in2="effect1_dropShadow_471_2619" result="shape"/>
</filter>
<filter id="filter4_d_471_2619" x="304.125" y="44.0352" width="55.6289" height="72.7111" filterUnits="userSpaceOnUse" color-interpolation-filters="sRGB">
<feFlood flood-opacity="0" result="BackgroundImageFix"/>
<feColorMatrix in="SourceAlpha" type="matrix" values="0 0 0 0 0 0 0 0 0 0 0 0 0 0 0 0 0 0 127 0" result="hardAlpha"/>
<feOffset dy="4"/>
<feGaussianBlur stdDeviation="2.5"/>
<feComposite in2="hardAlpha" operator="out"/>
<feColorMatrix type="matrix" values="0 0 0 0 0.188235 0 0 0 0 0.431373 0 0 0 0 0.709804 0 0 0 0.3 0"/>
<feBlend mode="normal" in2="BackgroundImageFix" result="effect1_dropShadow_471_2619"/>
<feBlend mode="normal" in="SourceGraphic" in2="effect1_dropShadow_471_2619" result="shape"/>
</filter>
<filter id="filter5_d_471_2619" x="351.877" y="34.774" width="54.6484" height="81.9875" filterUnits="userSpaceOnUse" color-interpolation-filters="sRGB">
<feFlood flood-opacity="0" result="BackgroundImageFix"/>
<feColorMatrix in="SourceAlpha" type="matrix" values="0 0 0 0 0 0 0 0 0 0 0 0 0 0 0 0 0 0 127 0" result="hardAlpha"/>
<feOffset dy="4"/>
<feGaussianBlur stdDeviation="2.5"/>
<feComposite in2="hardAlpha" operator="out"/>
<feColorMatrix type="matrix" values="0 0 0 0 0.188235 0 0 0 0 0.431373 0 0 0 0 0.709804 0 0 0 0.3 0"/>
<feBlend mode="normal" in2="BackgroundImageFix" result="effect1_dropShadow_471_2619"/>
<feBlend mode="normal" in="SourceGraphic" in2="effect1_dropShadow_471_2619" result="shape"/>
</filter>
<filter id="filter6_d_471_2619" x="-5" y="-1.05127" width="430.059" height="183.089" filterUnits="userSpaceOnUse" color-interpolation-filters="sRGB">
<feFlood flood-opacity="0" result="BackgroundImageFix"/>
<feColorMatrix in="SourceAlpha" type="matrix" values="0 0 0 0 0 0 0 0 0 0 0 0 0 0 0 0 0 0 127 0" result="hardAlpha"/>
<feOffset dy="4"/>
<feGaussianBlur stdDeviation="2.5"/>
<feComposite in2="hardAlpha" operator="out"/>
<feColorMatrix type="matrix" values="0 0 0 0 0.188235 0 0 0 0 0.431373 0 0 0 0 0.709804 0 0 0 0.3 0"/>
<feBlend mode="normal" in2="BackgroundImageFix" result="effect1_dropShadow_471_2619"/>
<feBlend mode="normal" in="SourceGraphic" in2="effect1_dropShadow_471_2619" result="shape"/>
</filter>
<clipPath id="clip0_471_2619">
<rect width="420" height="173" fill="white"/>
</clipPath>
</defs>
</svg>
