<svg width="24" height="24" viewBox="0 0 24 24" fill="none" xmlns="http://www.w3.org/2000/svg">
<path fill-rule="evenodd" clip-rule="evenodd" d="M4.58008 2.83337H8.75008C9.99272 2.83337 11.0001 3.75679 11.0001 4.89587V6.88504C11.0001 8.02413 9.99272 8.94754 8.75008 8.94754H4.58008C3.33744 8.94754 2.33008 8.02413 2.33008 6.88504V4.89587C2.33008 3.75679 3.33744 2.83337 4.58008 2.83337ZM8.75008 7.57254C9.16204 7.5676 9.49469 7.26267 9.50008 6.88504V4.89587C9.49469 4.51824 9.16204 4.21331 8.75008 4.20837H4.58008C4.16812 4.21331 3.83546 4.51824 3.83008 4.89587V6.88504C3.83546 7.26267 4.16812 7.5676 4.58008 7.57254H8.75008Z" fill="#306EB5"/>
<path fill-rule="evenodd" clip-rule="evenodd" d="M15.9201 2.83337H19.4201C20.6627 2.83337 21.6701 3.75679 21.6701 4.89587V11.1567C21.6701 12.2958 20.6627 13.2192 19.4201 13.2192H15.9201C15.3225 13.2217 14.7487 13.0051 14.3261 12.6178C13.9036 12.2305 13.6674 11.7045 13.6701 11.1567V4.89587C13.6701 3.75679 14.6774 2.83337 15.9201 2.83337ZM19.4201 11.8442C19.8343 11.8442 20.1701 11.5364 20.1701 11.1567V4.89587C20.1647 4.51824 19.832 4.21331 19.4201 4.20837H15.9201C15.5058 4.20837 15.1701 4.51618 15.1701 4.89587V11.1567C15.1673 11.3398 15.2455 11.5161 15.3867 11.6456C15.528 11.7751 15.7203 11.8467 15.9201 11.8442H19.4201Z" fill="#306EB5"/>
<path fill-rule="evenodd" clip-rule="evenodd" d="M15.9201 15.6667H19.4201C20.6627 15.6667 21.6701 16.5901 21.6701 17.7292V19.1042C21.6701 20.2433 20.6627 21.1667 19.4201 21.1667H15.9201C14.6774 21.1667 13.6701 20.2433 13.6701 19.1042V17.7292C13.6701 16.5901 14.6774 15.6667 15.9201 15.6667ZM19.4201 19.7917C19.832 19.7868 20.1647 19.4818 20.1701 19.1042V17.7292C20.1647 17.3516 19.832 17.0466 19.4201 17.0417H15.9201C15.5059 17.0417 15.1701 17.3495 15.1701 17.7292V19.1042C15.1701 19.4839 15.5059 19.7917 15.9201 19.7917H19.4201Z" fill="#306EB5"/>
<path fill-rule="evenodd" clip-rule="evenodd" d="M4.58008 11.3859H8.75008C9.99272 11.3859 11.0001 12.3093 11.0001 13.4484V19.1042C11.0001 20.2433 9.99272 21.1667 8.75008 21.1667H4.58008C3.33744 21.1667 2.33008 20.2433 2.33008 19.1042V13.4484C2.33008 12.3093 3.33744 11.3859 4.58008 11.3859ZM8.75008 19.7917C9.16204 19.7868 9.49469 19.4818 9.50008 19.1042V13.4484C9.49469 13.0707 9.16204 12.7658 8.75008 12.7609H4.58008C4.16812 12.7658 3.83546 13.0707 3.83008 13.4484V19.1042C3.83546 19.4818 4.16812 19.7868 4.58008 19.7917H8.75008Z" fill="#306EB5"/>
</svg>
