<svg width="100" height="96" viewBox="0 0 100 96" fill="none" xmlns="http://www.w3.org/2000/svg">
<mask id="mask0_145_2253" style="mask-type:alpha" maskUnits="userSpaceOnUse" x="0" y="0" width="100" height="96">
<ellipse cx="49.9863" cy="48" rx="49.2929" ry="48" fill="#FFEADF"/>
</mask>
<g mask="url(#mask0_145_2253)">
<path d="M21.034 70.7561L17.9257 95.9997H-1.28711L-0.650217 91.8138C-0.418378 89.0602 0.289725 86.4163 1.40354 83.9513C3.2917 79.8416 6.41093 76.4968 10.2399 74.2008V74.1944C10.436 74.0725 10.6334 73.9686 10.8294 73.8522C13.9069 72.1252 17.3898 71.0464 21.034 70.7561Z" fill="#0D6EFD"/>
<path d="M100.127 95.9997H80.8595L77.5488 69.0691C79.7354 69.2436 81.872 69.7015 83.8903 70.4198C89.72 72.4722 94.6198 76.6355 97.1803 82.2759C98.2941 84.7231 98.9962 87.3729 99.234 90.1271L100.127 95.9997Z" fill="#0D6EFD"/>
<path d="M87.2239 72.114L83.9391 96.0001H13.1813L10.2402 74.2009V74.1945C10.4363 74.0726 10.6337 73.9687 10.8298 73.8523C15.2691 71.3032 25.3475 68.3706 32.5471 66.4681C37.6267 65.1268 42.8666 64.4617 48.1313 64.485L53.7292 64.5108C57.6377 64.5279 61.5319 64.9268 65.3599 65.6995C71.5543 66.9483 80.745 68.953 83.8894 70.4201C85.0936 70.9703 86.2065 71.5396 87.2239 72.114Z" fill="#0D6EFD"/>
<path d="M65.7853 41.2078C65.7853 41.2078 67.372 45.4446 60.2771 47.9067L60.7706 82.5344L39.7246 73.3483L41.5922 53.3316L49.6665 49.9527L51.5918 46.566C51.5918 46.566 54.3867 43.0545 54.7246 42.7088C55.0617 42.3627 58.0521 39.801 58.0521 39.801L64.4787 41.6893L65.7853 41.2078Z" fill="#FAB9C9"/>
<path d="M56.653 51.4601C57.9732 46.366 54.5622 46.5553 50.7348 48.0769L49.6687 49.9523L42.1767 53.0875L41.3831 55.803L40.6426 64.4715C40.6422 64.4715 53.9557 61.872 56.653 51.4601Z" fill="#1B1E28"/>
<path d="M35.7636 38.3846C35.7636 38.3846 29.9249 35.8077 31.9757 29.9619C34.0262 24.116 34.0772 24.1163 33.6516 21.3608C33.2253 18.6056 34.3136 11.7464 42.578 13.6683C50.8431 15.5905 51.9622 15.7981 56.1803 14.0827C60.3985 12.3673 66.2179 16.1103 65.3101 25.2074C64.5391 32.9396 62.8559 30.801 64.4556 34.9421C66.056 39.0828 65.1147 40.1177 62.3105 40.7705C55.8134 42.2824 52.6577 39.2676 52.6577 39.1254C52.6577 38.9831 51.3763 35.8122 50.5755 35.3965C49.7746 34.9804 42.4604 33.0054 42.3008 33.2131C42.1405 33.4208 39.7264 36.6827 39.7264 36.6827L35.7636 38.3846Z" fill="#1B1E28"/>
<path d="M32.4279 39.2426C34.801 39.3684 37.2075 39.2552 39.5848 39.2339C39.7706 39.2323 39.7713 38.9504 39.5848 38.9521C37.2075 38.9704 34.7993 38.8959 32.4279 39.0611C32.3084 39.0688 32.3074 39.2372 32.4279 39.2426Z" fill="#1B1E28"/>
<path d="M35.7764 30.4046V48.2598C35.7764 48.2598 35.2035 56.738 41.7393 57.0779C48.2752 57.4178 52.2161 57.1024 54.3371 54.8429C56.4574 52.5837 58.4532 48.551 56.9555 37.8382C55.4592 27.1247 53.888 25.3035 53.888 25.3035L45.7302 22.8982L38.021 24.2098L35.7764 30.4046Z" fill="#FAB9C9"/>
<path d="M35.7676 49.016C35.8077 51.1004 36.4048 56.8008 41.7407 57.0778C48.2766 57.4177 52.2175 57.1023 54.3385 54.8428C55.917 53.1609 57.4246 50.4941 57.476 44.8224C57.4663 42.9786 57.309 40.8333 56.9573 38.3141C56.7523 36.8428 56.5698 35.5067 56.4068 34.2876C55.0996 26.7073 53.8897 25.3037 53.8897 25.3037L45.732 22.8984L38.0227 24.2101L35.8815 30.1191L35.7778 30.8806V31.0625C35.7778 31.0625 36.1706 30.0788 37.7988 30.1336C39.427 30.1881 39.2581 29.4409 41.1664 27.382C43.0755 25.3237 44.0108 27.9286 45.5187 29.1493C47.0267 30.37 49.1559 28.7485 51.6253 28.6756C54.0957 28.6024 53.6086 31.4814 53.1416 32.2651C52.6732 33.0485 52.243 34.1599 53.7407 34.6885C55.2371 35.2164 55.7603 35.4531 55.9485 39.024C56.1349 42.5951 55.1437 45.1281 53.2535 46.3298C51.364 47.5328 47.3787 47.2593 44.6092 45.2007C41.8401 43.1418 38.8365 45.1191 37.3875 45.729C36.6221 46.0505 35.8795 45.6338 35.7782 45.5729V48.2594V48.7351C35.7778 48.7357 35.7712 48.8393 35.7676 49.016Z" fill="#E5A0B1"/>
<path d="M41.4225 35.0295C41.1257 37.3219 40.7724 39.9103 41.0843 42.205C41.1989 43.048 41.71 43.7002 42.8788 43.4628C43.1775 43.4018 43.0503 43.0539 42.7519 43.1013C40.9154 43.3938 41.5474 39.6868 41.5649 39.036C41.6023 37.7005 41.6686 36.3656 41.6537 35.0295C41.652 34.9105 41.4367 34.915 41.4225 35.0295Z" fill="#EAAABA"/>
<path d="M45.2543 41.0484C45.782 41.0484 46.2098 40.6318 46.2098 40.1179C46.2098 39.6041 45.782 39.1875 45.2543 39.1875C44.7266 39.1875 44.2988 39.6041 44.2988 40.1179C44.2988 40.6318 44.7266 41.0484 45.2543 41.0484Z" fill="#1B1E28"/>
<path d="M38.0004 41.0484C38.5281 41.0484 38.9559 40.6318 38.9559 40.1179C38.9559 39.6041 38.5281 39.1875 38.0004 39.1875C37.4727 39.1875 37.0449 39.6041 37.0449 40.1179C37.0449 40.6318 37.4727 41.0484 38.0004 41.0484Z" fill="#1B1E28"/>
<path d="M36.2395 36.8763C36.8002 36.6567 37.2649 36.3481 37.8852 36.2742C38.5708 36.1907 39.1203 36.3845 39.7548 36.5942C40.0181 36.6806 40.1215 36.3274 39.9307 36.1888C38.9159 35.4512 36.8019 35.5708 36.0593 36.6477C35.9851 36.7541 36.11 36.9276 36.2395 36.8763Z" fill="#1B1E28"/>
<path d="M44.4225 36.5876C45.011 36.3654 45.475 36.1174 46.1341 36.1467C46.7932 36.1767 47.3301 36.4418 47.9375 36.6512C48.2021 36.7428 48.3005 36.3854 48.1127 36.2458C47.1536 35.5324 45.022 35.2479 44.2417 36.359C44.1655 36.4657 44.293 36.6363 44.4225 36.5876Z" fill="#1B1E28"/>
<path d="M50.1772 41.8955C50.516 42.707 49.8725 43.7277 48.7392 44.1763C47.6058 44.6256 46.4132 44.3311 46.0747 43.52C45.7359 42.7102 46.38 41.6891 47.5134 41.2399C48.6461 40.7922 49.8394 41.085 50.1772 41.8955Z" fill="#EAAABA"/>
<path d="M37.2943 41.4184C36.7766 41.1923 36.2417 41.1236 35.7754 41.191V44.2958C35.8271 44.3222 35.8794 44.348 35.934 44.3719C37.073 44.8695 38.3021 44.6125 38.6774 43.7962C39.0529 42.9816 38.4333 41.9173 37.2943 41.4184Z" fill="#EAAABA"/>
<path d="M40.6504 38.5737C40.8471 40.5617 39.7273 42.4893 37.6656 43.0186C35.3413 43.6152 32.9768 42.0604 32.6178 39.7738C32.2813 37.6239 33.8121 35.6105 36.0166 35.2818C38.3025 34.9426 40.2026 36.469 40.654 38.6031C40.6838 38.7414 40.8998 38.6824 40.87 38.5453C40.3997 36.3213 38.3671 34.6768 35.9679 35.0458C33.6548 35.4018 32.0336 37.5488 32.3731 39.8051C32.7119 42.0572 34.9438 43.6513 37.248 43.322C39.6505 42.9792 41.0988 40.8413 40.8749 38.5731C40.861 38.4354 40.6368 38.4344 40.6504 38.5737Z" fill="#1B1E28"/>
<path d="M50.9453 39.2801C50.8264 41.4293 49.1711 43.2473 46.8713 43.2473C44.6628 43.2473 42.7965 41.4293 42.7965 39.2801C42.7965 37.2776 44.4072 35.5628 46.4357 35.3571C48.8955 35.1091 50.8168 36.9416 50.9453 39.2801C50.9529 39.4198 51.1775 39.4207 51.1699 39.2801C51.0437 37.0061 49.3089 35.0942 46.8713 35.0942C44.5386 35.0942 42.5611 37.0009 42.5723 39.2801C42.5832 41.4783 44.385 43.3379 46.6431 43.4531C49.1685 43.5824 51.0391 41.6412 51.1699 39.2801C51.1778 39.1392 50.9533 39.1392 50.9453 39.2801Z" fill="#1B1E28"/>
<path d="M40.6814 39.0392C41.2978 39.1456 42.0374 39.1511 42.6577 39.0663C42.7445 39.0547 42.7445 38.9086 42.6577 38.8967C42.0374 38.8131 41.2991 38.8176 40.6814 38.9241C40.6218 38.9337 40.6218 39.0286 40.6814 39.0392Z" fill="#1B1E28"/>
<path d="M50.877 39.1129C53.2504 39.2384 55.6569 39.1252 58.0339 39.1042C58.2197 39.1026 58.2203 38.8204 58.0339 38.8217C55.6565 38.8404 53.2484 38.7659 50.877 38.9307C50.7575 38.9391 50.7568 39.1065 50.877 39.1129Z" fill="#1B1E28"/>
<path d="M65.7705 41.2078C63.9963 36.8043 57.2001 39.801 57.2001 39.801L56.6484 44.1082L59.9977 42.8629C60.1179 43.1551 63.2405 43.2135 63.2405 43.2135L65.7705 41.2078Z" fill="#FAB9C9"/>
<path d="M59.8376 40.0121C61.7006 39.7345 63.4997 41.3238 63.288 43.1776C63.2556 43.4691 62.7823 43.4724 62.8144 43.1776C62.9883 41.6537 61.5515 40.2198 59.9631 40.4562C59.665 40.5011 59.5369 40.0573 59.8376 40.0121Z" fill="#E6A0B1"/>
<path d="M62.4153 41.3653C61.6347 41.6974 61.0505 42.3109 60.7955 43.1062C60.706 43.3893 60.249 43.2684 60.3401 42.9839C60.6272 42.0828 61.2853 41.3462 62.1766 40.9673C62.4538 40.8499 62.6949 41.2466 62.4153 41.3653Z" fill="#E6A0B1"/>
<path d="M38.5005 15.4449C35.7674 17.2439 35.208 20.6647 36.4699 23.5051C36.5106 23.5973 36.6484 23.5174 36.6083 23.4264C35.3832 20.6702 35.9221 17.3297 38.5813 15.5794C38.6667 15.5233 38.5859 15.3878 38.5005 15.4449Z" fill="white"/>
<path d="M33.7435 34.6557C33.9724 35.1056 34.182 35.5603 34.4642 35.9815C34.5205 36.0654 34.6596 35.9873 34.6026 35.9028C34.3198 35.4813 34.1105 35.0265 33.8819 34.5773C33.8362 34.4873 33.6978 34.5663 33.7435 34.6557Z" fill="white"/>
<path d="M53.9688 29.678C53.9688 29.8515 53.9688 30.0244 53.9688 30.1979C53.9688 30.2982 54.1291 30.2982 54.1291 30.1979C54.1291 30.0244 54.1291 29.8515 54.1291 29.678C54.1291 29.5777 53.9688 29.5777 53.9688 29.678Z" fill="white"/>
<path d="M53.7627 31.9263C53.7143 31.9902 53.7044 32.0705 53.656 32.1343C53.5944 32.2153 53.7335 32.2927 53.7945 32.213C53.8435 32.1492 53.8534 32.0688 53.9011 32.005C53.9624 31.924 53.8233 31.846 53.7627 31.9263Z" fill="white"/>
<path d="M63.0376 31.6017C62.8488 33.3533 62.8849 34.7552 63.5744 36.4049C63.6132 36.4968 63.7679 36.4571 63.7291 36.3639C63.0511 34.7414 63.0124 33.3184 63.1979 31.6017C63.2091 31.5014 63.0482 31.5024 63.0376 31.6017Z" fill="white"/>
<path d="M41.7391 57.0779C48.275 57.4178 52.2159 57.1024 54.3369 54.8429C56.4572 52.5837 58.453 48.551 56.9553 37.8382C55.459 27.1247 55.1533 23.3097 55.1533 23.3097L49.4673 20.3071L37.0467 21.0483L35.7762 30.4043V30.5862C35.7762 30.5862 36.169 29.6029 37.7972 29.657C39.4254 29.7119 39.2564 28.9646 41.1648 26.906C43.0738 24.8478 44.0091 27.4527 45.5171 28.6734C47.025 29.8938 49.1543 28.2725 51.6237 28.1996C54.0941 28.1264 53.6069 31.0051 53.1399 31.7888C52.6716 32.5725 52.2414 33.6836 53.7391 34.2122C55.2354 34.7405 55.7587 34.9769 55.9468 38.5477C56.1333 42.1189 55.142 44.6519 53.2519 45.8539C51.3624 47.0565 47.3771 46.7833 44.6076 44.7244C41.8385 42.6658 38.8348 44.6432 37.3858 45.253C36.6204 45.5742 35.8779 45.1576 35.7765 45.0969V48.2595C35.7765 48.2595 35.2032 56.738 41.7391 57.0779Z" fill="#1B1E28"/>
<path d="M35.0107 25.1037C35.069 26.7407 34.0436 28.0698 33.4094 29.5179C32.9609 30.5412 32.897 31.6506 32.9288 32.7452C32.9315 32.8455 33.0918 32.8462 33.0888 32.7452C33.0404 31.0798 33.4312 29.7788 34.1778 28.2943C34.716 27.2248 35.2141 26.3224 35.1707 25.1037C35.1674 25.0034 35.0071 25.003 35.0107 25.1037Z" fill="white"/>
<path d="M53.9194 17.5889C55.8062 17.8698 57.7348 17.4818 59.5931 17.9956C63.2078 18.9937 62.3656 24.22 61.2388 26.6759C61.1968 26.7669 61.3352 26.8459 61.3766 26.7543C62.502 24.3022 62.9558 21.1187 61.1961 18.8334C59.6461 16.821 56.1149 17.7588 53.9621 17.4386C53.8614 17.4234 53.8173 17.5737 53.9194 17.5889Z" fill="white"/>
<path d="M44.7832 25.8312C44.9449 30.5373 51.0035 25.3091 53.0821 27.6541C53.1493 27.7299 53.2626 27.6196 53.1953 27.5435C51.0724 25.1478 45.0952 30.2487 44.9439 25.8309C44.9406 25.7309 44.7803 25.7306 44.7832 25.8312Z" fill="white"/>
<path d="M41.5008 57.1913C44.1829 57.2084 46.9066 57.5251 49.5764 57.1445C52.4512 56.7346 54.4066 55.6461 55.904 53.2144C55.957 53.128 55.8185 53.0499 55.7655 53.136C54.1225 55.8029 51.8402 56.7865 48.7309 57.0778C46.3284 57.3026 43.906 57.0503 41.5008 57.0352C41.3982 57.0345 41.3982 57.1906 41.5008 57.1913Z" fill="white"/>
<path d="M41.1157 47.0699C41.7884 48.5312 44.5661 47.9429 44.5688 46.3471C44.5688 46.1769 44.3287 46.1136 44.2402 46.2607C43.9273 46.7803 43.7223 47.2686 43.0539 47.4363C42.3541 47.6124 41.843 47.2518 41.3055 46.8844C41.179 46.7983 41.0654 46.9602 41.1157 47.0699Z" fill="white"/>
<path d="M40.2734 68.7212C46.0959 75.3607 52.447 74.4945 59.1434 68.7212L59.1441 95.9996H40.2738V68.7212H40.2734Z" fill="#F7F7F9"/>
<path d="M40.7848 61.8306L27.5527 66.2528C33.6488 76.4387 36.8743 86.3246 36.8465 95.8722H42.7607C45.7908 85.5709 44.7545 74.1169 40.7848 61.8306Z" fill="#0D6EFD"/>
<path d="M60.3265 61.8306L73.5589 66.2528C67.4622 76.4387 64.237 86.3246 64.2645 95.8722H58.3502C55.3211 85.5709 56.3571 74.1169 60.3265 61.8306Z" fill="#0D6EFD"/>
</g>
</svg>
