<svg width="24" height="24" viewBox="0 0 24 24" fill="none" xmlns="http://www.w3.org/2000/svg">
<path fill-rule="evenodd" clip-rule="evenodd" d="M4.58008 2.83325H8.75008C9.99272 2.83325 11.0001 3.75666 11.0001 4.89575V6.88492C11.0001 8.02401 9.99272 8.94742 8.75008 8.94742H4.58008C3.33744 8.94742 2.33008 8.02401 2.33008 6.88492V4.89575C2.33008 3.75666 3.33744 2.83325 4.58008 2.83325ZM8.75008 7.57242C9.16204 7.56748 9.49469 7.26255 9.50008 6.88492V4.89575C9.49469 4.51812 9.16204 4.21319 8.75008 4.20825H4.58008C4.16812 4.21319 3.83546 4.51812 3.83008 4.89575V6.88492C3.83546 7.26255 4.16812 7.56748 4.58008 7.57242H8.75008Z" fill="#6E6776"/>
<path fill-rule="evenodd" clip-rule="evenodd" d="M15.9201 2.83325H19.4201C20.6627 2.83325 21.6701 3.75666 21.6701 4.89575V11.1566C21.6701 12.2957 20.6627 13.2191 19.4201 13.2191H15.9201C15.3225 13.2215 14.7487 13.005 14.3261 12.6177C13.9036 12.2304 13.6674 11.7043 13.6701 11.1566V4.89575C13.6701 3.75666 14.6774 2.83325 15.9201 2.83325ZM19.4201 11.8441C19.8343 11.8441 20.1701 11.5363 20.1701 11.1566V4.89575C20.1647 4.51812 19.832 4.21319 19.4201 4.20825H15.9201C15.5058 4.20825 15.1701 4.51606 15.1701 4.89575V11.1566C15.1673 11.3397 15.2455 11.516 15.3867 11.6455C15.528 11.7749 15.7203 11.8466 15.9201 11.8441H19.4201Z" fill="#6E6776"/>
<path fill-rule="evenodd" clip-rule="evenodd" d="M15.9201 15.6666H19.4201C20.6627 15.6666 21.6701 16.59 21.6701 17.7291V19.1041C21.6701 20.2432 20.6627 21.1666 19.4201 21.1666H15.9201C14.6774 21.1666 13.6701 20.2432 13.6701 19.1041V17.7291C13.6701 16.59 14.6774 15.6666 15.9201 15.6666ZM19.4201 19.7916C19.832 19.7866 20.1647 19.4817 20.1701 19.1041V17.7291C20.1647 17.3515 19.832 17.0465 19.4201 17.0416H15.9201C15.5059 17.0416 15.1701 17.3494 15.1701 17.7291V19.1041C15.1701 19.4838 15.5059 19.7916 15.9201 19.7916H19.4201Z" fill="#6E6776"/>
<path fill-rule="evenodd" clip-rule="evenodd" d="M4.58008 11.3858H8.75008C9.99272 11.3858 11.0001 12.3092 11.0001 13.4483V19.1041C11.0001 20.2432 9.99272 21.1666 8.75008 21.1666H4.58008C3.33744 21.1666 2.33008 20.2432 2.33008 19.1041V13.4483C2.33008 12.3092 3.33744 11.3858 4.58008 11.3858ZM8.75008 19.7916C9.16204 19.7866 9.49469 19.4817 9.50008 19.1041V13.4483C9.49469 13.0706 9.16204 12.7657 8.75008 12.7608H4.58008C4.16812 12.7657 3.83546 13.0706 3.83008 13.4483V19.1041C3.83546 19.4817 4.16812 19.7866 4.58008 19.7916H8.75008Z" fill="#6E6776"/>
</svg>
