<svg width="29" height="26" viewBox="0 0 29 26" fill="none" xmlns="http://www.w3.org/2000/svg">
<path d="M28.9999 8.49573C28.9461 4.07994 25.4587 0.500003 21.0908 0.500003C19.7863 0.49997 18.5022 0.826388 17.3529 1.45013C16.2036 2.07388 15.2249 2.97555 14.5042 4.07469C13.7824 2.97453 12.8023 2.07226 11.6514 1.44848C10.5006 0.824696 9.21478 0.498833 7.90894 0.500003C3.541 0.500003 0.0553185 4.07994 -0.000147408 8.49573C-0.098946 16.6439 8.656 22.4037 13.1817 24.8236C13.6791 25.09 14.1229 25.316 14.5007 25.5C14.8768 25.3248 15.3223 25.09 15.818 24.8236C20.3437 22.4037 29.1004 16.6439 28.9999 8.49573Z" fill="white"/>
</svg>
