<svg width="15" height="14" viewBox="0 0 15 14" fill="none" xmlns="http://www.w3.org/2000/svg">
<path d="M12.9976 2.06089C12.6799 1.72455 12.3028 1.45775 11.8877 1.27572C11.4726 1.09369 11.0276 1 10.5783 1C10.129 1 9.68407 1.09369 9.26897 1.27572C8.85386 1.45775 8.47671 1.72455 8.15907 2.06089L7.49983 2.75857L6.8406 2.06089C6.19898 1.38184 5.32874 1.00035 4.42135 1.00035C3.51395 1.00035 2.64372 1.38184 2.00209 2.06089C1.36046 2.73994 1 3.66092 1 4.62124C1 5.58157 1.36046 6.50255 2.00209 7.1816L2.66132 7.87928L7.49983 13L12.3383 7.87928L12.9976 7.1816C13.3154 6.84543 13.5675 6.44628 13.7395 6.00697C13.9115 5.56765 14 5.09678 14 4.62124C14 4.14571 13.9115 3.67484 13.7395 3.23552C13.5675 2.79621 13.3154 2.39706 12.9976 2.06089Z" stroke="#2C2C2C" stroke-linecap="round" stroke-linejoin="round"/>
</svg>
