<svg width="28" height="28" viewBox="0 0 28 28" fill="none" xmlns="http://www.w3.org/2000/svg">
<circle cx="14" cy="14" r="14" fill="#2E2E2E" fill-opacity="0.2"/>
<path d="M14.0837 22.3333C13.667 22.3333 13.167 22.1667 12.8337 21.8333C7.41699 17.0833 7.33366 17 7.33366 16.9167L7.25032 16.8333C6.25032 15.8333 5.66699 14.4167 5.66699 13V12.8333C5.75033 9.83333 8.16699 7.5 11.167 7.5C12.0837 7.5 13.3337 8 14.0837 9C14.8337 8 16.167 7.5 17.0837 7.5C20.0837 7.5 22.417 9.83333 22.5837 12.8333V13C22.5837 14.5 22.0003 15.8333 21.0003 16.9167L20.917 17C20.8337 17.0833 20.167 17.6667 15.417 21.9167C15.0003 22.1667 14.5837 22.3333 14.0837 22.3333ZM8.58366 16.6667C8.91699 17 10.5837 18.1667 13.667 20.8333C13.917 21.0833 14.2503 21.0833 14.5003 20.8333C17.667 18 19.5003 16.4167 19.917 16.0833L20.0003 16C20.8337 15.1667 21.2503 14.0833 21.2503 13V12.8333C21.167 10.5 19.3337 8.75 17.0003 8.75C16.417 8.75 15.2503 9.16667 14.8337 10.0833C14.667 10.4167 14.3337 10.5833 14.0003 10.5833C13.667 10.5833 13.3337 10.4167 13.167 10.0833C12.7503 9.25 11.667 8.75 11.0003 8.75C8.75032 8.75 6.83366 10.5833 6.75032 12.8333V13.0833C6.75032 14.1667 7.25032 15.25 8.00032 16L8.58366 16.6667Z" fill="white"/>
</svg>
