<svg width="10" height="9" viewBox="0 0 10 9" fill="none" xmlns="http://www.w3.org/2000/svg">
<path d="M10 3.14163C9.95025 1.39056 8.60697 0 6.91542 0C6.36816 0 5.52239 0.412017 5.17413 1.08155C5.12438 1.23605 4.92537 1.23605 4.87562 1.08155C4.47761 0.463519 3.68159 0.0515021 3.08458 0.0515021C1.44279 0.0515021 0.0497512 1.44206 0 3.14163V3.24464C0 4.12017 0.348259 4.94421 0.945274 5.56223C0.945274 5.56223 0.945274 5.56223 0.945274 5.61373C0.995025 5.66524 3.38308 7.82833 4.47761 8.80687C4.77612 9.06438 5.22388 9.06438 5.52239 8.80687C6.61692 7.82833 8.95522 5.66524 9.05473 5.61373C9.05473 5.61373 9.05473 5.61373 9.05473 5.56223C9.65174 4.99571 10 4.17167 10 3.24464V3.14163Z" fill="#2E2E2E"/>
</svg>
