<svg width="124" height="51" viewBox="0 0 124 51" fill="none" xmlns="http://www.w3.org/2000/svg">
<g clip-path="url(#clip0_1073_1653)">
<path d="M48.8222 29.1111C48.8074 29.4791 48.8791 29.8453 49.0315 30.1798C49.1839 30.5143 49.4126 30.8074 49.6988 31.0351C50.38 31.5515 51.2196 31.8084 52.0697 31.7603H55.7255C56.6183 31.8146 57.5039 31.5704 58.2458 31.0653C58.5405 30.8367 58.7766 30.5399 58.9343 30.1998C59.0921 29.8598 59.1668 29.4864 59.1522 29.1111C59.1522 27.8923 58.2856 27.2879 56.5722 27.2879H54.4305L62.32 7.65545L62.5491 7.10143C62.7331 6.66081 62.8344 6.18943 62.8479 5.71135C62.8499 5.45323 62.7976 5.19763 62.6946 4.96147C62.5916 4.72531 62.4401 4.51396 62.2503 4.34141C62.0562 4.14911 61.8253 3.99898 61.5718 3.90024C61.3183 3.8015 61.0474 3.75624 60.776 3.76724C60.1025 3.77353 59.4489 3.99804 58.911 4.4078C58.3731 4.81756 57.9793 5.39096 57.7875 6.04376L57.5684 6.59778L49.4 26.9958C49.0959 27.6648 48.9008 28.3791 48.8222 29.1111Z" fill="white" fill-opacity="0.3"/>
<path d="M60.0493 25.9381C59.9809 27.4646 60.4702 28.9633 61.424 30.1486C61.8632 30.6755 62.4153 31.0944 63.0383 31.3736C63.6613 31.6528 64.339 31.7851 65.02 31.7603H75.2405C76.134 31.8087 77.0188 31.5612 77.7607 31.0552C78.0648 30.8305 78.31 30.5342 78.4749 30.1918C78.6398 29.8495 78.7195 29.4716 78.7071 29.091C78.7071 27.8923 77.8603 27.2879 76.1569 27.2879H73.8857L76.8044 19.9849L77.0236 19.4309C77.2195 18.9999 77.3311 18.5348 77.3523 18.0609C77.3575 17.7949 77.307 17.5308 77.2039 17.286C77.1009 17.0412 76.9478 16.8213 76.7546 16.6406C76.5552 16.4501 76.3206 16.3013 76.0642 16.2028C75.8077 16.1042 75.5346 16.0579 75.2604 16.0665C74.7236 16.0647 74.1959 16.2063 73.7307 16.4769C73.2654 16.7475 72.879 17.1376 72.6107 17.6076C72.1904 16.9953 71.6189 16.5048 70.9531 16.1849C70.2873 15.8651 69.5503 15.727 68.8153 15.7844C67.6439 15.8201 66.4946 16.1167 65.4495 16.653C64.4043 17.1892 63.489 17.952 62.7688 18.8869C61.02 20.8093 60.0493 23.326 60.0493 25.9381ZM67.9089 18.6754C67.7395 22.8356 68.118 23.3896 72.0229 24.7192C67.9089 24.548 67.361 24.9308 66.0461 28.8794C66.2154 24.7192 65.8369 24.1652 61.932 22.8356C66.056 22.9967 66.6039 22.624 67.9089 18.6754Z" fill="white" fill-opacity="0.3"/>
<path d="M80.4694 31.0149C81.3022 31.5536 82.2813 31.8144 83.2685 31.7604H86.496C87.3919 31.8147 88.2807 31.5705 89.0263 31.0653C89.3198 30.8362 89.5544 30.539 89.7105 30.1989C89.8665 29.8588 89.9393 29.4857 89.9228 29.1111C89.9228 27.8923 89.0761 27.2879 87.3726 27.2879H85.0815L87.9803 20.0252C88.2795 19.3918 88.4651 18.7097 88.5282 18.0106C88.5291 17.7493 88.4744 17.4908 88.3678 17.2527C88.2612 17.0146 88.1053 16.8024 87.9106 16.6306C87.5014 16.2763 86.9744 16.0927 86.4363 16.1169C85.7578 16.1257 85.1002 16.3561 84.5617 16.7736C84.0232 17.1911 83.6325 17.7734 83.4478 18.4337L83.2187 19.0078L79.8717 27.3383C79.6279 27.8813 79.4861 28.4654 79.4533 29.0608C79.4485 29.4463 79.5389 29.8269 79.7163 30.1681C79.8938 30.5094 80.1526 30.8004 80.4694 31.0149Z" fill="white" fill-opacity="0.3"/>
<path d="M87.7527 15.2305C88.1233 15.2318 88.4904 15.159 88.8331 15.0162C89.1757 14.8734 89.487 14.6635 89.749 14.3985C90.0111 14.1335 90.2187 13.8187 90.3599 13.4723C90.5011 13.1258 90.5731 12.7545 90.5718 12.3798C90.5721 11.9108 90.4581 11.449 90.2397 11.0353C90.0214 10.6216 89.7054 10.2687 89.3199 10.008C88.9344 9.74728 88.4913 9.58676 88.0298 9.54066C87.5683 9.49456 87.1026 9.56431 86.6742 9.74373C86.2457 9.92314 85.8676 10.2067 85.5734 10.5692C85.2792 10.9317 85.078 11.362 84.9876 11.822C84.8973 12.282 84.9205 12.7574 85.0553 13.2061C85.1901 13.6548 85.4323 14.063 85.7604 14.3944C86.0185 14.6638 86.3284 14.8769 86.6711 15.0207C87.0137 15.1645 87.3818 15.2359 87.7527 15.2305Z" fill="white" fill-opacity="0.3"/>
<path d="M93.8482 31.7603H98.0818C99.8254 31.8115 101.523 31.1924 102.833 30.0277C103.443 29.4914 103.929 28.8266 104.258 28.0801C104.587 27.3336 104.75 26.5234 104.736 25.7064C104.664 23.9598 104.047 22.2812 102.973 20.9116L101.817 19.2898C101.216 18.5357 100.867 17.6081 100.821 16.6406C100.826 16.3736 100.853 16.1075 100.901 15.8448C100.961 15.5796 101.001 15.3102 101.02 15.039C101.02 14.8032 100.969 14.5704 100.871 14.3565C100.773 14.1426 100.63 13.9528 100.453 13.8C100.082 13.4595 99.5985 13.2725 99.0978 13.2762C98.1017 13.2762 97.2849 13.941 96.6274 15.2908L93.9279 20.831C93.5921 21.4125 93.3912 22.0634 93.3401 22.7348C93.3438 22.9936 93.4048 23.2483 93.5185 23.4801C93.6323 23.7119 93.796 23.915 93.9976 24.0745C94.4044 24.4538 94.9385 24.6627 95.4918 24.6588C96.0678 24.6287 96.6204 24.4188 97.0735 24.058C97.5266 23.6972 97.858 23.2033 98.022 22.6441L98.4105 21.6973L99.2971 23.4601C99.6121 24.0029 99.7932 24.6144 99.825 25.243C99.825 26.623 98.8887 27.3181 97.0059 27.3181H94.6949C93.8036 27.262 92.9196 27.5103 92.1846 28.0232C91.8848 28.2499 91.6444 28.5475 91.4847 28.89C91.3249 29.2324 91.2506 29.6092 91.2682 29.9874C91.2682 31.1559 92.1248 31.7603 93.8482 31.7603Z" fill="white" fill-opacity="0.3"/>
<path d="M106.26 31.0352C106.971 31.5529 107.836 31.8088 108.71 31.7605H112.336C113.232 31.8148 114.121 31.5706 114.867 31.0654C115.16 30.8363 115.395 30.5392 115.551 30.199C115.707 29.8589 115.78 29.4858 115.763 29.1113C115.763 27.8924 114.906 27.288 113.193 27.288H110.922L113.631 20.5391H115.116C116.005 20.5904 116.886 20.3463 117.626 19.844C117.926 19.6201 118.167 19.3244 118.327 18.9834C118.487 18.6425 118.561 18.2668 118.542 17.8898C118.542 16.6811 117.686 16.0666 115.972 16.0666H115.335L116.092 14.4449C116.398 13.8333 116.578 13.1649 116.62 12.4806C116.623 12.2238 116.571 11.9693 116.468 11.7346C116.365 11.4999 116.213 11.2905 116.022 11.1207C115.833 10.9334 115.608 10.7861 115.362 10.6876C115.116 10.589 114.852 10.541 114.588 10.5466C113.914 10.5567 113.261 10.7838 112.723 11.1951C112.186 11.6063 111.792 12.1801 111.599 12.8332L111.37 13.3872L110.284 16.117H109.358C108.461 16.0656 107.572 16.3134 106.828 16.8221C106.528 17.0595 106.29 17.3668 106.134 17.7177C105.978 18.0686 105.908 18.4526 105.931 18.8367C105.931 20.0253 106.688 20.6196 108.202 20.6196H108.501L106.11 26.593L105.722 27.4895C105.5 28.0228 105.378 28.5933 105.363 29.1717C105.36 29.5312 105.44 29.8866 105.595 30.2099C105.751 30.5333 105.978 30.8158 106.26 31.0352Z" fill="white" fill-opacity="0.3"/>
<path d="M119.897 36.6156C119.081 36.8271 118.294 37.22 117.507 37.492C115.913 38.046 114.279 38.4993 112.655 38.9223C108.559 40.0651 104.397 40.9531 100.194 41.5816C91.7592 42.8819 83.1872 42.9938 74.7223 41.9141C71.2525 41.4698 67.8151 40.7968 64.4321 39.8994C55.9894 37.5556 48.2252 33.1999 41.7898 27.1973C39.9867 25.5957 38.0542 23.7221 35.9922 21.9996L37.1776 19.028H40.963C44.9475 19.028 47.8795 18.2356 49.7589 16.6508C51.011 15.6511 52.0164 14.371 52.6958 12.9114C53.3752 11.4518 53.7099 9.85255 53.6738 8.23975C53.6738 5.43272 52.8337 3.35767 51.1535 2.01459C49.4734 0.671513 46.8601 -2.52873e-05 43.3139 -2.52873e-05H32.7846C31.4538 -0.094953 30.1295 0.259327 29.0192 1.00728C28.566 1.35977 28.206 1.82016 27.9714 2.34741C27.7367 2.87466 27.6347 3.45242 27.6744 4.02921C27.6744 5.8155 28.9462 6.70864 31.4896 6.70864H34.4781L29.9556 17.9703C30.1249 17.5573 26.7181 17.094 26.4292 17.0436C20.8236 16.2927 15.1313 17.4744 10.2718 20.398C7.76462 21.831 5.58262 23.7799 3.86676 26.1188C2.1509 28.4577 0.93933 31.1346 0.310335 33.9765C0.0960702 35.2135 -0.0039749 36.4679 0.0114917 37.7237C-0.0621243 39.4895 0.218535 41.2522 0.836561 42.9055C1.45459 44.5587 2.39719 46.0684 3.60757 47.3434C4.83477 48.5698 6.29865 49.5275 7.90796 50.1566C9.51727 50.7857 11.2375 51.0728 12.9614 51C16.4473 51.0577 19.845 49.8899 22.5742 47.696C24.4752 46.1932 26.0745 44.3366 27.2859 42.2263C29.2884 38.435 31.0582 34.5226 32.5854 30.5113L33.3724 28.5471C34.249 29.3328 35.0658 30.0983 35.7731 30.7128C38.9424 33.6602 42.3036 36.3894 45.8341 38.8821C52.4086 43.0612 59.7115 45.9331 67.3508 47.3434C84.2853 50.6575 102.047 49.1868 118.503 44.0495C120.635 43.3847 123.484 42.871 123.972 40.2218C124.104 39.4301 123.945 38.6168 123.525 37.9356C123.104 37.2545 122.452 36.7526 121.69 36.525C121.094 36.4085 120.479 36.4396 119.897 36.6156ZM42.1982 6.67843H44.0411C45.7245 6.67843 46.5613 7.37347 46.5613 8.74341C46.5613 11.1744 45.087 12.3865 42.1384 12.3798H39.8572L42.1982 6.67843ZM27.256 26.744C26.7231 28.1187 26.1179 29.4637 25.443 30.7732C24.2078 33.1706 22.7933 35.4874 21.3887 37.8244C19.6455 40.665 17.3145 43.6668 13.6786 43.6668C12.8785 43.703 12.0806 43.5581 11.343 43.2426C10.6054 42.9272 9.94671 42.4492 9.41509 41.8435C8.29455 40.4564 7.72621 38.6963 7.82126 36.9077C7.8265 34.8616 8.39195 32.8568 9.45494 31.1157C11.5404 27.9262 14.7441 25.6549 18.4202 24.7596C20.7213 24.1049 23.7795 23.3594 26.1304 24.0646C27.5349 24.4373 27.7342 25.4244 27.2361 26.744H27.256Z" fill="white" fill-opacity="0.3"/>
</g>
<defs>
<clipPath id="clip0_1073_1653">
<rect width="124" height="51" fill="white"/>
</clipPath>
</defs>
</svg>
