<svg width="18" height="22" viewBox="0 0 18 22" fill="none" xmlns="http://www.w3.org/2000/svg">
<path d="M2.31328 11.9153L1.56806 11.8307L1.56806 11.8307L2.31328 11.9153ZM2.76046 7.97519L3.50568 8.05977L2.76046 7.97519ZM1.44779 13.8721L0.876678 13.386H0.876678L1.44779 13.8721ZM16.4319 11.8307C16.3852 11.4191 16.0137 11.1233 15.6021 11.17C15.1906 11.2168 14.8948 11.5883 14.9415 11.9998L16.4319 11.8307ZM16.5522 13.8721L15.9811 14.3583L16.5522 13.8721ZM6.73005 3.37366L6.973 4.08322C7.2763 3.97938 7.48005 3.69424 7.48005 3.37366H6.73005ZM10.1539 2.28059C10.4237 2.59487 10.8973 2.6309 11.2115 2.36107C11.5258 2.09125 11.5618 1.61774 11.292 1.30347L10.1539 2.28059ZM12.7023 19.2632C12.8477 18.8753 12.6511 18.4431 12.2632 18.2977C11.8753 18.1523 11.4431 18.3489 11.2977 18.7368L12.7023 19.2632ZM6.7023 18.7368C6.55694 18.3489 6.12467 18.1523 5.7368 18.2977C5.34893 18.4431 5.15234 18.8753 5.2977 19.2632L6.7023 18.7368ZM14.7772 16.25H3.22281V17.75H14.7772V16.25ZM3.05849 11.9998L3.50568 8.05977L2.01525 7.89061L1.56806 11.8307L3.05849 11.9998ZM2.01889 14.3583C2.59621 13.6801 2.96028 12.8652 3.05849 11.9998L1.56806 11.8307C1.50519 12.3846 1.27067 12.9231 0.876678 13.386L2.01889 14.3583ZM14.9415 11.9998C15.0397 12.8652 15.4038 13.6801 15.9811 14.3583L17.1233 13.386C16.7293 12.9231 16.4948 12.3846 16.4319 11.8307L14.9415 11.9998ZM3.22281 16.25C2.56777 16.25 2.10443 15.926 1.89056 15.5492C1.68409 15.1854 1.68714 14.748 2.01889 14.3583L0.876678 13.386C0.111406 14.285 0.0877731 15.4116 0.585985 16.2895C1.07679 17.1544 2.04947 17.75 3.22281 17.75V16.25ZM14.7772 17.75C15.9505 17.75 16.9232 17.1544 17.414 16.2895C17.9122 15.4116 17.8886 14.285 17.1233 13.386L15.9811 14.3583C16.3129 14.748 16.3159 15.1854 16.1094 15.5492C15.8956 15.926 15.4322 16.25 14.7772 16.25V17.75ZM7.48005 3.37366V3.26995H5.98005V3.37366H7.48005ZM3.50568 8.05977C3.7087 6.27101 5.05587 4.73962 6.973 4.08322L6.48711 2.6641C4.11944 3.47476 2.29449 5.43026 2.01525 7.89061L3.50568 8.05977ZM9 0.25C7.33213 0.25 5.98005 1.60208 5.98005 3.26995H7.48005C7.48005 2.4305 8.16056 1.75 9 1.75V0.25ZM9 1.75C9.46131 1.75 9.87403 1.95459 10.1539 2.28059L11.292 1.30347C10.7393 0.659712 9.91709 0.25 9 0.25V1.75ZM11.2977 18.7368C10.975 19.5979 10.0846 20.25 9 20.25V21.75C10.6855 21.75 12.1516 20.7325 12.7023 19.2632L11.2977 18.7368ZM9 20.25C7.91542 20.25 7.02502 19.5979 6.7023 18.7368L5.2977 19.2632C5.84835 20.7325 7.31452 21.75 9 21.75V20.25Z" fill="#306EB5"/>
<path d="M15.6867 11.9153L16.4319 11.8307L16.4319 11.8307L15.6867 11.9153ZM15.2395 7.97519L14.4943 8.05977L15.2395 7.97519ZM16.5522 13.8721L17.1233 13.386H17.1233L16.5522 13.8721ZM1.56806 11.8307C1.61477 11.4191 1.98629 11.1233 2.39786 11.17C2.80943 11.2168 3.1052 11.5883 3.05849 11.9998L1.56806 11.8307ZM1.44778 13.8721L2.01889 14.3583L1.44778 13.8721ZM11.2699 3.37366L11.027 4.08322C10.7237 3.97938 10.5199 3.69424 10.5199 3.37366H11.2699ZM7.84608 2.28059C7.57625 2.59487 7.10275 2.6309 6.78847 2.36107C6.4742 2.09125 6.43817 1.61774 6.70799 1.30347L7.84608 2.28059ZM5.2977 19.2632C5.15234 18.8753 5.34893 18.4431 5.7368 18.2977C6.12466 18.1523 6.55693 18.3489 6.7023 18.7368L5.2977 19.2632ZM11.2977 18.7368C11.4431 18.3489 11.8753 18.1523 12.2632 18.2977C12.6511 18.4431 12.8477 18.8753 12.7023 19.2632L11.2977 18.7368ZM3.22281 16.25H14.7772V17.75H3.22281V16.25ZM14.9415 11.9998L14.4943 8.05977L15.9848 7.89061L16.4319 11.8307L14.9415 11.9998ZM15.9811 14.3583C15.4038 13.6801 15.0397 12.8652 14.9415 11.9998L16.4319 11.8307C16.4948 12.3846 16.7293 12.9231 17.1233 13.386L15.9811 14.3583ZM3.05849 11.9998C2.96028 12.8652 2.59621 13.6801 2.01889 14.3583L0.876677 13.386C1.27067 12.9231 1.50519 12.3846 1.56806 11.8307L3.05849 11.9998ZM14.7772 16.25C15.4322 16.25 15.8956 15.926 16.1094 15.5492C16.3159 15.1854 16.3129 14.748 15.9811 14.3583L17.1233 13.386C17.8886 14.285 17.9122 15.4116 17.414 16.2895C16.9232 17.1544 15.9505 17.75 14.7772 17.75V16.25ZM3.22281 17.75C2.04947 17.75 1.07679 17.1544 0.585983 16.2895C0.0877724 15.4116 0.111404 14.285 0.876677 13.386L2.01889 14.3583C1.68714 14.748 1.68409 15.1854 1.89056 15.5492C2.10442 15.926 2.56777 16.25 3.22281 16.25V17.75ZM10.5199 3.37366V3.26995H12.0199V3.37366H10.5199ZM14.4943 8.05977C14.2913 6.27101 12.9441 4.73962 11.027 4.08322L11.5129 2.6641C13.8806 3.47476 15.7055 5.43026 15.9848 7.89061L14.4943 8.05977ZM9 0.25C10.6679 0.25 12.0199 1.60208 12.0199 3.26995H10.5199C10.5199 2.4305 9.83944 1.75 9 1.75V0.25ZM9 1.75C8.53869 1.75 8.12597 1.95459 7.84608 2.28059L6.70799 1.30347C7.2607 0.659712 8.08291 0.25 9 0.25V1.75ZM6.7023 18.7368C7.02501 19.5979 7.91542 20.25 9 20.25V21.75C7.31452 21.75 5.84835 20.7325 5.2977 19.2632L6.7023 18.7368ZM9 20.25C10.0846 20.25 10.975 19.5979 11.2977 18.7368L12.7023 19.2632C12.1516 20.7325 10.6855 21.75 9 21.75V20.25Z" fill="#306EB5"/>
</svg>
