<svg width="21" height="21" viewBox="0 0 21 21" fill="none" xmlns="http://www.w3.org/2000/svg">
<path d="M9.6 8.63975C9.6 9.13681 10.0029 9.53975 10.5 9.53975C10.9971 9.53975 11.4 9.13681 11.4 8.63975H9.6ZM11.4 3.5C11.4 3.00294 10.9971 2.6 10.5 2.6C10.0029 2.6 9.6 3.00294 9.6 3.5H11.4ZM8.24798 6.0507C8.70034 5.84471 8.90007 5.31101 8.69408 4.85865C8.48809 4.40628 7.95439 4.20656 7.50202 4.41255L8.24798 6.0507ZM4.375 10.64L3.47501 10.6353C3.47499 10.6403 3.475 10.6454 3.47506 10.6505L4.375 10.64ZM10.5 16.625L10.5103 15.7251C10.5034 15.725 10.4966 15.725 10.4897 15.7251L10.5 16.625ZM16.625 10.64L17.5249 10.6505C17.525 10.6454 17.525 10.6403 17.525 10.6353L16.625 10.64ZM13.498 4.41255C13.0456 4.20656 12.5119 4.40628 12.3059 4.85865C12.0999 5.31101 12.2997 5.84471 12.752 6.0507L13.498 4.41255ZM11.4 8.63975V3.5H9.6V8.63975H11.4ZM7.50202 4.41255C5.06109 5.52406 3.48907 7.95324 3.47501 10.6353L5.27499 10.6447C5.28536 8.66466 6.44593 6.87129 8.24798 6.0507L7.50202 4.41255ZM3.47506 10.6505C3.51976 14.4914 6.66939 17.569 10.5103 17.5249L10.4897 15.7251C7.64266 15.7578 5.30807 13.4765 5.27494 10.6295L3.47506 10.6505ZM10.4897 17.5249C14.3306 17.569 17.4802 14.4914 17.5249 10.6505L15.7251 10.6295C15.6919 13.4765 13.3573 15.7578 10.5103 15.7251L10.4897 17.5249ZM17.525 10.6353C17.5109 7.95324 15.9389 5.52406 13.498 4.41255L12.752 6.0507C14.5541 6.87129 15.7146 8.66466 15.725 10.6447L17.525 10.6353Z" fill="white"/>
</svg>
