<svg width="20" height="20" viewBox="0 0 20 20" fill="none" xmlns="http://www.w3.org/2000/svg">
<path d="M3.33366 3.33325L16.667 16.6666M11.667 11.8633C11.2247 12.2592 10.6406 12.4999 10.0003 12.4999C8.61961 12.4999 7.50033 11.3806 7.50033 9.99992C7.50033 9.35962 7.74104 8.77555 8.1369 8.33325M16.3401 13.0063C16.8163 12.5918 17.2422 12.1748 17.6089 11.789C18.5752 10.7723 18.5752 9.22756 17.6089 8.21083C15.9791 6.49603 13.1799 4.16659 10.0003 4.16659C9.25751 4.16659 8.53547 4.29372 7.84424 4.51045M5.41699 5.6694C4.20152 6.44528 3.16502 7.39724 2.39175 8.21083C1.42541 9.22756 1.42541 10.7723 2.39175 11.789C4.02157 13.5038 6.82073 15.8333 10.0003 15.8333C11.5571 15.8333 13.0226 15.2749 14.3044 14.5036" stroke="#7D848D" stroke-width="1.5" stroke-linecap="round"/>
</svg>
