<svg width="73" height="73" viewBox="0 0 73 73" fill="none" xmlns="http://www.w3.org/2000/svg">
<circle cx="36.5" cy="36.5" r="36.5" fill="white"/>
<g clip-path="url(#clip0_0_1)">
<path d="M21.2822 43.2488C21.9058 41.6697 21.6544 40.4829 19.9244 39.97C17.0479 39.1251 13.3265 39.97 10.5203 40.8048C7.00345 41.7315 3.81577 43.6232 1.31738 46.2662C2.92692 52.0221 5.92866 57.2933 10.0577 61.6145C11.6903 60.1729 13.0764 58.4742 14.1613 56.5856C15.8812 53.8297 17.6011 51.0437 19.0997 48.147C19.9195 46.557 20.6482 44.9216 21.2822 43.2488Z" fill="#3B89E2"/>
<path d="M31.7124 48.0665C30.8474 47.3223 29.8517 46.417 28.7856 45.4615L27.7798 47.8352C25.9196 52.6574 23.7631 57.3601 21.3226 61.9162C20.1649 63.9448 18.7106 65.789 17.0078 67.3877C23.3868 71.4143 30.8574 73.3637 38.3905 72.9674C45.9237 72.5711 53.1485 69.8486 59.0698 65.175C53.7427 63.3874 48.6555 60.9519 43.9227 57.9232C39.4972 55.0568 35.7054 51.4862 31.7124 48.0665Z" fill="#3B89E2"/>
<path d="M36.5 1.69688e-06C26.9027 -0.000837856 17.6912 3.77835 10.8598 10.5194C4.02843 17.2604 0.126942 26.4207 0 36.0172C0.201157 35.8865 0.392257 35.7557 0.593414 35.6451C6.51486 32.1178 13.4563 30.6997 20.2867 31.6219C20.6488 31.6823 24.8027 32.2455 24.6015 32.7384L30.1736 19.1099H26.4723C23.3745 19.1099 21.8256 18.0338 21.8256 15.8814C21.7922 15.2008 21.9228 14.5221 22.2063 13.9025C22.4899 13.2829 22.9181 12.7405 23.4549 12.3209C24.8088 11.4031 26.4291 10.9609 28.0614 11.0637H40.8953C45.2101 11.0637 48.3884 11.8783 50.4503 13.5077C52.5121 15.1371 53.528 17.6415 53.528 21.031C53.5723 22.9771 53.1639 24.9068 52.3348 26.668C51.5057 28.4292 50.2786 29.9736 48.7505 31.1794C46.4238 33.077 42.8499 34.0224 38.0288 34.0157H33.4122L31.9639 37.5963C34.4784 39.6783 36.8319 41.9312 39.0044 43.8724C46.9501 50.8425 55.3183 55.8513 65.4264 58.748C69.5843 53.3465 72.1461 46.8885 72.8215 40.1056C73.4969 33.3227 72.2589 26.4863 69.2479 20.371C66.2368 14.2557 61.573 9.10601 55.7851 5.50559C49.9971 1.90516 43.3164 -0.00207671 36.5 1.69688e-06Z" fill="#3B89E2"/>
<path d="M44.7974 21.5842C44.7974 19.9246 43.7916 19.0898 41.78 19.0898H39.4767L36.6807 25.9694H39.4164C43.0104 25.9694 44.8041 24.5077 44.7974 21.5842Z" fill="#3B89E2"/>
</g>
<defs>
<clipPath id="clip0_0_1">
<rect width="73" height="73" fill="white"/>
</clipPath>
</defs>
</svg>
