<svg width="73" height="73" viewBox="0 0 73 73" fill="none" xmlns="http://www.w3.org/2000/svg">
<g clip-path="url(#clip0_1108_1486)">
<path d="M21.1596 43C21.7796 41.43 21.5296 40.25 19.8096 39.74C16.9496 38.9 13.2496 39.74 10.4596 40.57C6.96292 41.4914 3.79359 43.3722 1.30957 46C2.90984 51.7228 5.89432 56.9637 9.99957 61.26C11.6228 59.8267 13.001 58.1378 14.0796 56.26C15.7896 53.52 17.4996 50.75 18.9896 47.87C19.8047 46.2891 20.5292 44.6632 21.1596 43Z" fill="#3B89E2"/>
<path d="M31.5302 47.79C30.6702 47.05 29.6802 46.15 28.6202 45.2L27.6202 47.56C25.7706 52.3545 23.6265 57.0301 21.2002 61.56C20.0491 63.5769 18.6032 65.4105 16.9102 67C23.2524 71.0034 30.6801 72.9416 38.1699 72.5476C45.6596 72.1536 52.8429 69.4468 58.7302 64.8C53.4337 63.0228 48.3758 60.6013 43.6702 57.59C39.2702 54.74 35.5002 51.19 31.5302 47.79Z" fill="#3B89E2"/>
<path d="M36.29 1.68712e-06C26.7479 -0.000833035 17.5894 3.75661 10.7973 10.4588C4.00526 17.1611 0.126211 26.2687 0 35.81C0.2 35.68 0.39 35.55 0.59 35.44C6.47737 31.933 13.3789 30.5231 20.17 31.44C20.53 31.5 24.66 32.06 24.46 32.55L30 19H26.32C23.24 19 21.7 17.93 21.7 15.79C21.6668 15.1133 21.7966 14.4386 22.0785 13.8226C22.3605 13.2065 22.7862 12.6672 23.32 12.25C24.666 11.3375 26.277 10.8978 27.9 11H40.66C44.95 11 48.11 11.81 50.16 13.43C52.21 15.05 53.22 17.54 53.22 20.91C53.2641 22.8449 52.858 24.7635 52.0337 26.5146C51.2093 28.2656 49.9894 29.8012 48.47 31C46.1567 32.8867 42.6033 33.8267 37.81 33.82H33.22L31.78 37.38C34.28 39.45 36.62 41.69 38.78 43.62C46.68 50.55 55 55.53 65.05 58.41C69.1839 53.0396 71.731 46.6187 72.4025 39.8749C73.0741 33.131 71.8432 26.3339 68.8495 20.2538C65.8557 14.1736 61.2188 9.05362 55.4641 5.47391C49.7095 1.8942 43.0672 -0.00206476 36.29 1.68712e-06Z" fill="#3B89E2"/>
<path d="M44.5397 21.46C44.5397 19.81 43.5397 18.98 41.5397 18.98H39.2497L36.4697 25.82H39.1897C42.7631 25.82 44.5464 24.3667 44.5397 21.46Z" fill="#3B89E2"/>
</g>
<defs>
<clipPath id="clip0_1108_1486">
<rect width="72.58" height="72.58" fill="white"/>
</clipPath>
</defs>
</svg>
