<svg width="46" height="19" viewBox="0 0 46 19" fill="none" xmlns="http://www.w3.org/2000/svg">
<g id="&#236;&#158;&#144;&#236;&#130;&#176; 2 1" clip-path="url(#clip0_118_2907)">
<g id="&#235;&#160;&#136;&#236;&#157;&#180;&#236;&#150;&#180; 2">
<g id="&#235;&#160;&#136;&#236;&#157;&#180;&#236;&#150;&#180; 1">
<path id="Vector" d="M18.1081 10.8454C18.1026 10.9824 18.1292 11.1189 18.1858 11.2435C18.2423 11.3681 18.3271 11.4773 18.4333 11.5621C18.686 11.7545 18.9975 11.8502 19.3128 11.8323H20.669C21.0002 11.8526 21.3287 11.7616 21.604 11.5734C21.7133 11.4882 21.8009 11.3776 21.8594 11.251C21.9179 11.1243 21.9456 10.9852 21.9402 10.8454C21.9402 10.3913 21.6187 10.1661 20.9831 10.1661H20.1886L23.1154 2.85207L23.2004 2.64568C23.2686 2.48152 23.3062 2.30591 23.3112 2.1278C23.3119 2.03164 23.2926 1.93642 23.2543 1.84843C23.2161 1.76045 23.1599 1.68171 23.0895 1.61743C23.0175 1.54579 22.9319 1.48986 22.8378 1.45307C22.7438 1.41629 22.6433 1.39943 22.5426 1.40353C22.2928 1.40587 22.0503 1.48951 21.8507 1.64216C21.6512 1.79482 21.5051 2.00844 21.434 2.25164L21.3527 2.45804L18.3225 10.0573C18.2097 10.3065 18.1373 10.5727 18.1081 10.8454Z" fill="#3B89E2"/>
<path id="Vector_2" d="M22.2728 9.66326C22.2475 10.232 22.429 10.7903 22.7828 11.2319C22.9458 11.4282 23.1506 11.5842 23.3817 11.6883C23.6128 11.7923 23.8642 11.8415 24.1168 11.8323H27.9083C28.2398 11.8504 28.568 11.7581 28.8432 11.5696C28.956 11.4859 29.047 11.3755 29.1082 11.248C29.1693 11.1204 29.1989 10.9797 29.1943 10.8379C29.1943 10.3913 28.8802 10.1661 28.2483 10.1661H27.4057L28.4885 7.44541L28.5698 7.23901C28.6424 7.07846 28.6839 6.90515 28.6917 6.72864C28.6936 6.62954 28.6749 6.53115 28.6367 6.43995C28.5985 6.34875 28.5416 6.2668 28.47 6.1995C28.396 6.12852 28.309 6.07308 28.2139 6.03638C28.1187 5.99967 28.0174 5.98241 27.9157 5.9856C27.7166 5.98494 27.5208 6.03769 27.3482 6.13851C27.1756 6.23933 27.0323 6.38465 26.9327 6.55976C26.7768 6.33162 26.5648 6.14889 26.3178 6.02973C26.0708 5.91057 25.7974 5.85913 25.5248 5.88052C25.0902 5.89383 24.6639 6.00431 24.2761 6.20409C23.8884 6.40388 23.5489 6.68805 23.2817 7.03636C22.6329 7.75255 22.2729 8.69014 22.2728 9.66326ZM25.1885 6.95755C25.1257 8.50742 25.2661 8.71382 26.7147 9.20918C25.1885 9.14539 24.9853 9.28799 24.4975 10.7591C24.5603 9.20918 24.4199 9.00278 22.9713 8.50742C24.5012 8.56747 24.7044 8.42862 25.1885 6.95755Z" fill="#3B89E2"/>
<path id="Vector_3" d="M29.8477 11.5546C30.1567 11.7553 30.5199 11.8524 30.8861 11.8323H32.0834C32.4157 11.8526 32.7454 11.7616 33.022 11.5734C33.1309 11.488 33.218 11.3773 33.2758 11.2506C33.3337 11.1239 33.3607 10.9849 33.3546 10.8454C33.3546 10.3913 33.0405 10.1661 32.4086 10.1661H31.5587L32.634 7.46041C32.745 7.22444 32.8138 6.97031 32.8373 6.70987C32.8376 6.61251 32.8173 6.51621 32.7778 6.4275C32.7382 6.3388 32.6804 6.25976 32.6081 6.19575C32.4564 6.06377 32.2608 5.99535 32.0612 6.00436C31.8095 6.00766 31.5656 6.09348 31.3658 6.24902C31.166 6.40455 31.0211 6.62149 30.9526 6.86748L30.8676 7.08139L29.626 10.1849C29.5356 10.3872 29.4829 10.6048 29.4708 10.8266C29.469 10.9702 29.5025 11.112 29.5683 11.2391C29.6342 11.3663 29.7302 11.4747 29.8477 11.5546Z" fill="#3B89E2"/>
<path id="Vector_4" d="M32.5487 5.67413C32.6862 5.67462 32.8224 5.64749 32.9495 5.5943C33.0766 5.5411 33.1921 5.46289 33.2893 5.36417C33.3865 5.26546 33.4635 5.14819 33.5159 5.01911C33.5683 4.89004 33.595 4.75171 33.5945 4.61211C33.5946 4.4374 33.5523 4.26535 33.4713 4.11122C33.3903 3.95709 33.2731 3.82563 33.1301 3.7285C32.9871 3.63137 32.8227 3.57157 32.6515 3.5544C32.4803 3.53723 32.3076 3.56321 32.1486 3.63005C31.9897 3.69689 31.8494 3.80252 31.7403 3.93758C31.6311 4.07264 31.5565 4.23295 31.523 4.40431C31.4895 4.57567 31.4981 4.75279 31.5481 4.91996C31.5981 5.08712 31.6879 5.23918 31.8096 5.36265C31.9054 5.46301 32.0204 5.54242 32.1475 5.59599C32.2746 5.64955 32.4111 5.67614 32.5487 5.67413Z" fill="#3B89E2"/>
<path id="Vector_5" d="M34.8106 11.8323H36.3811C37.0279 11.8514 37.6578 11.6208 38.1438 11.1869C38.37 10.9871 38.5504 10.7394 38.6723 10.4613C38.7942 10.1832 38.8547 9.88134 38.8496 9.57695C38.823 8.92628 38.594 8.30092 38.1955 7.79065L37.7669 7.18647C37.5439 6.90552 37.4145 6.55993 37.3973 6.1995C37.3993 6.10003 37.4092 6.00089 37.4269 5.90304C37.4491 5.80423 37.4639 5.70388 37.4712 5.60282C37.4711 5.515 37.4521 5.42826 37.4158 5.34858C37.3794 5.2689 37.3265 5.19816 37.2606 5.14124C37.1232 5.01437 36.9438 4.94471 36.758 4.9461C36.3885 4.9461 36.0855 5.19378 35.8416 5.69664L34.8401 7.76063C34.7156 7.97727 34.641 8.21977 34.6221 8.4699C34.6235 8.56631 34.6461 8.66118 34.6883 8.74755C34.7305 8.83392 34.7912 8.90959 34.866 8.96901C35.0169 9.11032 35.2151 9.18813 35.4203 9.18666C35.634 9.17546 35.839 9.09727 36.0071 8.96286C36.1752 8.82844 36.2981 8.64442 36.3589 8.43612L36.5031 8.08337L36.8319 8.74009C36.9488 8.94232 37.016 9.17015 37.0278 9.40432C37.0278 9.91844 36.6804 10.1774 35.982 10.1774H35.1247C34.7941 10.1565 34.4661 10.249 34.1935 10.4401C34.0822 10.5245 33.9931 10.6354 33.9338 10.763C33.8745 10.8906 33.847 11.0309 33.8535 11.1719C33.8535 11.6072 34.1713 11.8323 34.8106 11.8323Z" fill="#3B89E2"/>
<path id="Vector_6" d="M39.4156 11.5621C39.6794 11.755 40.0002 11.8504 40.3247 11.8323H41.6698C42.0021 11.8526 42.3318 11.7616 42.6084 11.5734C42.7173 11.488 42.8044 11.3773 42.8622 11.2506C42.9201 11.1239 42.9471 10.9849 42.941 10.8454C42.941 10.3913 42.6232 10.1661 41.9876 10.1661H41.1451L42.1502 7.65181H42.7008C43.0307 7.67093 43.3577 7.58 43.632 7.39287C43.7435 7.30943 43.8328 7.19929 43.8921 7.07226C43.9515 6.94523 43.9789 6.80526 43.972 6.66484C43.972 6.21452 43.6542 5.9856 43.0186 5.9856H42.7821L43.063 5.38142C43.1766 5.15357 43.2432 4.90456 43.2588 4.64964C43.26 4.55396 43.2408 4.45915 43.2025 4.37171C43.1642 4.28427 43.1078 4.20626 43.0371 4.14302C42.9668 4.07323 42.8836 4.01837 42.7922 3.98164C42.7009 3.94491 42.6032 3.92705 42.505 3.92912C42.255 3.93288 42.0127 4.01751 41.8133 4.17071C41.6139 4.32391 41.4679 4.53769 41.3963 4.78098L41.3113 4.98738L40.9086 6.00437H40.5649C40.2321 5.98524 39.9024 6.07752 39.6263 6.26706C39.5151 6.35548 39.4268 6.46998 39.3689 6.60071C39.311 6.73144 39.2852 6.8745 39.2937 7.0176C39.2937 7.46042 39.5745 7.68183 40.1362 7.68183H40.2471L39.3602 9.90719L39.2161 10.2412C39.1338 10.4399 39.0886 10.6524 39.083 10.8679C39.0819 11.0018 39.1113 11.1342 39.169 11.2547C39.2267 11.3751 39.3111 11.4804 39.4156 11.5621Z" fill="#3B89E2"/>
<path id="Vector_7" d="M44.4742 13.6411C44.1711 13.7199 43.8792 13.8663 43.5873 13.9676C42.996 14.174 42.39 14.3429 41.7876 14.5005C40.268 14.9262 38.7242 15.2571 37.1647 15.4912C34.0358 15.9756 30.8558 16.0173 27.7157 15.6151C26.4285 15.4496 25.1533 15.1988 23.8983 14.8645C20.7664 13.9913 17.8861 12.3686 15.4987 10.1323C14.8299 9.53566 14.113 8.83766 13.348 8.19594L13.7878 7.08889H15.192C16.6702 7.08889 17.7579 6.79368 18.455 6.20325C18.9195 5.83084 19.2925 5.35394 19.5445 4.81016C19.7966 4.26638 19.9207 3.67058 19.9073 3.06974C19.9073 2.02398 19.5957 1.25092 18.9724 0.750558C18.3491 0.250196 17.3797 1.45147e-05 16.0641 1.45147e-05H12.1581C11.6644 -0.0353507 11.1732 0.0966359 10.7613 0.375286C10.5932 0.506607 10.4596 0.678121 10.3726 0.874549C10.2855 1.07098 10.2477 1.28622 10.2624 1.5011C10.2624 2.16658 10.7342 2.49932 11.6777 2.49932H12.7863L11.1086 6.69486C11.1715 6.541 9.90765 6.36837 9.80048 6.34961C7.72099 6.06984 5.60933 6.51009 3.80659 7.59926C2.87652 8.13313 2.06707 8.85919 1.43054 9.73055C0.794007 10.6019 0.344555 11.5992 0.111218 12.6579C0.0317327 13.1188 -0.00538081 13.5861 0.000356809 14.0539C-0.0269524 14.7118 0.0771632 15.3685 0.306431 15.9844C0.535698 16.6003 0.885373 17.1628 1.33439 17.6378C1.78964 18.0947 2.33269 18.4514 2.92969 18.6858C3.52669 18.9202 4.16484 19.0271 4.80434 19C6.09752 19.0215 7.35795 18.5864 8.37038 17.7691C9.0756 17.2092 9.66889 16.5176 10.1183 15.7314C10.8611 14.3189 11.5177 12.8614 12.0842 11.367L12.3762 10.6352C12.7014 10.9279 13.0044 11.2131 13.2667 11.442C14.4425 12.5401 15.6894 13.5569 16.9991 14.4855C19.438 16.0424 22.1471 17.1123 24.9811 17.6378C31.2632 18.8724 37.8521 18.3245 43.9568 16.4106C44.7476 16.163 45.8045 15.9716 45.9856 14.9846C46.0347 14.6897 45.9757 14.3867 45.8198 14.1329C45.6639 13.8791 45.4218 13.6922 45.1393 13.6074C44.9182 13.564 44.69 13.5756 44.4742 13.6411ZM15.6503 2.48807H16.3339C16.9584 2.48807 17.2688 2.747 17.2688 3.25737C17.2688 4.16303 16.7219 4.6146 15.6281 4.6121H14.7818L15.6503 2.48807ZM10.1072 9.96347C9.90948 10.4756 9.68498 10.9767 9.43464 11.4646C8.97642 12.3577 8.45167 13.2208 7.93063 14.0915C7.28394 15.1497 6.41922 16.268 5.07041 16.268C4.77361 16.2815 4.4776 16.2275 4.20397 16.11C3.93034 15.9925 3.686 15.8144 3.48879 15.5888C3.07311 15.072 2.86227 14.4163 2.89753 13.75C2.89947 12.9877 3.10924 12.2408 3.50357 11.5922C4.27721 10.4039 5.46569 9.55773 6.82941 9.22419C7.68304 8.98026 8.81752 8.70256 9.68962 8.96525C10.2107 9.1041 10.2846 9.47187 10.0998 9.96347H10.1072Z" fill="#3B89E2"/>
</g>
</g>
</g>
<defs>
<clipPath id="clip0_118_2907">
<rect width="46" height="19" fill="white"/>
</clipPath>
</defs>
</svg>
