<svg width="21" height="21" viewBox="0 0 21 21" fill="none" xmlns="http://www.w3.org/2000/svg">
<path d="M2 8.83333C1.17157 8.83333 0.5 9.50491 0.5 10.3333C0.5 11.1618 1.17157 11.8333 2 11.8333V8.83333ZM10.3333 11.8333C11.1618 11.8333 11.8333 11.1618 11.8333 10.3333C11.8333 9.50491 11.1618 8.83333 10.3333 8.83333V11.8333ZM10.3333 8.83333C9.50491 8.83333 8.83333 9.50491 8.83333 10.3333C8.83333 11.1618 9.50491 11.8333 10.3333 11.8333V8.83333ZM18.6667 11.8333C19.4951 11.8333 20.1667 11.1618 20.1667 10.3333C20.1667 9.50491 19.4951 8.83333 18.6667 8.83333V11.8333ZM11.8333 10.3333C11.8333 9.50491 11.1618 8.83333 10.3333 8.83333C9.50491 8.83333 8.83333 9.50491 8.83333 10.3333H11.8333ZM8.83333 18.6667C8.83333 19.4951 9.50491 20.1667 10.3333 20.1667C11.1618 20.1667 11.8333 19.4951 11.8333 18.6667H8.83333ZM8.83333 10.3333C8.83333 11.1618 9.50491 11.8333 10.3333 11.8333C11.1618 11.8333 11.8333 11.1618 11.8333 10.3333H8.83333ZM11.8333 2C11.8333 1.17157 11.1618 0.5 10.3333 0.5C9.50491 0.5 8.83333 1.17157 8.83333 2H11.8333ZM2 11.8333H10.3333V8.83333H2V11.8333ZM10.3333 11.8333H18.6667V8.83333H10.3333V11.8333ZM10.3333 10.3333H8.83333C8.83333 10.3333 8.83333 10.3333 8.83333 10.3333C8.83333 10.3333 8.83333 10.3333 8.83333 10.3333C8.83333 10.3333 8.83333 10.3333 8.83333 10.3333C8.83333 10.3333 8.83333 10.3333 8.83333 10.3333C8.83333 10.3333 8.83333 10.3334 8.83333 10.3334C8.83333 10.3334 8.83333 10.3334 8.83333 10.3334C8.83333 10.3334 8.83333 10.3334 8.83333 10.3334C8.83333 10.3334 8.83333 10.3334 8.83333 10.3334C8.83333 10.3334 8.83333 10.3334 8.83333 10.3334C8.83333 10.3334 8.83333 10.3334 8.83333 10.3334C8.83333 10.3335 8.83333 10.3335 8.83333 10.3335C8.83333 10.3335 8.83333 10.3335 8.83333 10.3335C8.83333 10.3335 8.83333 10.3335 8.83333 10.3335C8.83333 10.3336 8.83333 10.3336 8.83333 10.3336C8.83333 10.3336 8.83333 10.3336 8.83333 10.3336C8.83333 10.3337 8.83333 10.3337 8.83333 10.3337C8.83333 10.3337 8.83333 10.3337 8.83333 10.3338C8.83333 10.3338 8.83333 10.3338 8.83333 10.3338C8.83333 10.3339 8.83333 10.3339 8.83333 10.3339C8.83333 10.3339 8.83333 10.334 8.83333 10.334C8.83333 10.334 8.83333 10.3341 8.83333 10.3341C8.83333 10.3341 8.83333 10.3342 8.83333 10.3342C8.83333 10.3342 8.83333 10.3343 8.83333 10.3343C8.83333 10.3343 8.83333 10.3344 8.83333 10.3344C8.83333 10.3345 8.83333 10.3345 8.83333 10.3346C8.83333 10.3346 8.83333 10.3346 8.83333 10.3347C8.83333 10.3347 8.83333 10.3348 8.83333 10.3348C8.83333 10.3349 8.83333 10.335 8.83333 10.335C8.83333 10.3351 8.83333 10.3351 8.83333 10.3352C8.83333 10.3352 8.83333 10.3353 8.83333 10.3354C8.83333 10.3354 8.83333 10.3355 8.83333 10.3356C8.83333 10.3356 8.83333 10.3357 8.83333 10.3358C8.83333 10.3358 8.83333 10.3359 8.83333 10.336C8.83333 10.3361 8.83333 10.3362 8.83333 10.3362C8.83333 10.3363 8.83333 10.3364 8.83333 10.3365C8.83333 10.3366 8.83333 10.3367 8.83333 10.3367C8.83333 10.3368 8.83333 10.3369 8.83333 10.337C8.83333 10.3371 8.83333 10.3372 8.83333 10.3373C8.83333 10.3374 8.83333 10.3375 8.83333 10.3376C8.83333 10.3377 8.83333 10.3378 8.83333 10.3379C8.83333 10.338 8.83333 10.3382 8.83333 10.3383C8.83333 10.3384 8.83333 10.3385 8.83333 10.3386C8.83333 10.3387 8.83333 10.3389 8.83333 10.339C8.83333 10.3391 8.83333 10.3392 8.83333 10.3394C8.83333 10.3395 8.83333 10.3396 8.83333 10.3398C8.83333 10.3399 8.83333 10.3401 8.83333 10.3402C8.83333 10.3403 8.83333 10.3405 8.83333 10.3406C8.83333 10.3408 8.83333 10.3409 8.83333 10.3411C8.83333 10.3413 8.83333 10.3414 8.83333 10.3416C8.83333 10.3417 8.83333 10.3419 8.83333 10.3421C8.83333 10.3422 8.83333 10.3424 8.83333 10.3426C8.83333 10.3428 8.83333 10.3429 8.83333 10.3431C8.83333 10.3433 8.83333 10.3435 8.83333 10.3437C8.83333 10.3439 8.83333 10.344 8.83333 10.3442C8.83333 10.3444 8.83333 10.3446 8.83333 10.3448C8.83333 10.345 8.83333 10.3452 8.83333 10.3454C8.83333 10.3457 8.83333 10.3459 8.83333 10.3461C8.83333 10.3463 8.83333 10.3465 8.83333 10.3467C8.83333 10.347 8.83333 10.3472 8.83333 10.3474C8.83333 10.3477 8.83333 10.3479 8.83333 10.3481C8.83333 10.3484 8.83333 10.3486 8.83333 10.3489C8.83333 10.3491 8.83333 10.3494 8.83333 10.3496C8.83333 10.3499 8.83333 10.3501 8.83333 10.3504C8.83333 10.3506 8.83333 10.3509 8.83333 10.3512C8.83333 10.3515 8.83333 10.3517 8.83333 10.352C8.83333 10.3523 8.83333 10.3526 8.83333 10.3529C8.83333 10.3531 8.83333 10.3534 8.83333 10.3537C8.83333 10.354 8.83333 10.3543 8.83333 10.3546C8.83333 10.3549 8.83333 10.3552 8.83333 10.3556C8.83333 10.3559 8.83333 10.3562 8.83333 10.3565C8.83333 10.3568 8.83333 10.3572 8.83333 10.3575C8.83333 10.3578 8.83333 10.3582 8.83333 10.3585C8.83333 10.3588 8.83333 10.3592 8.83333 10.3595C8.83333 10.3599 8.83333 10.3602 8.83333 10.3606C8.83333 10.3609 8.83333 10.3613 8.83333 10.3617C8.83333 10.362 8.83333 10.3624 8.83333 10.3628C8.83333 10.3632 8.83333 10.3636 8.83333 10.3639C8.83333 10.3643 8.83333 10.3647 8.83333 10.3651C8.83333 10.3655 8.83333 10.3659 8.83333 10.3663C8.83333 10.3667 8.83333 10.3671 8.83333 10.3676C8.83333 10.368 8.83333 10.3684 8.83333 10.3688C8.83333 10.3693 8.83333 10.3697 8.83333 10.3701C8.83333 10.3706 8.83333 10.371 8.83333 10.3715C8.83333 10.3719 8.83333 10.3724 8.83333 10.3728C8.83333 10.3733 8.83333 10.3737 8.83333 10.3742C8.83333 10.3747 8.83333 10.3752 8.83333 10.3756C8.83333 10.3761 8.83333 10.3766 8.83333 10.3771C8.83333 10.3776 8.83333 10.3781 8.83333 10.3786C8.83333 10.3791 8.83333 10.3796 8.83333 10.3801C8.83333 10.3806 8.83333 10.3812 8.83333 10.3817C8.83333 10.3822 8.83333 10.3827 8.83333 10.3833C8.83333 10.3838 8.83333 10.3844 8.83333 10.3849C8.83333 10.3855 8.83333 10.386 8.83333 10.3866C8.83333 10.3871 8.83333 10.3877 8.83333 10.3883C8.83333 10.3888 8.83333 10.3894 8.83333 10.39C8.83333 10.3906 8.83333 10.3912 8.83333 10.3918C8.83333 10.3924 8.83333 10.393 8.83333 10.3936C8.83333 10.3942 8.83333 10.3948 8.83333 10.3954C8.83333 10.396 8.83333 10.3967 8.83333 10.3973C8.83333 10.3979 8.83333 10.3986 8.83333 10.3992C8.83333 10.3999 8.83333 10.4005 8.83333 10.4012C8.83333 10.4018 8.83333 10.4025 8.83333 10.4032C8.83333 10.4038 8.83333 10.4045 8.83333 10.4052C8.83333 10.4059 8.83333 10.4066 8.83333 10.4073C8.83333 10.408 8.83333 10.4087 8.83333 10.4094C8.83333 10.4101 8.83333 10.4108 8.83333 10.4115C8.83333 10.4123 8.83333 10.413 8.83333 10.4137C8.83333 10.4145 8.83333 10.4152 8.83333 10.416C8.83333 10.4167 8.83333 10.4175 8.83333 10.4182C8.83333 10.419 8.83333 10.4198 8.83333 10.4206C8.83333 10.4213 8.83333 10.4221 8.83333 10.4229C8.83333 10.4237 8.83333 10.4245 8.83333 10.4253C8.83333 10.4261 8.83333 10.4269 8.83333 10.4278C8.83333 10.4286 8.83333 10.4294 8.83333 10.4302C8.83333 10.4311 8.83333 10.4319 8.83333 10.4328C8.83333 10.4336 8.83333 10.4345 8.83333 10.4353C8.83333 10.4362 8.83333 10.4371 8.83333 10.438C8.83333 10.4388 8.83333 10.4397 8.83333 10.4406C8.83333 10.4415 8.83333 10.4424 8.83333 10.4433C8.83333 10.4442 8.83333 10.4452 8.83333 10.4461C8.83333 10.447 8.83333 10.4479 8.83333 10.4489C8.83333 10.4498 8.83333 10.4508 8.83333 10.4517C8.83333 10.4527 8.83333 10.4536 8.83333 10.4546C8.83333 10.4556 8.83333 10.4565 8.83333 10.4575C8.83333 10.4585 8.83333 10.4595 8.83333 10.4605C8.83333 10.4615 8.83333 10.4625 8.83333 10.4635C8.83333 10.4646 8.83333 10.4656 8.83333 10.4666C8.83333 10.4677 8.83333 10.4687 8.83333 10.4697C8.83333 10.4708 8.83333 10.4718 8.83333 10.4729C8.83333 10.474 8.83333 10.4751 8.83333 10.4761C8.83333 10.4772 8.83333 10.4783 8.83333 10.4794C8.83333 10.4805 8.83333 10.4816 8.83333 10.4827C8.83333 10.4838 8.83333 10.485 8.83333 10.4861C8.83333 10.4872 8.83333 10.4884 8.83333 10.4895C8.83333 10.4907 8.83333 10.4918 8.83333 10.493C8.83333 10.4942 8.83333 10.4953 8.83333 10.4965C8.83333 10.4977 8.83333 10.4989 8.83333 10.5001C8.83333 10.5013 8.83333 10.5025 8.83333 10.5037C8.83333 10.5049 8.83333 10.5061 8.83333 10.5074C8.83333 10.5086 8.83333 10.5099 8.83333 10.5111C8.83333 10.5124 8.83333 10.5136 8.83333 10.5149C8.83333 10.5162 8.83333 10.5174 8.83333 10.5187C8.83333 10.52 8.83333 10.5213 8.83333 10.5226C8.83333 10.5239 8.83333 10.5252 8.83333 10.5266C8.83333 10.5279 8.83333 10.5292 8.83333 10.5306C8.83333 10.5319 8.83333 10.5333 8.83333 10.5346C8.83333 10.536 8.83333 10.5373 8.83333 10.5387C8.83333 10.5401 8.83333 10.5415 8.83333 10.5429C8.83333 10.5443 8.83333 10.5457 8.83333 10.5471C8.83333 10.5485 8.83333 10.5499 8.83333 10.5514C8.83333 10.5528 8.83333 10.5543 8.83333 10.5557C8.83333 10.5572 8.83333 10.5586 8.83333 10.5601C8.83333 10.5616 8.83333 10.5631 8.83333 10.5645C8.83333 10.566 8.83333 10.5675 8.83333 10.569C8.83333 10.5706 8.83333 10.5721 8.83333 10.5736C8.83333 10.5751 8.83333 10.5767 8.83333 10.5782C8.83333 10.5798 8.83333 10.5813 8.83333 10.5829C8.83333 10.5845 8.83333 10.5861 8.83333 10.5876C8.83333 10.5892 8.83333 10.5908 8.83333 10.5924C8.83333 10.5941 8.83333 10.5957 8.83333 10.5973C8.83333 10.5989 8.83333 10.6006 8.83333 10.6022C8.83333 10.6039 8.83333 10.6055 8.83333 10.6072C8.83333 10.6089 8.83333 10.6106 8.83333 10.6122C8.83333 10.6139 8.83333 10.6156 8.83333 10.6173C8.83333 10.6191 8.83333 10.6208 8.83333 10.6225C8.83333 10.6242 8.83333 10.626 8.83333 10.6277C8.83333 10.6295 8.83333 10.6312 8.83333 10.633C8.83333 10.6348 8.83333 10.6366 8.83333 10.6384C8.83333 10.6402 8.83333 10.642 8.83333 10.6438C8.83333 10.6456 8.83333 10.6474 8.83333 10.6493C8.83333 10.6511 8.83333 10.653 8.83333 10.6548C8.83333 10.6567 8.83333 10.6585 8.83333 10.6604C8.83333 10.6623 8.83333 10.6642 8.83333 10.6661C8.83333 10.668 8.83333 10.6699 8.83333 10.6718C8.83333 10.6737 8.83333 10.6757 8.83333 10.6776C8.83333 10.6796 8.83333 10.6815 8.83333 10.6835C8.83333 10.6855 8.83333 10.6874 8.83333 10.6894C8.83333 10.6914 8.83333 10.6934 8.83333 10.6954C8.83333 10.6974 8.83333 10.6995 8.83333 10.7015C8.83333 10.7035 8.83333 10.7056 8.83333 10.7076C8.83333 10.7097 8.83333 10.7118 8.83333 10.7138C8.83333 10.7159 8.83333 10.718 8.83333 10.7201C8.83333 10.7222 8.83333 10.7243 8.83333 10.7265C8.83333 10.7286 8.83333 10.7307 8.83333 10.7329C8.83333 10.735 8.83333 10.7372 8.83333 10.7393C8.83333 10.7415 8.83333 10.7437 8.83333 10.7459C8.83333 10.7481 8.83333 10.7503 8.83333 10.7525C8.83333 10.7547 8.83333 10.757 8.83333 10.7592C8.83333 10.7614 8.83333 10.7637 8.83333 10.766C8.83333 10.7682 8.83333 10.7705 8.83333 10.7728C8.83333 10.7751 8.83333 10.7774 8.83333 10.7797C8.83333 10.782 8.83333 10.7843 8.83333 10.7867C8.83333 10.789 8.83333 10.7913 8.83333 10.7937C8.83333 10.7961 8.83333 10.7984 8.83333 10.8008C8.83333 10.8032 8.83333 10.8056 8.83333 10.808C8.83333 10.8104 8.83333 10.8129 8.83333 10.8153C8.83333 10.8177 8.83333 10.8202 8.83333 10.8226C8.83333 10.8251 8.83333 10.8276 8.83333 10.83C8.83333 10.8325 8.83333 10.835 8.83333 10.8375C8.83333 10.84 8.83333 10.8426 8.83333 10.8451C8.83333 10.8476 8.83333 10.8502 8.83333 10.8527C8.83333 10.8553 8.83333 10.8579 8.83333 10.8604C8.83333 10.863 8.83333 10.8656 8.83333 10.8682C8.83333 10.8708 8.83333 10.8735 8.83333 10.8761C8.83333 10.8787 8.83333 10.8814 8.83333 10.884C8.83333 10.8867 8.83333 10.8894 8.83333 10.8921C8.83333 10.8947 8.83333 10.8974 8.83333 10.9002C8.83333 10.9029 8.83333 10.9056 8.83333 10.9083C8.83333 10.9111 8.83333 10.9138 8.83333 10.9166C8.83333 10.9193 8.83333 10.9221 8.83333 10.9249C8.83333 10.9277 8.83333 10.9305 8.83333 10.9333C8.83333 10.9361 8.83333 10.939 8.83333 10.9418C8.83333 10.9447 8.83333 10.9475 8.83333 10.9504C8.83333 10.9533 8.83333 10.9561 8.83333 10.959C8.83333 10.9619 8.83333 10.9648 8.83333 10.9678C8.83333 10.9707 8.83333 10.9736 8.83333 10.9766C8.83333 10.9795 8.83333 10.9825 8.83333 10.9855C8.83333 10.9885 8.83333 10.9914 8.83333 10.9944C8.83333 10.9975 8.83333 11.0005 8.83333 11.0035C8.83333 11.0065 8.83333 11.0096 8.83333 11.0126C8.83333 11.0157 8.83333 11.0188 8.83333 11.0219C8.83333 11.025 8.83333 11.0281 8.83333 11.0312C8.83333 11.0343 8.83333 11.0374 8.83333 11.0406C8.83333 11.0437 8.83333 11.0469 8.83333 11.05C8.83333 11.0532 8.83333 11.0564 8.83333 11.0596C8.83333 11.0628 8.83333 11.066 8.83333 11.0692C8.83333 11.0725 8.83333 11.0757 8.83333 11.0789C8.83333 11.0822 8.83333 11.0855 8.83333 11.0888C8.83333 11.092 8.83333 11.0953 8.83333 11.0987C8.83333 11.102 8.83333 11.1053 8.83333 11.1086C8.83333 11.112 8.83333 11.1153 8.83333 11.1187C8.83333 11.1221 8.83333 11.1255 8.83333 11.1289C8.83333 11.1323 8.83333 11.1357 8.83333 11.1391C8.83333 11.1425 8.83333 11.146 8.83333 11.1494C8.83333 11.1529 8.83333 11.1564 8.83333 11.1599C8.83333 11.1633 8.83333 11.1668 8.83333 11.1704C8.83333 11.1739 8.83333 11.1774 8.83333 11.181C8.83333 11.1845 8.83333 11.1881 8.83333 11.1916C8.83333 11.1952 8.83333 11.1988 8.83333 11.2024C8.83333 11.206 8.83333 11.2096 8.83333 11.2133C8.83333 11.2169 8.83333 11.2206 8.83333 11.2242C8.83333 11.2279 8.83333 11.2316 8.83333 11.2353C8.83333 11.239 8.83333 11.2427 8.83333 11.2464C8.83333 11.2501 8.83333 11.2539 8.83333 11.2576C8.83333 11.2614 8.83333 11.2652 8.83333 11.269C8.83333 11.2727 8.83333 11.2765 8.83333 11.2804C8.83333 11.2842 8.83333 11.288 8.83333 11.2919C8.83333 11.2957 8.83333 11.2996 8.83333 11.3035C8.83333 11.3073 8.83333 11.3112 8.83333 11.3151C8.83333 11.3191 8.83333 11.323 8.83333 11.3269C8.83333 11.3309 8.83333 11.3348 8.83333 11.3388C8.83333 11.3428 8.83333 11.3468 8.83333 11.3508C8.83333 11.3548 8.83333 11.3588 8.83333 11.3628C8.83333 11.3669 8.83333 11.3709 8.83333 11.375C8.83333 11.3791 8.83333 11.3832 8.83333 11.3873C8.83333 11.3914 8.83333 11.3955 8.83333 11.3996C8.83333 11.4037 8.83333 11.4079 8.83333 11.4121C8.83333 11.4162 8.83333 11.4204 8.83333 11.4246C8.83333 11.4288 8.83333 11.433 8.83333 11.4372C8.83333 11.4415 8.83333 11.4457 8.83333 11.45C8.83333 11.4542 8.83333 11.4585 8.83333 11.4628C8.83333 11.4671 8.83333 11.4714 8.83333 11.4757C8.83333 11.4801 8.83333 11.4844 8.83333 11.4888C8.83333 11.4931 8.83333 11.4975 8.83333 11.5019C8.83333 11.5063 8.83333 11.5107 8.83333 11.5151C8.83333 11.5196 8.83333 11.524 8.83333 11.5285C8.83333 11.5329 8.83333 11.5374 8.83333 11.5419C8.83333 11.5464 8.83333 11.5509 8.83333 11.5554C8.83333 11.5599 8.83333 11.5645 8.83333 11.569C8.83333 11.5736 8.83333 11.5782 8.83333 11.5828C8.83333 11.5874 8.83333 11.592 8.83333 11.5966C8.83333 11.6012 8.83333 11.6059 8.83333 11.6105C8.83333 11.6152 8.83333 11.6199 8.83333 11.6246C8.83333 11.6293 8.83333 11.634 8.83333 11.6387C8.83333 11.6434 8.83333 11.6482 8.83333 11.653C8.83333 11.6577 8.83333 11.6625 8.83333 11.6673C8.83333 11.6721 8.83333 11.6769 8.83333 11.6817C8.83333 11.6866 8.83333 11.6914 8.83333 11.6963C8.83333 11.7012 8.83333 11.706 8.83333 11.7109C8.83333 11.7159 8.83333 11.7208 8.83333 11.7257C8.83333 11.7306 8.83333 11.7356 8.83333 11.7406C8.83333 11.7455 8.83333 11.7505 8.83333 11.7555C8.83333 11.7606 8.83333 11.7656 8.83333 11.7706C8.83333 11.7757 8.83333 11.7807 8.83333 11.7858C8.83333 11.7909 8.83333 11.796 8.83333 11.8011C8.83333 11.8062 8.83333 11.8113 8.83333 11.8165C8.83333 11.8216 8.83333 11.8268 8.83333 11.832C8.83333 11.8372 8.83333 11.8424 8.83333 11.8476C8.83333 11.8528 8.83333 11.8581 8.83333 11.8633C8.83333 11.8686 8.83333 11.8739 8.83333 11.8791C8.83333 11.8844 8.83333 11.8898 8.83333 11.8951C8.83333 11.9004 8.83333 11.9058 8.83333 11.9111C8.83333 11.9165 8.83333 11.9219 8.83333 11.9273C8.83333 11.9327 8.83333 11.9381 8.83333 11.9435C8.83333 11.949 8.83333 11.9544 8.83333 11.9599C8.83333 11.9654 8.83333 11.9709 8.83333 11.9764C8.83333 11.9819 8.83333 11.9875 8.83333 11.993C8.83333 11.9986 8.83333 12.0041 8.83333 12.0097C8.83333 12.0153 8.83333 12.0209 8.83333 12.0265C8.83333 12.0322 8.83333 12.0378 8.83333 12.0435C8.83333 12.0491 8.83333 12.0548 8.83333 12.0605C8.83333 12.0662 8.83333 12.0719 8.83333 12.0777C8.83333 12.0834 8.83333 12.0892 8.83333 12.0949C8.83333 12.1007 8.83333 12.1065 8.83333 12.1123C8.83333 12.1181 8.83333 12.124 8.83333 12.1298C8.83333 12.1357 8.83333 12.1415 8.83333 12.1474C8.83333 12.1533 8.83333 12.1592 8.83333 12.1652C8.83333 12.1711 8.83333 12.177 8.83333 12.183C8.83333 12.189 8.83333 12.195 8.83333 12.201C8.83333 12.207 8.83333 12.213 8.83333 12.219C8.83333 12.2251 8.83333 12.2311 8.83333 12.2372C8.83333 12.2433 8.83333 12.2494 8.83333 12.2555C8.83333 12.2617 8.83333 12.2678 8.83333 12.274C8.83333 12.2801 8.83333 12.2863 8.83333 12.2925C8.83333 12.2987 8.83333 12.3049 8.83333 12.3112C8.83333 12.3174 8.83333 12.3237 8.83333 12.3299C8.83333 12.3362 8.83333 12.3425 8.83333 12.3488C8.83333 12.3551 8.83333 12.3615 8.83333 12.3678C8.83333 12.3742 8.83333 12.3806 8.83333 12.387C8.83333 12.3934 8.83333 12.3998 8.83333 12.4062C8.83333 12.4127 8.83333 12.4191 8.83333 12.4256C8.83333 12.4321 8.83333 12.4386 8.83333 12.4451C8.83333 12.4516 8.83333 12.4581 8.83333 12.4647C8.83333 12.4713 8.83333 12.4778 8.83333 12.4844C8.83333 12.491 8.83333 12.4977 8.83333 12.5043C8.83333 12.5109 8.83333 12.5176 8.83333 12.5243C8.83333 12.531 8.83333 12.5377 8.83333 12.5444C8.83333 12.5511 8.83333 12.5578 8.83333 12.5646C8.83333 12.5714 8.83333 12.5781 8.83333 12.5849C8.83333 12.5917 8.83333 12.5986 8.83333 12.6054C8.83333 12.6123 8.83333 12.6191 8.83333 12.626C8.83333 12.6329 8.83333 12.6398 8.83333 12.6467C8.83333 12.6536 8.83333 12.6606 8.83333 12.6676C8.83333 12.6745 8.83333 12.6815 8.83333 12.6885C8.83333 12.6955 8.83333 12.7026 8.83333 12.7096C8.83333 12.7167 8.83333 12.7237 8.83333 12.7308C8.83333 12.7379 8.83333 12.745 8.83333 12.7522C8.83333 12.7593 8.83333 12.7665 8.83333 12.7736C8.83333 12.7808 8.83333 12.788 8.83333 12.7952C8.83333 12.8025 8.83333 12.8097 8.83333 12.817C8.83333 12.8242 8.83333 12.8315 8.83333 12.8388C8.83333 12.8461 8.83333 12.8534 8.83333 12.8608C8.83333 12.8681 8.83333 12.8755 8.83333 12.8829C8.83333 12.8903 8.83333 12.8977 8.83333 12.9051C8.83333 12.9126 8.83333 12.92 8.83333 12.9275C8.83333 12.935 8.83333 12.9425 8.83333 12.95C8.83333 12.9575 8.83333 12.965 8.83333 12.9726C8.83333 12.9802 8.83333 12.9878 8.83333 12.9954C8.83333 13.003 8.83333 13.0106 8.83333 13.0182C8.83333 13.0259 8.83333 13.0336 8.83333 13.0413C8.83333 13.049 8.83333 13.0567 8.83333 13.0644C8.83333 13.0721 8.83333 13.0799 8.83333 13.0877C8.83333 13.0955 8.83333 13.1033 8.83333 13.1111C8.83333 13.1189 8.83333 13.1268 8.83333 13.1346C8.83333 13.1425 8.83333 13.1504 8.83333 13.1583C8.83333 13.1662 8.83333 13.1741 8.83333 13.1821C8.83333 13.1901 8.83333 13.198 8.83333 13.206C8.83333 13.214 8.83333 13.2221 8.83333 13.2301C8.83333 13.2382 8.83333 13.2462 8.83333 13.2543C8.83333 13.2624 8.83333 13.2705 8.83333 13.2787C8.83333 13.2868 8.83333 13.295 8.83333 13.3031C8.83333 13.3113 8.83333 13.3195 8.83333 13.3278C8.83333 13.336 8.83333 13.3442 8.83333 13.3525C8.83333 13.3608 8.83333 13.3691 8.83333 13.3774C8.83333 13.3857 8.83333 13.394 8.83333 13.4024C8.83333 13.4108 8.83333 13.4192 8.83333 13.4276C8.83333 13.436 8.83333 13.4444 8.83333 13.4529C8.83333 13.4613 8.83333 13.4698 8.83333 13.4783C8.83333 13.4868 8.83333 13.4953 8.83333 13.5039C8.83333 13.5124 8.83333 13.521 8.83333 13.5296C8.83333 13.5382 8.83333 13.5468 8.83333 13.5554C8.83333 13.564 8.83333 13.5727 8.83333 13.5814C8.83333 13.5901 8.83333 13.5988 8.83333 13.6075C8.83333 13.6162 8.83333 13.625 8.83333 13.6338C8.83333 13.6426 8.83333 13.6514 8.83333 13.6602C8.83333 13.669 8.83333 13.6779 8.83333 13.6867C8.83333 13.6956 8.83333 13.7045 8.83333 13.7134C8.83333 13.7223 8.83333 13.7313 8.83333 13.7402C8.83333 13.7492 8.83333 13.7582 8.83333 13.7672C8.83333 13.7762 8.83333 13.7853 8.83333 13.7943C8.83333 13.8034 8.83333 13.8125 8.83333 13.8216C8.83333 13.8307 8.83333 13.8398 8.83333 13.849C8.83333 13.8581 8.83333 13.8673 8.83333 13.8765C8.83333 13.8857 8.83333 13.8949 8.83333 13.9042C8.83333 13.9134 8.83333 13.9227 8.83333 13.932C8.83333 13.9413 8.83333 13.9506 8.83333 13.96C8.83333 13.9693 8.83333 13.9787 8.83333 13.9881C8.83333 13.9975 8.83333 14.0069 8.83333 14.0163C8.83333 14.0258 8.83333 14.0353 8.83333 14.0447C8.83333 14.0542 8.83333 14.0638 8.83333 14.0733C8.83333 14.0828 8.83333 14.0924 8.83333 14.102C8.83333 14.1116 8.83333 14.1212 8.83333 14.1308C8.83333 14.1405 8.83333 14.1501 8.83333 14.1598C8.83333 14.1695 8.83333 14.1792 8.83333 14.189C8.83333 14.1987 8.83333 14.2085 8.83333 14.2182C8.83333 14.228 8.83333 14.2378 8.83333 14.2477C8.83333 14.2575 8.83333 14.2674 8.83333 14.2772C8.83333 14.2871 8.83333 14.297 8.83333 14.307C8.83333 14.3169 8.83333 14.3269 8.83333 14.3369C8.83333 14.3468 8.83333 14.3568 8.83333 14.3669C8.83333 14.3769 8.83333 14.387 8.83333 14.3971C8.83333 14.4071 8.83333 14.4172 8.83333 14.4274C8.83333 14.4375 8.83333 14.4477 8.83333 14.4579C8.83333 14.468 8.83333 14.4783 8.83333 14.4885C8.83333 14.4987 8.83333 14.509 8.83333 14.5193C8.83333 14.5295 8.83333 14.5399 8.83333 14.5502C8.83333 14.5605 8.83333 14.5709 8.83333 14.5813C8.83333 14.5917 8.83333 14.6021 8.83333 14.6125C8.83333 14.6229 8.83333 14.6334 8.83333 14.6439C8.83333 14.6544 8.83333 14.6649 8.83333 14.6754C8.83333 14.686 8.83333 14.6965 8.83333 14.7071C8.83333 14.7177 8.83333 14.7283 8.83333 14.739C8.83333 14.7496 8.83333 14.7603 8.83333 14.771C8.83333 14.7817 8.83333 14.7924 8.83333 14.8031C8.83333 14.8139 8.83333 14.8247 8.83333 14.8355C8.83333 14.8462 8.83333 14.8571 8.83333 14.8679C8.83333 14.8788 8.83333 14.8896 8.83333 14.9005C8.83333 14.9114 8.83333 14.9224 8.83333 14.9333C8.83333 14.9443 8.83333 14.9553 8.83333 14.9663C8.83333 14.9773 8.83333 14.9883 8.83333 14.9993C8.83333 15.0104 8.83333 15.0215 8.83333 15.0326C8.83333 15.0437 8.83333 15.0548 8.83333 15.066C8.83333 15.0772 8.83333 15.0884 8.83333 15.0996C8.83333 15.1108 8.83333 15.122 8.83333 15.1333C8.83333 15.1446 8.83333 15.1559 8.83333 15.1672C8.83333 15.1785 8.83333 15.1898 8.83333 15.2012C8.83333 15.2126 8.83333 15.224 8.83333 15.2354C8.83333 15.2468 8.83333 15.2583 8.83333 15.2698C8.83333 15.2813 8.83333 15.2928 8.83333 15.3043C8.83333 15.3158 8.83333 15.3274 8.83333 15.339C8.83333 15.3506 8.83333 15.3622 8.83333 15.3738C8.83333 15.3855 8.83333 15.3971 8.83333 15.4088C8.83333 15.4205 8.83333 15.4322 8.83333 15.444C8.83333 15.4557 8.83333 15.4675 8.83333 15.4793C8.83333 15.4911 8.83333 15.5029 8.83333 15.5148C8.83333 15.5267 8.83333 15.5385 8.83333 15.5505C8.83333 15.5624 8.83333 15.5743 8.83333 15.5863C8.83333 15.5982 8.83333 15.6102 8.83333 15.6223C8.83333 15.6343 8.83333 15.6463 8.83333 15.6584C8.83333 15.6705 8.83333 15.6826 8.83333 15.6947C8.83333 15.7068 8.83333 15.719 8.83333 15.7312C8.83333 15.7434 8.83333 15.7556 8.83333 15.7678C8.83333 15.7801 8.83333 15.7923 8.83333 15.8046C8.83333 15.8169 8.83333 15.8292 8.83333 15.8416C8.83333 15.8539 8.83333 15.8663 8.83333 15.8787C8.83333 15.8911 8.83333 15.9036 8.83333 15.916C8.83333 15.9285 8.83333 15.941 8.83333 15.9535C8.83333 15.966 8.83333 15.9785 8.83333 15.9911C8.83333 16.0037 8.83333 16.0163 8.83333 16.0289C8.83333 16.0415 8.83333 16.0542 8.83333 16.0669C8.83333 16.0796 8.83333 16.0923 8.83333 16.105C8.83333 16.1178 8.83333 16.1305 8.83333 16.1433C8.83333 16.1561 8.83333 16.169 8.83333 16.1818C8.83333 16.1947 8.83333 16.2076 8.83333 16.2205C8.83333 16.2334 8.83333 16.2463 8.83333 16.2593C8.83333 16.2722 8.83333 16.2852 8.83333 16.2983C8.83333 16.3113 8.83333 16.3243 8.83333 16.3374C8.83333 16.3505 8.83333 16.3636 8.83333 16.3767C8.83333 16.3899 8.83333 16.4031 8.83333 16.4162C8.83333 16.4294 8.83333 16.4427 8.83333 16.4559C8.83333 16.4692 8.83333 16.4825 8.83333 16.4958C8.83333 16.5091 8.83333 16.5224 8.83333 16.5358C8.83333 16.5491 8.83333 16.5625 8.83333 16.576C8.83333 16.5894 8.83333 16.6028 8.83333 16.6163C8.83333 16.6298 8.83333 16.6433 8.83333 16.6569C8.83333 16.6704 8.83333 16.684 8.83333 16.6976C8.83333 16.7112 8.83333 16.7248 8.83333 16.7385C8.83333 16.7521 8.83333 16.7658 8.83333 16.7795C8.83333 16.7932 8.83333 16.807 8.83333 16.8207C8.83333 16.8345 8.83333 16.8483 8.83333 16.8622C8.83333 16.876 8.83333 16.8898 8.83333 16.9037C8.83333 16.9176 8.83333 16.9316 8.83333 16.9455C8.83333 16.9595 8.83333 16.9734 8.83333 16.9874C8.83333 17.0014 8.83333 17.0155 8.83333 17.0296C8.83333 17.0436 8.83333 17.0577 8.83333 17.0718C8.83333 17.086 8.83333 17.1001 8.83333 17.1143C8.83333 17.1285 8.83333 17.1427 8.83333 17.157C8.83333 17.1712 8.83333 17.1855 8.83333 17.1998C8.83333 17.2141 8.83333 17.2284 8.83333 17.2428C8.83333 17.2572 8.83333 17.2716 8.83333 17.286C8.83333 17.3004 8.83333 17.3149 8.83333 17.3293C8.83333 17.3438 8.83333 17.3583 8.83333 17.3729C8.83333 17.3874 8.83333 17.402 8.83333 17.4166C8.83333 17.4312 8.83333 17.4458 8.83333 17.4605C8.83333 17.4752 8.83333 17.4899 8.83333 17.5046C8.83333 17.5193 8.83333 17.5341 8.83333 17.5489C8.83333 17.5637 8.83333 17.5785 8.83333 17.5933C8.83333 17.6082 8.83333 17.623 8.83333 17.6379C8.83333 17.6529 8.83333 17.6678 8.83333 17.6828C8.83333 17.6977 8.83333 17.7127 8.83333 17.7278C8.83333 17.7428 8.83333 17.7578 8.83333 17.7729C8.83333 17.788 8.83333 17.8031 8.83333 17.8183C8.83333 17.8334 8.83333 17.8486 8.83333 17.8638C8.83333 17.8791 8.83333 17.8943 8.83333 17.9096C8.83333 17.9249 8.83333 17.9402 8.83333 17.9555C8.83333 17.9708 8.83333 17.9862 8.83333 18.0016C8.83333 18.017 8.83333 18.0324 8.83333 18.0479C8.83333 18.0633 8.83333 18.0788 8.83333 18.0944C8.83333 18.1099 8.83333 18.1254 8.83333 18.141C8.83333 18.1566 8.83333 18.1722 8.83333 18.1879C8.83333 18.2035 8.83333 18.2192 8.83333 18.2349C8.83333 18.2506 8.83333 18.2663 8.83333 18.2821C8.83333 18.2979 8.83333 18.3137 8.83333 18.3295C8.83333 18.3454 8.83333 18.3612 8.83333 18.3771C8.83333 18.393 8.83333 18.4089 8.83333 18.4249C8.83333 18.4409 8.83333 18.4569 8.83333 18.4729C8.83333 18.4889 8.83333 18.505 8.83333 18.521C8.83333 18.5371 8.83333 18.5532 8.83333 18.5694C8.83333 18.5855 8.83333 18.6017 8.83333 18.6179C8.83333 18.6341 8.83333 18.6504 8.83333 18.6667H11.8333C11.8333 18.6504 11.8333 18.6341 11.8333 18.6179C11.8333 18.6017 11.8333 18.5855 11.8333 18.5694C11.8333 18.5532 11.8333 18.5371 11.8333 18.521C11.8333 18.505 11.8333 18.4889 11.8333 18.4729C11.8333 18.4569 11.8333 18.4409 11.8333 18.4249C11.8333 18.4089 11.8333 18.393 11.8333 18.3771C11.8333 18.3612 11.8333 18.3454 11.8333 18.3295C11.8333 18.3137 11.8333 18.2979 11.8333 18.2821C11.8333 18.2663 11.8333 18.2506 11.8333 18.2349C11.8333 18.2192 11.8333 18.2035 11.8333 18.1879C11.8333 18.1722 11.8333 18.1566 11.8333 18.141C11.8333 18.1254 11.8333 18.1099 11.8333 18.0944C11.8333 18.0788 11.8333 18.0633 11.8333 18.0479C11.8333 18.0324 11.8333 18.017 11.8333 18.0016C11.8333 17.9862 11.8333 17.9708 11.8333 17.9555C11.8333 17.9402 11.8333 17.9249 11.8333 17.9096C11.8333 17.8943 11.8333 17.8791 11.8333 17.8638C11.8333 17.8486 11.8333 17.8334 11.8333 17.8183C11.8333 17.8031 11.8333 17.788 11.8333 17.7729C11.8333 17.7578 11.8333 17.7428 11.8333 17.7278C11.8333 17.7127 11.8333 17.6977 11.8333 17.6828C11.8333 17.6678 11.8333 17.6529 11.8333 17.6379C11.8333 17.623 11.8333 17.6082 11.8333 17.5933C11.8333 17.5785 11.8333 17.5637 11.8333 17.5489C11.8333 17.5341 11.8333 17.5193 11.8333 17.5046C11.8333 17.4899 11.8333 17.4752 11.8333 17.4605C11.8333 17.4458 11.8333 17.4312 11.8333 17.4166C11.8333 17.402 11.8333 17.3874 11.8333 17.3729C11.8333 17.3583 11.8333 17.3438 11.8333 17.3293C11.8333 17.3149 11.8333 17.3004 11.8333 17.286C11.8333 17.2716 11.8333 17.2572 11.8333 17.2428C11.8333 17.2284 11.8333 17.2141 11.8333 17.1998C11.8333 17.1855 11.8333 17.1712 11.8333 17.157C11.8333 17.1427 11.8333 17.1285 11.8333 17.1143C11.8333 17.1001 11.8333 17.086 11.8333 17.0718C11.8333 17.0577 11.8333 17.0436 11.8333 17.0296C11.8333 17.0155 11.8333 17.0014 11.8333 16.9874C11.8333 16.9734 11.8333 16.9595 11.8333 16.9455C11.8333 16.9316 11.8333 16.9176 11.8333 16.9037C11.8333 16.8898 11.8333 16.876 11.8333 16.8622C11.8333 16.8483 11.8333 16.8345 11.8333 16.8207C11.8333 16.807 11.8333 16.7932 11.8333 16.7795C11.8333 16.7658 11.8333 16.7521 11.8333 16.7385C11.8333 16.7248 11.8333 16.7112 11.8333 16.6976C11.8333 16.684 11.8333 16.6704 11.8333 16.6569C11.8333 16.6433 11.8333 16.6298 11.8333 16.6163C11.8333 16.6028 11.8333 16.5894 11.8333 16.576C11.8333 16.5625 11.8333 16.5491 11.8333 16.5358C11.8333 16.5224 11.8333 16.5091 11.8333 16.4958C11.8333 16.4825 11.8333 16.4692 11.8333 16.4559C11.8333 16.4427 11.8333 16.4294 11.8333 16.4162C11.8333 16.4031 11.8333 16.3899 11.8333 16.3767C11.8333 16.3636 11.8333 16.3505 11.8333 16.3374C11.8333 16.3243 11.8333 16.3113 11.8333 16.2983C11.8333 16.2852 11.8333 16.2722 11.8333 16.2593C11.8333 16.2463 11.8333 16.2334 11.8333 16.2205C11.8333 16.2076 11.8333 16.1947 11.8333 16.1818C11.8333 16.169 11.8333 16.1561 11.8333 16.1433C11.8333 16.1305 11.8333 16.1178 11.8333 16.105C11.8333 16.0923 11.8333 16.0796 11.8333 16.0669C11.8333 16.0542 11.8333 16.0415 11.8333 16.0289C11.8333 16.0163 11.8333 16.0037 11.8333 15.9911C11.8333 15.9785 11.8333 15.966 11.8333 15.9535C11.8333 15.941 11.8333 15.9285 11.8333 15.916C11.8333 15.9036 11.8333 15.8911 11.8333 15.8787C11.8333 15.8663 11.8333 15.8539 11.8333 15.8416C11.8333 15.8292 11.8333 15.8169 11.8333 15.8046C11.8333 15.7923 11.8333 15.7801 11.8333 15.7678C11.8333 15.7556 11.8333 15.7434 11.8333 15.7312C11.8333 15.719 11.8333 15.7068 11.8333 15.6947C11.8333 15.6826 11.8333 15.6705 11.8333 15.6584C11.8333 15.6463 11.8333 15.6343 11.8333 15.6223C11.8333 15.6102 11.8333 15.5982 11.8333 15.5863C11.8333 15.5743 11.8333 15.5624 11.8333 15.5505C11.8333 15.5385 11.8333 15.5267 11.8333 15.5148C11.8333 15.5029 11.8333 15.4911 11.8333 15.4793C11.8333 15.4675 11.8333 15.4557 11.8333 15.444C11.8333 15.4322 11.8333 15.4205 11.8333 15.4088C11.8333 15.3971 11.8333 15.3855 11.8333 15.3738C11.8333 15.3622 11.8333 15.3506 11.8333 15.339C11.8333 15.3274 11.8333 15.3158 11.8333 15.3043C11.8333 15.2928 11.8333 15.2813 11.8333 15.2698C11.8333 15.2583 11.8333 15.2468 11.8333 15.2354C11.8333 15.224 11.8333 15.2126 11.8333 15.2012C11.8333 15.1898 11.8333 15.1785 11.8333 15.1672C11.8333 15.1559 11.8333 15.1446 11.8333 15.1333C11.8333 15.122 11.8333 15.1108 11.8333 15.0996C11.8333 15.0884 11.8333 15.0772 11.8333 15.066C11.8333 15.0548 11.8333 15.0437 11.8333 15.0326C11.8333 15.0215 11.8333 15.0104 11.8333 14.9993C11.8333 14.9883 11.8333 14.9773 11.8333 14.9663C11.8333 14.9553 11.8333 14.9443 11.8333 14.9333C11.8333 14.9224 11.8333 14.9114 11.8333 14.9005C11.8333 14.8896 11.8333 14.8788 11.8333 14.8679C11.8333 14.8571 11.8333 14.8462 11.8333 14.8355C11.8333 14.8247 11.8333 14.8139 11.8333 14.8031C11.8333 14.7924 11.8333 14.7817 11.8333 14.771C11.8333 14.7603 11.8333 14.7496 11.8333 14.739C11.8333 14.7283 11.8333 14.7177 11.8333 14.7071C11.8333 14.6965 11.8333 14.686 11.8333 14.6754C11.8333 14.6649 11.8333 14.6544 11.8333 14.6439C11.8333 14.6334 11.8333 14.6229 11.8333 14.6125C11.8333 14.6021 11.8333 14.5917 11.8333 14.5813C11.8333 14.5709 11.8333 14.5605 11.8333 14.5502C11.8333 14.5399 11.8333 14.5295 11.8333 14.5193C11.8333 14.509 11.8333 14.4987 11.8333 14.4885C11.8333 14.4783 11.8333 14.468 11.8333 14.4579C11.8333 14.4477 11.8333 14.4375 11.8333 14.4274C11.8333 14.4172 11.8333 14.4071 11.8333 14.3971C11.8333 14.387 11.8333 14.3769 11.8333 14.3669C11.8333 14.3568 11.8333 14.3468 11.8333 14.3369C11.8333 14.3269 11.8333 14.3169 11.8333 14.307C11.8333 14.297 11.8333 14.2871 11.8333 14.2772C11.8333 14.2674 11.8333 14.2575 11.8333 14.2477C11.8333 14.2378 11.8333 14.228 11.8333 14.2182C11.8333 14.2085 11.8333 14.1987 11.8333 14.189C11.8333 14.1792 11.8333 14.1695 11.8333 14.1598C11.8333 14.1501 11.8333 14.1405 11.8333 14.1308C11.8333 14.1212 11.8333 14.1116 11.8333 14.102C11.8333 14.0924 11.8333 14.0828 11.8333 14.0733C11.8333 14.0638 11.8333 14.0542 11.8333 14.0447C11.8333 14.0353 11.8333 14.0258 11.8333 14.0163C11.8333 14.0069 11.8333 13.9975 11.8333 13.9881C11.8333 13.9787 11.8333 13.9693 11.8333 13.96C11.8333 13.9506 11.8333 13.9413 11.8333 13.932C11.8333 13.9227 11.8333 13.9134 11.8333 13.9042C11.8333 13.8949 11.8333 13.8857 11.8333 13.8765C11.8333 13.8673 11.8333 13.8581 11.8333 13.849C11.8333 13.8398 11.8333 13.8307 11.8333 13.8216C11.8333 13.8125 11.8333 13.8034 11.8333 13.7943C11.8333 13.7853 11.8333 13.7762 11.8333 13.7672C11.8333 13.7582 11.8333 13.7492 11.8333 13.7402C11.8333 13.7313 11.8333 13.7223 11.8333 13.7134C11.8333 13.7045 11.8333 13.6956 11.8333 13.6867C11.8333 13.6779 11.8333 13.669 11.8333 13.6602C11.8333 13.6514 11.8333 13.6426 11.8333 13.6338C11.8333 13.625 11.8333 13.6162 11.8333 13.6075C11.8333 13.5988 11.8333 13.5901 11.8333 13.5814C11.8333 13.5727 11.8333 13.564 11.8333 13.5554C11.8333 13.5468 11.8333 13.5382 11.8333 13.5296C11.8333 13.521 11.8333 13.5124 11.8333 13.5039C11.8333 13.4953 11.8333 13.4868 11.8333 13.4783C11.8333 13.4698 11.8333 13.4613 11.8333 13.4529C11.8333 13.4444 11.8333 13.436 11.8333 13.4276C11.8333 13.4192 11.8333 13.4108 11.8333 13.4024C11.8333 13.394 11.8333 13.3857 11.8333 13.3774C11.8333 13.3691 11.8333 13.3608 11.8333 13.3525C11.8333 13.3442 11.8333 13.336 11.8333 13.3278C11.8333 13.3195 11.8333 13.3113 11.8333 13.3031C11.8333 13.295 11.8333 13.2868 11.8333 13.2787C11.8333 13.2705 11.8333 13.2624 11.8333 13.2543C11.8333 13.2462 11.8333 13.2382 11.8333 13.2301C11.8333 13.2221 11.8333 13.214 11.8333 13.206C11.8333 13.198 11.8333 13.1901 11.8333 13.1821C11.8333 13.1741 11.8333 13.1662 11.8333 13.1583C11.8333 13.1504 11.8333 13.1425 11.8333 13.1346C11.8333 13.1268 11.8333 13.1189 11.8333 13.1111C11.8333 13.1033 11.8333 13.0955 11.8333 13.0877C11.8333 13.0799 11.8333 13.0721 11.8333 13.0644C11.8333 13.0567 11.8333 13.049 11.8333 13.0413C11.8333 13.0336 11.8333 13.0259 11.8333 13.0182C11.8333 13.0106 11.8333 13.003 11.8333 12.9954C11.8333 12.9878 11.8333 12.9802 11.8333 12.9726C11.8333 12.965 11.8333 12.9575 11.8333 12.95C11.8333 12.9425 11.8333 12.935 11.8333 12.9275C11.8333 12.92 11.8333 12.9126 11.8333 12.9051C11.8333 12.8977 11.8333 12.8903 11.8333 12.8829C11.8333 12.8755 11.8333 12.8681 11.8333 12.8608C11.8333 12.8534 11.8333 12.8461 11.8333 12.8388C11.8333 12.8315 11.8333 12.8242 11.8333 12.817C11.8333 12.8097 11.8333 12.8025 11.8333 12.7952C11.8333 12.788 11.8333 12.7808 11.8333 12.7736C11.8333 12.7665 11.8333 12.7593 11.8333 12.7522C11.8333 12.745 11.8333 12.7379 11.8333 12.7308C11.8333 12.7237 11.8333 12.7167 11.8333 12.7096C11.8333 12.7026 11.8333 12.6955 11.8333 12.6885C11.8333 12.6815 11.8333 12.6745 11.8333 12.6676C11.8333 12.6606 11.8333 12.6536 11.8333 12.6467C11.8333 12.6398 11.8333 12.6329 11.8333 12.626C11.8333 12.6191 11.8333 12.6123 11.8333 12.6054C11.8333 12.5986 11.8333 12.5917 11.8333 12.5849C11.8333 12.5781 11.8333 12.5714 11.8333 12.5646C11.8333 12.5578 11.8333 12.5511 11.8333 12.5444C11.8333 12.5377 11.8333 12.531 11.8333 12.5243C11.8333 12.5176 11.8333 12.5109 11.8333 12.5043C11.8333 12.4977 11.8333 12.491 11.8333 12.4844C11.8333 12.4778 11.8333 12.4713 11.8333 12.4647C11.8333 12.4581 11.8333 12.4516 11.8333 12.4451C11.8333 12.4386 11.8333 12.4321 11.8333 12.4256C11.8333 12.4191 11.8333 12.4127 11.8333 12.4062C11.8333 12.3998 11.8333 12.3934 11.8333 12.387C11.8333 12.3806 11.8333 12.3742 11.8333 12.3678C11.8333 12.3615 11.8333 12.3551 11.8333 12.3488C11.8333 12.3425 11.8333 12.3362 11.8333 12.3299C11.8333 12.3237 11.8333 12.3174 11.8333 12.3112C11.8333 12.3049 11.8333 12.2987 11.8333 12.2925C11.8333 12.2863 11.8333 12.2801 11.8333 12.274C11.8333 12.2678 11.8333 12.2617 11.8333 12.2555C11.8333 12.2494 11.8333 12.2433 11.8333 12.2372C11.8333 12.2311 11.8333 12.2251 11.8333 12.219C11.8333 12.213 11.8333 12.207 11.8333 12.201C11.8333 12.195 11.8333 12.189 11.8333 12.183C11.8333 12.177 11.8333 12.1711 11.8333 12.1652C11.8333 12.1592 11.8333 12.1533 11.8333 12.1474C11.8333 12.1415 11.8333 12.1357 11.8333 12.1298C11.8333 12.124 11.8333 12.1181 11.8333 12.1123C11.8333 12.1065 11.8333 12.1007 11.8333 12.0949C11.8333 12.0892 11.8333 12.0834 11.8333 12.0777C11.8333 12.0719 11.8333 12.0662 11.8333 12.0605C11.8333 12.0548 11.8333 12.0491 11.8333 12.0435C11.8333 12.0378 11.8333 12.0322 11.8333 12.0265C11.8333 12.0209 11.8333 12.0153 11.8333 12.0097C11.8333 12.0041 11.8333 11.9986 11.8333 11.993C11.8333 11.9875 11.8333 11.9819 11.8333 11.9764C11.8333 11.9709 11.8333 11.9654 11.8333 11.9599C11.8333 11.9544 11.8333 11.949 11.8333 11.9435C11.8333 11.9381 11.8333 11.9327 11.8333 11.9273C11.8333 11.9219 11.8333 11.9165 11.8333 11.9111C11.8333 11.9058 11.8333 11.9004 11.8333 11.8951C11.8333 11.8898 11.8333 11.8844 11.8333 11.8791C11.8333 11.8739 11.8333 11.8686 11.8333 11.8633C11.8333 11.8581 11.8333 11.8528 11.8333 11.8476C11.8333 11.8424 11.8333 11.8372 11.8333 11.832C11.8333 11.8268 11.8333 11.8216 11.8333 11.8165C11.8333 11.8113 11.8333 11.8062 11.8333 11.8011C11.8333 11.796 11.8333 11.7909 11.8333 11.7858C11.8333 11.7807 11.8333 11.7757 11.8333 11.7706C11.8333 11.7656 11.8333 11.7606 11.8333 11.7555C11.8333 11.7505 11.8333 11.7455 11.8333 11.7406C11.8333 11.7356 11.8333 11.7306 11.8333 11.7257C11.8333 11.7208 11.8333 11.7159 11.8333 11.7109C11.8333 11.706 11.8333 11.7012 11.8333 11.6963C11.8333 11.6914 11.8333 11.6866 11.8333 11.6817C11.8333 11.6769 11.8333 11.6721 11.8333 11.6673C11.8333 11.6625 11.8333 11.6577 11.8333 11.653C11.8333 11.6482 11.8333 11.6434 11.8333 11.6387C11.8333 11.634 11.8333 11.6293 11.8333 11.6246C11.8333 11.6199 11.8333 11.6152 11.8333 11.6105C11.8333 11.6059 11.8333 11.6012 11.8333 11.5966C11.8333 11.592 11.8333 11.5874 11.8333 11.5828C11.8333 11.5782 11.8333 11.5736 11.8333 11.569C11.8333 11.5645 11.8333 11.5599 11.8333 11.5554C11.8333 11.5509 11.8333 11.5464 11.8333 11.5419C11.8333 11.5374 11.8333 11.5329 11.8333 11.5285C11.8333 11.524 11.8333 11.5196 11.8333 11.5151C11.8333 11.5107 11.8333 11.5063 11.8333 11.5019C11.8333 11.4975 11.8333 11.4931 11.8333 11.4888C11.8333 11.4844 11.8333 11.4801 11.8333 11.4757C11.8333 11.4714 11.8333 11.4671 11.8333 11.4628C11.8333 11.4585 11.8333 11.4542 11.8333 11.45C11.8333 11.4457 11.8333 11.4415 11.8333 11.4372C11.8333 11.433 11.8333 11.4288 11.8333 11.4246C11.8333 11.4204 11.8333 11.4162 11.8333 11.4121C11.8333 11.4079 11.8333 11.4037 11.8333 11.3996C11.8333 11.3955 11.8333 11.3914 11.8333 11.3873C11.8333 11.3832 11.8333 11.3791 11.8333 11.375C11.8333 11.3709 11.8333 11.3669 11.8333 11.3628C11.8333 11.3588 11.8333 11.3548 11.8333 11.3508C11.8333 11.3468 11.8333 11.3428 11.8333 11.3388C11.8333 11.3348 11.8333 11.3309 11.8333 11.3269C11.8333 11.323 11.8333 11.3191 11.8333 11.3151C11.8333 11.3112 11.8333 11.3073 11.8333 11.3035C11.8333 11.2996 11.8333 11.2957 11.8333 11.2919C11.8333 11.288 11.8333 11.2842 11.8333 11.2804C11.8333 11.2765 11.8333 11.2727 11.8333 11.269C11.8333 11.2652 11.8333 11.2614 11.8333 11.2576C11.8333 11.2539 11.8333 11.2501 11.8333 11.2464C11.8333 11.2427 11.8333 11.239 11.8333 11.2353C11.8333 11.2316 11.8333 11.2279 11.8333 11.2242C11.8333 11.2206 11.8333 11.2169 11.8333 11.2133C11.8333 11.2096 11.8333 11.206 11.8333 11.2024C11.8333 11.1988 11.8333 11.1952 11.8333 11.1916C11.8333 11.1881 11.8333 11.1845 11.8333 11.181C11.8333 11.1774 11.8333 11.1739 11.8333 11.1704C11.8333 11.1668 11.8333 11.1633 11.8333 11.1599C11.8333 11.1564 11.8333 11.1529 11.8333 11.1494C11.8333 11.146 11.8333 11.1425 11.8333 11.1391C11.8333 11.1357 11.8333 11.1323 11.8333 11.1289C11.8333 11.1255 11.8333 11.1221 11.8333 11.1187C11.8333 11.1153 11.8333 11.112 11.8333 11.1086C11.8333 11.1053 11.8333 11.102 11.8333 11.0987C11.8333 11.0953 11.8333 11.092 11.8333 11.0888C11.8333 11.0855 11.8333 11.0822 11.8333 11.0789C11.8333 11.0757 11.8333 11.0725 11.8333 11.0692C11.8333 11.066 11.8333 11.0628 11.8333 11.0596C11.8333 11.0564 11.8333 11.0532 11.8333 11.05C11.8333 11.0469 11.8333 11.0437 11.8333 11.0406C11.8333 11.0374 11.8333 11.0343 11.8333 11.0312C11.8333 11.0281 11.8333 11.025 11.8333 11.0219C11.8333 11.0188 11.8333 11.0157 11.8333 11.0126C11.8333 11.0096 11.8333 11.0065 11.8333 11.0035C11.8333 11.0005 11.8333 10.9975 11.8333 10.9944C11.8333 10.9914 11.8333 10.9885 11.8333 10.9855C11.8333 10.9825 11.8333 10.9795 11.8333 10.9766C11.8333 10.9736 11.8333 10.9707 11.8333 10.9678C11.8333 10.9648 11.8333 10.9619 11.8333 10.959C11.8333 10.9561 11.8333 10.9533 11.8333 10.9504C11.8333 10.9475 11.8333 10.9447 11.8333 10.9418C11.8333 10.939 11.8333 10.9361 11.8333 10.9333C11.8333 10.9305 11.8333 10.9277 11.8333 10.9249C11.8333 10.9221 11.8333 10.9193 11.8333 10.9166C11.8333 10.9138 11.8333 10.9111 11.8333 10.9083C11.8333 10.9056 11.8333 10.9029 11.8333 10.9002C11.8333 10.8974 11.8333 10.8947 11.8333 10.8921C11.8333 10.8894 11.8333 10.8867 11.8333 10.884C11.8333 10.8814 11.8333 10.8787 11.8333 10.8761C11.8333 10.8735 11.8333 10.8708 11.8333 10.8682C11.8333 10.8656 11.8333 10.863 11.8333 10.8604C11.8333 10.8579 11.8333 10.8553 11.8333 10.8527C11.8333 10.8502 11.8333 10.8476 11.8333 10.8451C11.8333 10.8426 11.8333 10.84 11.8333 10.8375C11.8333 10.835 11.8333 10.8325 11.8333 10.83C11.8333 10.8276 11.8333 10.8251 11.8333 10.8226C11.8333 10.8202 11.8333 10.8177 11.8333 10.8153C11.8333 10.8129 11.8333 10.8104 11.8333 10.808C11.8333 10.8056 11.8333 10.8032 11.8333 10.8008C11.8333 10.7984 11.8333 10.7961 11.8333 10.7937C11.8333 10.7913 11.8333 10.789 11.8333 10.7867C11.8333 10.7843 11.8333 10.782 11.8333 10.7797C11.8333 10.7774 11.8333 10.7751 11.8333 10.7728C11.8333 10.7705 11.8333 10.7682 11.8333 10.766C11.8333 10.7637 11.8333 10.7614 11.8333 10.7592C11.8333 10.757 11.8333 10.7547 11.8333 10.7525C11.8333 10.7503 11.8333 10.7481 11.8333 10.7459C11.8333 10.7437 11.8333 10.7415 11.8333 10.7393C11.8333 10.7372 11.8333 10.735 11.8333 10.7329C11.8333 10.7307 11.8333 10.7286 11.8333 10.7265C11.8333 10.7243 11.8333 10.7222 11.8333 10.7201C11.8333 10.718 11.8333 10.7159 11.8333 10.7138C11.8333 10.7118 11.8333 10.7097 11.8333 10.7076C11.8333 10.7056 11.8333 10.7035 11.8333 10.7015C11.8333 10.6995 11.8333 10.6974 11.8333 10.6954C11.8333 10.6934 11.8333 10.6914 11.8333 10.6894C11.8333 10.6874 11.8333 10.6855 11.8333 10.6835C11.8333 10.6815 11.8333 10.6796 11.8333 10.6776C11.8333 10.6757 11.8333 10.6737 11.8333 10.6718C11.8333 10.6699 11.8333 10.668 11.8333 10.6661C11.8333 10.6642 11.8333 10.6623 11.8333 10.6604C11.8333 10.6585 11.8333 10.6567 11.8333 10.6548C11.8333 10.653 11.8333 10.6511 11.8333 10.6493C11.8333 10.6474 11.8333 10.6456 11.8333 10.6438C11.8333 10.642 11.8333 10.6402 11.8333 10.6384C11.8333 10.6366 11.8333 10.6348 11.8333 10.633C11.8333 10.6312 11.8333 10.6295 11.8333 10.6277C11.8333 10.626 11.8333 10.6242 11.8333 10.6225C11.8333 10.6208 11.8333 10.6191 11.8333 10.6173C11.8333 10.6156 11.8333 10.6139 11.8333 10.6122C11.8333 10.6106 11.8333 10.6089 11.8333 10.6072C11.8333 10.6055 11.8333 10.6039 11.8333 10.6022C11.8333 10.6006 11.8333 10.5989 11.8333 10.5973C11.8333 10.5957 11.8333 10.5941 11.8333 10.5924C11.8333 10.5908 11.8333 10.5892 11.8333 10.5876C11.8333 10.5861 11.8333 10.5845 11.8333 10.5829C11.8333 10.5813 11.8333 10.5798 11.8333 10.5782C11.8333 10.5767 11.8333 10.5751 11.8333 10.5736C11.8333 10.5721 11.8333 10.5706 11.8333 10.569C11.8333 10.5675 11.8333 10.566 11.8333 10.5645C11.8333 10.5631 11.8333 10.5616 11.8333 10.5601C11.8333 10.5586 11.8333 10.5572 11.8333 10.5557C11.8333 10.5543 11.8333 10.5528 11.8333 10.5514C11.8333 10.5499 11.8333 10.5485 11.8333 10.5471C11.8333 10.5457 11.8333 10.5443 11.8333 10.5429C11.8333 10.5415 11.8333 10.5401 11.8333 10.5387C11.8333 10.5373 11.8333 10.536 11.8333 10.5346C11.8333 10.5333 11.8333 10.5319 11.8333 10.5306C11.8333 10.5292 11.8333 10.5279 11.8333 10.5266C11.8333 10.5252 11.8333 10.5239 11.8333 10.5226C11.8333 10.5213 11.8333 10.52 11.8333 10.5187C11.8333 10.5174 11.8333 10.5162 11.8333 10.5149C11.8333 10.5136 11.8333 10.5124 11.8333 10.5111C11.8333 10.5099 11.8333 10.5086 11.8333 10.5074C11.8333 10.5061 11.8333 10.5049 11.8333 10.5037C11.8333 10.5025 11.8333 10.5013 11.8333 10.5001C11.8333 10.4989 11.8333 10.4977 11.8333 10.4965C11.8333 10.4953 11.8333 10.4942 11.8333 10.493C11.8333 10.4918 11.8333 10.4907 11.8333 10.4895C11.8333 10.4884 11.8333 10.4872 11.8333 10.4861C11.8333 10.485 11.8333 10.4838 11.8333 10.4827C11.8333 10.4816 11.8333 10.4805 11.8333 10.4794C11.8333 10.4783 11.8333 10.4772 11.8333 10.4761C11.8333 10.4751 11.8333 10.474 11.8333 10.4729C11.8333 10.4718 11.8333 10.4708 11.8333 10.4697C11.8333 10.4687 11.8333 10.4677 11.8333 10.4666C11.8333 10.4656 11.8333 10.4646 11.8333 10.4635C11.8333 10.4625 11.8333 10.4615 11.8333 10.4605C11.8333 10.4595 11.8333 10.4585 11.8333 10.4575C11.8333 10.4565 11.8333 10.4556 11.8333 10.4546C11.8333 10.4536 11.8333 10.4527 11.8333 10.4517C11.8333 10.4508 11.8333 10.4498 11.8333 10.4489C11.8333 10.4479 11.8333 10.447 11.8333 10.4461C11.8333 10.4452 11.8333 10.4442 11.8333 10.4433C11.8333 10.4424 11.8333 10.4415 11.8333 10.4406C11.8333 10.4397 11.8333 10.4388 11.8333 10.438C11.8333 10.4371 11.8333 10.4362 11.8333 10.4353C11.8333 10.4345 11.8333 10.4336 11.8333 10.4328C11.8333 10.4319 11.8333 10.4311 11.8333 10.4302C11.8333 10.4294 11.8333 10.4286 11.8333 10.4278C11.8333 10.4269 11.8333 10.4261 11.8333 10.4253C11.8333 10.4245 11.8333 10.4237 11.8333 10.4229C11.8333 10.4221 11.8333 10.4213 11.8333 10.4206C11.8333 10.4198 11.8333 10.419 11.8333 10.4182C11.8333 10.4175 11.8333 10.4167 11.8333 10.416C11.8333 10.4152 11.8333 10.4145 11.8333 10.4137C11.8333 10.413 11.8333 10.4123 11.8333 10.4115C11.8333 10.4108 11.8333 10.4101 11.8333 10.4094C11.8333 10.4087 11.8333 10.408 11.8333 10.4073C11.8333 10.4066 11.8333 10.4059 11.8333 10.4052C11.8333 10.4045 11.8333 10.4038 11.8333 10.4032C11.8333 10.4025 11.8333 10.4018 11.8333 10.4012C11.8333 10.4005 11.8333 10.3999 11.8333 10.3992C11.8333 10.3986 11.8333 10.3979 11.8333 10.3973C11.8333 10.3967 11.8333 10.396 11.8333 10.3954C11.8333 10.3948 11.8333 10.3942 11.8333 10.3936C11.8333 10.393 11.8333 10.3924 11.8333 10.3918C11.8333 10.3912 11.8333 10.3906 11.8333 10.39C11.8333 10.3894 11.8333 10.3888 11.8333 10.3883C11.8333 10.3877 11.8333 10.3871 11.8333 10.3866C11.8333 10.386 11.8333 10.3855 11.8333 10.3849C11.8333 10.3844 11.8333 10.3838 11.8333 10.3833C11.8333 10.3827 11.8333 10.3822 11.8333 10.3817C11.8333 10.3812 11.8333 10.3806 11.8333 10.3801C11.8333 10.3796 11.8333 10.3791 11.8333 10.3786C11.8333 10.3781 11.8333 10.3776 11.8333 10.3771C11.8333 10.3766 11.8333 10.3761 11.8333 10.3756C11.8333 10.3752 11.8333 10.3747 11.8333 10.3742C11.8333 10.3737 11.8333 10.3733 11.8333 10.3728C11.8333 10.3724 11.8333 10.3719 11.8333 10.3715C11.8333 10.371 11.8333 10.3706 11.8333 10.3701C11.8333 10.3697 11.8333 10.3693 11.8333 10.3688C11.8333 10.3684 11.8333 10.368 11.8333 10.3676C11.8333 10.3671 11.8333 10.3667 11.8333 10.3663C11.8333 10.3659 11.8333 10.3655 11.8333 10.3651C11.8333 10.3647 11.8333 10.3643 11.8333 10.3639C11.8333 10.3636 11.8333 10.3632 11.8333 10.3628C11.8333 10.3624 11.8333 10.362 11.8333 10.3617C11.8333 10.3613 11.8333 10.3609 11.8333 10.3606C11.8333 10.3602 11.8333 10.3599 11.8333 10.3595C11.8333 10.3592 11.8333 10.3588 11.8333 10.3585C11.8333 10.3582 11.8333 10.3578 11.8333 10.3575C11.8333 10.3572 11.8333 10.3568 11.8333 10.3565C11.8333 10.3562 11.8333 10.3559 11.8333 10.3556C11.8333 10.3552 11.8333 10.3549 11.8333 10.3546C11.8333 10.3543 11.8333 10.354 11.8333 10.3537C11.8333 10.3534 11.8333 10.3531 11.8333 10.3529C11.8333 10.3526 11.8333 10.3523 11.8333 10.352C11.8333 10.3517 11.8333 10.3515 11.8333 10.3512C11.8333 10.3509 11.8333 10.3506 11.8333 10.3504C11.8333 10.3501 11.8333 10.3499 11.8333 10.3496C11.8333 10.3494 11.8333 10.3491 11.8333 10.3489C11.8333 10.3486 11.8333 10.3484 11.8333 10.3481C11.8333 10.3479 11.8333 10.3477 11.8333 10.3474C11.8333 10.3472 11.8333 10.347 11.8333 10.3467C11.8333 10.3465 11.8333 10.3463 11.8333 10.3461C11.8333 10.3459 11.8333 10.3457 11.8333 10.3454C11.8333 10.3452 11.8333 10.345 11.8333 10.3448C11.8333 10.3446 11.8333 10.3444 11.8333 10.3442C11.8333 10.344 11.8333 10.3439 11.8333 10.3437C11.8333 10.3435 11.8333 10.3433 11.8333 10.3431C11.8333 10.3429 11.8333 10.3428 11.8333 10.3426C11.8333 10.3424 11.8333 10.3422 11.8333 10.3421C11.8333 10.3419 11.8333 10.3417 11.8333 10.3416C11.8333 10.3414 11.8333 10.3413 11.8333 10.3411C11.8333 10.3409 11.8333 10.3408 11.8333 10.3406C11.8333 10.3405 11.8333 10.3403 11.8333 10.3402C11.8333 10.3401 11.8333 10.3399 11.8333 10.3398C11.8333 10.3396 11.8333 10.3395 11.8333 10.3394C11.8333 10.3392 11.8333 10.3391 11.8333 10.339C11.8333 10.3389 11.8333 10.3387 11.8333 10.3386C11.8333 10.3385 11.8333 10.3384 11.8333 10.3383C11.8333 10.3382 11.8333 10.338 11.8333 10.3379C11.8333 10.3378 11.8333 10.3377 11.8333 10.3376C11.8333 10.3375 11.8333 10.3374 11.8333 10.3373C11.8333 10.3372 11.8333 10.3371 11.8333 10.337C11.8333 10.3369 11.8333 10.3368 11.8333 10.3367C11.8333 10.3367 11.8333 10.3366 11.8333 10.3365C11.8333 10.3364 11.8333 10.3363 11.8333 10.3362C11.8333 10.3362 11.8333 10.3361 11.8333 10.336C11.8333 10.3359 11.8333 10.3358 11.8333 10.3358C11.8333 10.3357 11.8333 10.3356 11.8333 10.3356C11.8333 10.3355 11.8333 10.3354 11.8333 10.3354C11.8333 10.3353 11.8333 10.3352 11.8333 10.3352C11.8333 10.3351 11.8333 10.3351 11.8333 10.335C11.8333 10.335 11.8333 10.3349 11.8333 10.3348C11.8333 10.3348 11.8333 10.3347 11.8333 10.3347C11.8333 10.3346 11.8333 10.3346 11.8333 10.3346C11.8333 10.3345 11.8333 10.3345 11.8333 10.3344C11.8333 10.3344 11.8333 10.3343 11.8333 10.3343C11.8333 10.3343 11.8333 10.3342 11.8333 10.3342C11.8333 10.3342 11.8333 10.3341 11.8333 10.3341C11.8333 10.3341 11.8333 10.334 11.8333 10.334C11.8333 10.334 11.8333 10.3339 11.8333 10.3339C11.8333 10.3339 11.8333 10.3339 11.8333 10.3338C11.8333 10.3338 11.8333 10.3338 11.8333 10.3338C11.8333 10.3337 11.8333 10.3337 11.8333 10.3337C11.8333 10.3337 11.8333 10.3337 11.8333 10.3336C11.8333 10.3336 11.8333 10.3336 11.8333 10.3336C11.8333 10.3336 11.8333 10.3336 11.8333 10.3335C11.8333 10.3335 11.8333 10.3335 11.8333 10.3335C11.8333 10.3335 11.8333 10.3335 11.8333 10.3335C11.8333 10.3335 11.8333 10.3335 11.8333 10.3334C11.8333 10.3334 11.8333 10.3334 11.8333 10.3334C11.8333 10.3334 11.8333 10.3334 11.8333 10.3334C11.8333 10.3334 11.8333 10.3334 11.8333 10.3334C11.8333 10.3334 11.8333 10.3334 11.8333 10.3334C11.8333 10.3334 11.8333 10.3334 11.8333 10.3334C11.8333 10.3334 11.8333 10.3333 11.8333 10.3333C11.8333 10.3333 11.8333 10.3333 11.8333 10.3333C11.8333 10.3333 11.8333 10.3333 11.8333 10.3333C11.8333 10.3333 11.8333 10.3333 11.8333 10.3333C11.8333 10.3333 11.8333 10.3333 11.8333 10.3333H10.3333ZM11.8333 10.3333V2H8.83333V10.3333H11.8333Z" fill="#3B89E2"/>
</svg>
