<svg width="26" height="26" viewBox="0 0 26 26" fill="none" xmlns="http://www.w3.org/2000/svg">
<path d="M23.3333 10.6667H16C15.2636 10.6667 14.6667 10.0697 14.6667 9.33333V2C14.6667 0.89543 13.7712 0 12.6667 0C11.5621 0 10.6667 0.89543 10.6667 2V9.33333C10.6667 10.0697 10.0697 10.6667 9.33333 10.6667H2C0.89543 10.6667 0 11.5621 0 12.6667C0 13.7712 0.89543 14.6667 2 14.6667H9.33333C10.0697 14.6667 10.6667 15.2636 10.6667 16V23.3333C10.6667 24.4379 11.5621 25.3333 12.6667 25.3333C13.7712 25.3333 14.6667 24.4379 14.6667 23.3333V16C14.6667 15.2636 15.2636 14.6667 16 14.6667H23.3333C24.4379 14.6667 25.3333 13.7712 25.3333 12.6667C25.3333 11.5621 24.4379 10.6667 23.3333 10.6667Z" fill="white"/>
</svg>
