<svg width="25" height="25" viewBox="0 0 25 25" fill="none" xmlns="http://www.w3.org/2000/svg">
<circle cx="12.5" cy="12.5" r="12.5" fill="white"/>
<path fill-rule="evenodd" clip-rule="evenodd" d="M10.6314 8.33314H13.5034C14.1161 8.33649 14.7023 8.58308 15.1331 9.01867C15.564 9.45425 15.8041 10.0432 15.8007 10.6558L15.8007 13.4771C15.8041 14.0898 15.564 14.6787 15.1331 15.1143C14.7023 15.5499 14.1161 15.7965 13.5034 15.7998H10.6314C10.0188 15.7965 9.43253 15.5499 9.0017 15.1143C8.57086 14.6787 8.33071 14.0898 8.33408 13.4771V10.6565C8.33053 10.0437 8.57061 9.45463 9.00146 9.0189C9.43231 8.58317 10.0186 8.33649 10.6314 8.33314Z" stroke="#245288" stroke-linecap="round" stroke-linejoin="round"/>
<path d="M11.4458 17.6665H14.6258C16.3249 17.6471 17.6867 16.2543 17.6678 14.5552V11.4438" stroke="#245288" stroke-linecap="round" stroke-linejoin="round"/>
</svg>
