<svg width="25" height="25" viewBox="0 0 25 25" fill="none" xmlns="http://www.w3.org/2000/svg">
<circle cx="12.5" cy="12.5" r="12.5" fill="white"/>
<path d="M7 17H17M12.9913 8.28428C12.9913 8.28428 12.9913 9.19241 13.8995 10.1005C14.8076 11.0087 15.7157 11.0087 15.7157 11.0087M9.39979 15.3267L11.3069 15.0543C11.5819 15.015 11.8369 14.8875 12.0334 14.691L16.6238 10.1005C17.1254 9.59899 17.1254 8.78583 16.6238 8.28428L15.7157 7.37616C15.2142 6.87461 14.401 6.87461 13.8995 7.37616L9.30898 11.9666C9.11249 12.1631 8.98503 12.4181 8.94573 12.6931L8.67329 14.6002C8.61275 15.024 8.976 15.3872 9.39979 15.3267Z" stroke="#306EB5" stroke-linecap="round"/>
</svg>
