<svg width="549" height="72" viewBox="0 0 549 72" fill="none" xmlns="http://www.w3.org/2000/svg">
<path d="M47 42L176 42" stroke="#3B89E2" stroke-width="3" stroke-linecap="round" stroke-dasharray="6 6"/>
<path d="M213 42L342 42" stroke="#D7D7D7" stroke-width="3" stroke-linecap="round" stroke-dasharray="6 6"/>
<path d="M379 42L508 42" stroke="#D7D7D7" stroke-width="3" stroke-linecap="round" stroke-dasharray="6 6"/>
<g filter="url(#filter0_d_158_2439)">
<circle cx="25.5" cy="42.5" r="15.5" fill="#3B89E2"/>
</g>
<g filter="url(#filter1_d_158_2439)">
<circle cx="194.5" cy="42.5" r="15.5" fill="#3B89E2"/>
</g>
<g filter="url(#filter2_d_158_2439)">
<circle cx="526.5" cy="42.5" r="11.5" stroke="#D7D7D7" stroke-width="2" shape-rendering="crispEdges"/>
</g>
<g filter="url(#filter3_d_158_2439)">
<circle cx="360.5" cy="42.5" r="11.5" stroke="#D7D7D7" stroke-width="2" shape-rendering="crispEdges"/>
</g>
<path d="M191.212 47V45.9062L194.644 42.4473C195.724 41.3125 196.271 40.6836 196.271 39.8223C196.271 38.8516 195.478 38.2227 194.438 38.2227C193.345 38.2227 192.634 38.9199 192.634 39.9727H191.212C191.198 38.168 192.579 36.9648 194.466 36.9648C196.38 36.9648 197.692 38.168 197.706 39.7812C197.692 40.8887 197.173 41.7637 195.313 43.5957L193.304 45.6328V45.7148H197.87V47H191.212Z" fill="white"/>
<path d="M179.428 3.04688V4.19531C179.414 5.68555 179.428 7.38086 178.908 9.92383L177.637 9.78711C177.862 8.74121 177.992 7.81836 178.061 6.98438L170.691 7.42188L170.5 6.30078L178.129 6C178.156 5.34375 178.156 4.74902 178.156 4.19531V4.11328H170.869V3.04688H179.428ZM180.713 11.4961V12.5762H169.543V11.4961H173.795V8.39258H175.08V11.4961H180.713ZM187.863 3.64844C187.863 5.64453 189.996 7.53125 192.348 7.95508L191.746 9.03516C189.791 8.61133 187.986 7.32617 187.193 5.60352C186.387 7.3125 184.589 8.59766 182.627 9.03516L182.053 7.95508C184.377 7.51758 186.496 5.64453 186.496 3.64844V2.71875H187.863V3.64844ZM192.854 11.4688V12.5488H181.643V11.4688H192.854ZM201.48 4.1543C201.48 5.80859 202.588 7.42188 204.434 8.06445L203.723 9.07617C202.383 8.56348 201.385 7.55176 200.865 6.27344C200.332 7.69531 199.286 8.81641 197.844 9.36328L197.146 8.33789C199.047 7.6543 200.182 5.95898 200.195 4.11328V2.66406H201.48V4.1543ZM207.373 1.92578V11.0586H206.074V5.78125H203.49V4.71484H206.074V1.92578H207.373ZM207.646 12.8496V13.9023H199.375V10.0332H200.688V12.8496H207.646ZM214.551 2.78711V3.83984H211.01V5.20703H214.414V6.20508H211.01V7.69531C212.65 7.68164 213.73 7.62012 214.988 7.38086L215.111 8.44727C213.676 8.7207 212.514 8.77539 210.559 8.76172H209.766V2.78711H214.551ZM219.705 1.92578V9.36328H218.475V6.0957H216.971V9.26758H215.754V2.14453H216.971V5.04297H218.475V1.92578H219.705ZM219.705 9.95117V14.1621H218.42V11.0039H211.379V9.95117H219.705Z" fill="#245288"/>
<defs>
<filter id="filter0_d_158_2439" x="0" y="21" width="51" height="51" filterUnits="userSpaceOnUse" color-interpolation-filters="sRGB">
<feFlood flood-opacity="0" result="BackgroundImageFix"/>
<feColorMatrix in="SourceAlpha" type="matrix" values="0 0 0 0 0 0 0 0 0 0 0 0 0 0 0 0 0 0 127 0" result="hardAlpha"/>
<feOffset dy="4"/>
<feGaussianBlur stdDeviation="5"/>
<feComposite in2="hardAlpha" operator="out"/>
<feColorMatrix type="matrix" values="0 0 0 0 0.191649 0 0 0 0 0.306446 0 0 0 0 0.554167 0 0 0 0.25 0"/>
<feBlend mode="normal" in2="BackgroundImageFix" result="effect1_dropShadow_158_2439"/>
<feBlend mode="normal" in="SourceGraphic" in2="effect1_dropShadow_158_2439" result="shape"/>
</filter>
<filter id="filter1_d_158_2439" x="169" y="21" width="51" height="51" filterUnits="userSpaceOnUse" color-interpolation-filters="sRGB">
<feFlood flood-opacity="0" result="BackgroundImageFix"/>
<feColorMatrix in="SourceAlpha" type="matrix" values="0 0 0 0 0 0 0 0 0 0 0 0 0 0 0 0 0 0 127 0" result="hardAlpha"/>
<feOffset dy="4"/>
<feGaussianBlur stdDeviation="5"/>
<feComposite in2="hardAlpha" operator="out"/>
<feColorMatrix type="matrix" values="0 0 0 0 0.191649 0 0 0 0 0.306446 0 0 0 0 0.554167 0 0 0 0.25 0"/>
<feBlend mode="normal" in2="BackgroundImageFix" result="effect1_dropShadow_158_2439"/>
<feBlend mode="normal" in="SourceGraphic" in2="effect1_dropShadow_158_2439" result="shape"/>
</filter>
<filter id="filter2_d_158_2439" x="504" y="24" width="45" height="45" filterUnits="userSpaceOnUse" color-interpolation-filters="sRGB">
<feFlood flood-opacity="0" result="BackgroundImageFix"/>
<feColorMatrix in="SourceAlpha" type="matrix" values="0 0 0 0 0 0 0 0 0 0 0 0 0 0 0 0 0 0 127 0" result="hardAlpha"/>
<feOffset dy="4"/>
<feGaussianBlur stdDeviation="5"/>
<feComposite in2="hardAlpha" operator="out"/>
<feColorMatrix type="matrix" values="0 0 0 0 0.191649 0 0 0 0 0.306446 0 0 0 0 0.554167 0 0 0 0.25 0"/>
<feBlend mode="normal" in2="BackgroundImageFix" result="effect1_dropShadow_158_2439"/>
<feBlend mode="normal" in="SourceGraphic" in2="effect1_dropShadow_158_2439" result="shape"/>
</filter>
<filter id="filter3_d_158_2439" x="338" y="24" width="45" height="45" filterUnits="userSpaceOnUse" color-interpolation-filters="sRGB">
<feFlood flood-opacity="0" result="BackgroundImageFix"/>
<feColorMatrix in="SourceAlpha" type="matrix" values="0 0 0 0 0 0 0 0 0 0 0 0 0 0 0 0 0 0 127 0" result="hardAlpha"/>
<feOffset dy="4"/>
<feGaussianBlur stdDeviation="5"/>
<feComposite in2="hardAlpha" operator="out"/>
<feColorMatrix type="matrix" values="0 0 0 0 0.191649 0 0 0 0 0.306446 0 0 0 0 0.554167 0 0 0 0.25 0"/>
<feBlend mode="normal" in2="BackgroundImageFix" result="effect1_dropShadow_158_2439"/>
<feBlend mode="normal" in="SourceGraphic" in2="effect1_dropShadow_158_2439" result="shape"/>
</filter>
</defs>
</svg>
