<svg width="84" height="84" viewBox="0 0 84 84" fill="none" xmlns="http://www.w3.org/2000/svg">
<g filter="url(#filter0_d_419_2548)">
<circle cx="42" cy="38" r="32" fill="#3482DB"/>
<circle cx="42" cy="38" r="31" stroke="white" stroke-opacity="0.7" stroke-width="2"/>
</g>
<path d="M53.3333 36.6667H46C45.2636 36.6667 44.6667 36.0697 44.6667 35.3333V28C44.6667 26.8954 43.7712 26 42.6667 26C41.5621 26 40.6667 26.8954 40.6667 28V35.3333C40.6667 36.0697 40.0697 36.6667 39.3333 36.6667H32C30.8954 36.6667 30 37.5621 30 38.6667C30 39.7712 30.8954 40.6667 32 40.6667H39.3333C40.0697 40.6667 40.6667 41.2636 40.6667 42V49.3333C40.6667 50.4379 41.5621 51.3333 42.6667 51.3333C43.7712 51.3333 44.6667 50.4379 44.6667 49.3333V42C44.6667 41.2636 45.2636 40.6667 46 40.6667H53.3333C54.4379 40.6667 55.3333 39.7712 55.3333 38.6667C55.3333 37.5621 54.4379 36.6667 53.3333 36.6667Z" fill="white"/>
<defs>
<filter id="filter0_d_419_2548" x="0" y="0" width="84" height="84" filterUnits="userSpaceOnUse" color-interpolation-filters="sRGB">
<feFlood flood-opacity="0" result="BackgroundImageFix"/>
<feColorMatrix in="SourceAlpha" type="matrix" values="0 0 0 0 0 0 0 0 0 0 0 0 0 0 0 0 0 0 127 0" result="hardAlpha"/>
<feOffset dy="4"/>
<feGaussianBlur stdDeviation="5"/>
<feComposite in2="hardAlpha" operator="out"/>
<feColorMatrix type="matrix" values="0 0 0 0 0.705469 0 0 0 0 0.721875 0 0 0 0 0.7875 0 0 0 0.4 0"/>
<feBlend mode="normal" in2="BackgroundImageFix" result="effect1_dropShadow_419_2548"/>
<feBlend mode="normal" in="SourceGraphic" in2="effect1_dropShadow_419_2548" result="shape"/>
</filter>
</defs>
</svg>
