<svg width="31" height="31" viewBox="0 0 31 31" fill="none" xmlns="http://www.w3.org/2000/svg">
<g clip-path="url(#clip0_546_2796)">
<path d="M20.6667 20.6667C20.6667 20.9221 20.5909 21.1719 20.449 21.3843C20.307 21.5967 20.1053 21.7622 19.8693 21.86C19.6333 21.9578 19.3736 21.9834 19.123 21.9335C18.8724 21.8837 18.6423 21.7607 18.4617 21.58C18.281 21.3994 18.158 21.1692 18.1081 20.9187C18.0583 20.6681 18.0839 20.4084 18.1817 20.1724C18.2794 19.9363 18.445 19.7346 18.6574 19.5927C18.8698 19.4508 19.1195 19.375 19.375 19.375C19.7176 19.375 20.0461 19.5111 20.2883 19.7533C20.5306 19.9956 20.6667 20.3241 20.6667 20.6667ZM24.5417 19.375C24.2862 19.375 24.0365 19.4508 23.8241 19.5927C23.6116 19.7346 23.4461 19.9363 23.3483 20.1724C23.2506 20.4084 23.225 20.6681 23.2748 20.9187C23.3247 21.1692 23.4477 21.3994 23.6283 21.58C23.809 21.7607 24.0391 21.8837 24.2897 21.9335C24.5402 21.9834 24.7999 21.9578 25.036 21.86C25.272 21.7622 25.4737 21.5967 25.6156 21.3843C25.7576 21.1719 25.8333 20.9221 25.8333 20.6667C25.8333 20.3241 25.6972 19.9956 25.455 19.7533C25.2128 19.5111 24.8842 19.375 24.5417 19.375ZM21.9583 15.5C21.7029 15.5 21.4531 15.5758 21.2407 15.7177C21.0283 15.8596 20.8627 16.0613 20.765 16.2974C20.6672 16.5334 20.6416 16.7931 20.6915 17.0437C20.7413 17.2942 20.8643 17.5244 21.045 17.705C21.2256 17.8857 21.4558 18.0087 21.7063 18.0585C21.9569 18.1084 22.2166 18.0828 22.4526 17.985C22.6887 17.8872 22.8904 17.7217 23.0323 17.5093C23.1742 17.2969 23.25 17.0471 23.25 16.7917C23.25 16.4491 23.1139 16.1206 22.8717 15.8783C22.6294 15.6361 22.3009 15.5 21.9583 15.5ZM31 20.6667C31.0025 22.6421 30.438 24.5768 29.3735 26.241C28.309 27.9051 26.7893 29.2287 24.9948 30.0547C23.2003 30.8807 21.2064 31.1743 19.25 30.9007C17.2935 30.627 15.4567 29.7976 13.9577 28.511C13.4974 29.2694 12.8498 29.8967 12.0771 30.3325C11.3044 30.7684 10.4326 30.9983 9.54541 31H5.95458C4.97268 31.0008 4.01088 30.7218 3.18185 30.1956C2.35282 29.6695 1.69089 28.918 1.27358 28.0292C0.410344 26.123 -0.0243933 24.0507 -4.32566e-06 21.9583C0.155085 19.4575 0.925329 17.0336 2.24233 14.902C3.12277 13.521 3.6808 11.9595 3.875 10.3333C3.72769 9.37598 3.48805 8.43513 3.15941 7.52396C2.8648 6.76687 2.67111 5.9743 2.58333 5.16667C2.58333 3.79638 3.12767 2.48222 4.09661 1.51328C5.06555 0.544344 6.37971 0 7.75 0C9.12028 0 10.4344 0.544344 11.4034 1.51328C12.3723 2.48222 12.9167 3.79638 12.9167 5.16667C12.8289 5.9743 12.6352 6.76687 12.3406 7.52396C12.0119 8.43513 11.7723 9.37598 11.625 10.3333C11.7352 11.6281 12.1357 12.8815 12.7965 14.0004C14.1608 12.3824 15.9897 11.2232 18.0352 10.6799C20.0807 10.1366 22.2438 10.2356 24.2311 10.9634C26.2184 11.6911 27.9338 13.0125 29.1447 14.7483C30.3555 16.4841 31.0033 18.5503 31 20.6667V20.6667ZM5.16666 5.16667C5.18733 5.36042 5.4392 6.16383 5.62391 6.75025C6.06036 7.90213 6.34098 9.10714 6.45833 10.3333H9.04166C9.15901 9.10714 9.43963 7.90213 9.87608 6.75025C10.0577 6.21944 10.2103 5.67916 10.3333 5.13179C10.3287 4.44665 10.0521 3.79141 9.56436 3.31021C9.07662 2.82901 8.4177 2.56127 7.73256 2.5659C7.04742 2.57052 6.39217 2.84713 5.91097 3.33487C5.42977 3.82261 5.16204 4.48152 5.16666 5.16667V5.16667ZM11.8833 26.939C12.5878 25.3743 12.9406 23.6741 12.9167 21.9583C12.7452 19.8745 12.0754 17.8624 10.9637 16.0916C10.4043 15.0702 9.92075 14.009 9.517 12.9167H5.983C5.57924 14.009 5.09571 15.0702 4.53633 16.0916C3.4246 17.8624 2.75479 19.8745 2.58333 21.9583C2.55958 23.6745 2.9123 25.3751 3.61666 26.9403C3.82643 27.3826 4.15755 27.7562 4.57147 28.0176C4.98538 28.279 5.46504 28.4174 5.95458 28.4167H9.54541C10.0351 28.4173 10.5148 28.2787 10.9288 28.0171C11.3427 27.7554 11.6737 27.3816 11.8833 26.939V26.939ZM28.4167 20.6667C28.4189 18.9828 27.8719 17.3442 26.8586 15.9994C25.8453 14.6546 24.421 13.677 22.8018 13.2149C21.1826 12.7528 19.4569 12.8315 17.8864 13.439C16.316 14.0465 14.9866 15.1497 14.0998 16.5811C14.965 18.2454 15.4436 20.0834 15.5 21.9583C15.5003 23.2929 15.323 24.6217 14.973 25.9095C16.0279 27.0587 17.4053 27.8624 18.9248 28.2152C20.4443 28.5681 22.035 28.4536 23.4883 27.8868C24.9416 27.32 26.1898 26.3274 27.0692 25.039C27.9487 23.7506 28.4183 22.2266 28.4167 20.6667Z" fill="white"/>
</g>
<defs>
<clipPath id="clip0_546_2796">
<rect width="31" height="31" fill="white"/>
</clipPath>
</defs>
</svg>
