<svg width="31" height="31" viewBox="0 0 31 31" fill="none" xmlns="http://www.w3.org/2000/svg">
<g clip-path="url(#clip0_546_2819)">
<path d="M29.9588 14.9836C29.2725 14.0671 28.2973 13.4087 27.1908 13.1146C27.7301 11.5468 28.1286 9.93398 28.3817 8.29539C28.4644 7.69976 28.4076 7.09307 28.216 6.52308C28.0244 5.95309 27.7031 5.43536 27.2773 5.01065C26.8516 4.58594 26.3331 4.26584 25.7627 4.07555C25.1923 3.88526 24.5854 3.82998 23.99 3.91406C23.8273 3.93602 23.3442 4.00706 22.6841 4.13493C23.0928 3.23007 23.2865 2.24285 23.2499 1.25064C23.2445 1.08102 23.2057 0.914124 23.1357 0.759489C23.0658 0.604854 22.9661 0.465506 22.8423 0.349402C22.7186 0.233298 22.5731 0.142711 22.4143 0.0828133C22.2555 0.0229158 22.0865 -0.00511933 21.9169 0.000308638C21.7473 0.00573661 21.5804 0.0445214 21.4257 0.114448C21.2711 0.184376 21.1317 0.284076 21.0156 0.407856C20.8995 0.531637 20.809 0.677074 20.7491 0.835863C20.6892 0.994652 20.6611 1.16368 20.6666 1.33331C20.6886 1.95727 20.5606 2.57741 20.2933 3.14164C20.1064 2.63745 19.84 2.16647 19.5041 1.74664C18.9331 1.0968 18.2083 0.600483 17.3959 0.30308C16.5836 0.00567616 15.7097 -0.0833216 14.8541 0.0442253C13.9159 0.119531 13.0192 0.462979 12.2707 1.03364C11.4246 0.3971 10.401 0.0403892 9.34251 0.0132253C7.99942 -0.116948 6.65947 0.290378 5.61605 1.14602C5.08625 1.61769 4.65849 2.19273 4.35906 2.83578C4.05964 3.47884 3.89487 4.17633 3.87488 4.88539C3.83944 6.02079 4.17001 7.1375 4.8178 8.07064C4.02975 8.74631 3.41803 9.60365 3.03546 10.5686C2.65289 11.5336 2.51097 12.5772 2.62197 13.6093C1.60046 14.1785 0.80439 15.0801 0.365954 16.1642C-0.0724825 17.2483 -0.126907 18.4498 0.211717 19.5691C1.09652 22.6478 2.74336 25.4536 4.99993 27.7272C7.16477 29.8381 10.0725 31.0136 13.0961 31.0003H17.9037C20.9269 31.0138 23.8343 29.8383 25.9986 27.7272C28.2559 25.4541 29.9033 22.6481 30.7881 19.5691C31.0187 18.7932 31.0638 17.974 30.9197 17.1776C30.7757 16.3811 30.4465 15.6296 29.9588 14.9836ZM24.3491 6.47156C24.549 6.44459 24.7524 6.46419 24.9435 6.52885C25.1345 6.5935 25.3081 6.70145 25.4505 6.84426C25.5929 6.98708 25.7004 7.16089 25.7646 7.35212C25.8287 7.54335 25.8478 7.74682 25.8203 7.94664C25.5494 9.64284 25.1102 11.3078 24.5093 12.917H21.2013L22.8714 11.2469C23.1067 11.0032 23.2369 10.677 23.234 10.3383C23.231 9.99962 23.0952 9.67565 22.8557 9.43617C22.6162 9.19668 22.2922 9.06084 21.9536 9.0579C21.6149 9.05495 21.2886 9.18515 21.045 9.42043L17.5485 12.917H15.5477C15.4533 12.2376 15.5181 11.5456 15.7369 10.8956C15.9557 10.2456 16.3225 9.65522 16.8083 9.17114C17.3599 8.61443 19.4743 7.10448 24.3491 6.47156ZM6.45822 4.97193C6.46598 4.61633 6.54615 4.26605 6.69384 3.94247C6.84152 3.6189 7.05362 3.32883 7.31718 3.08998C7.85008 2.69607 8.51211 2.518 9.17072 2.59139C9.48883 2.57831 9.80612 2.63266 10.1017 2.75086C10.3974 2.86907 10.6647 3.04846 10.8861 3.27727C11.0603 3.472 11.2738 3.62777 11.5124 3.73438C11.751 3.841 12.0094 3.89606 12.2707 3.89598V3.89598C12.5315 3.89469 12.789 3.8386 13.0267 3.73134C13.2643 3.62408 13.4768 3.46806 13.6502 3.27339C13.8429 3.06961 14.074 2.9061 14.3304 2.79236C14.5867 2.67861 14.863 2.61689 15.1434 2.61077C15.5703 2.53471 16.0095 2.5657 16.4216 2.70094C16.8336 2.83619 17.2057 3.07148 17.5046 3.38577C17.8967 3.88777 18.1013 4.51086 18.0832 5.1476C18.0832 5.23156 18.0832 5.41498 18.0832 5.41498C16.3685 6.03242 14.9038 7.19542 13.9137 8.72552C13.0981 7.75996 12.0129 7.05979 10.797 6.71463C9.58108 6.36946 8.28984 6.39502 7.08855 6.78802C6.6599 6.28211 6.43517 5.63462 6.45822 4.97193V4.97193ZM5.16655 12.917C5.16655 11.8893 5.57481 10.9036 6.30151 10.1769C7.02822 9.45023 8.01384 9.04198 9.04155 9.04198C10.0693 9.04198 11.0549 9.45023 11.7816 10.1769C12.5083 10.9036 12.9166 11.8893 12.9166 12.917H5.16655ZM28.3081 18.8444C27.5363 21.5016 26.1159 23.9251 24.1747 25.8969C22.4963 27.5277 20.2438 28.4328 17.9037 28.417H13.0961C10.7553 28.4323 8.50223 27.5272 6.82247 25.8969C4.8812 23.9252 3.4608 21.5016 2.68913 18.8444C2.57334 18.4534 2.55088 18.0406 2.62356 17.6393C2.69624 17.2379 2.86204 16.8593 3.10763 16.5336C3.34593 16.2122 3.6564 15.9512 4.01402 15.7718C4.37164 15.5923 4.76642 15.4993 5.16655 15.5003H25.8332C26.2347 15.4981 26.631 15.5905 26.99 15.77C27.3491 15.9495 27.6608 16.2111 27.8999 16.5336C28.1437 16.8601 28.3077 17.2392 28.3786 17.6405C28.4494 18.0418 28.4253 18.4542 28.3081 18.8444V18.8444Z" fill="white"/>
</g>
<defs>
<clipPath id="clip0_546_2819">
<rect width="31" height="31" fill="white"/>
</clipPath>
</defs>
</svg>
