<svg width="46" height="46" viewBox="0 0 46 46" fill="none" xmlns="http://www.w3.org/2000/svg">
<path d="M19.5772 16.6251C19.5772 16.0729 19.1295 15.6251 18.5772 15.6251C18.0249 15.6251 17.5772 16.0729 17.5772 16.6251H19.5772ZM28.4207 16.6251C28.4207 16.0729 27.973 15.6251 27.4207 15.6251C26.8684 15.6251 26.4207 16.0729 26.4207 16.6251H28.4207ZM17.5774 16.608C17.5679 17.1602 18.0078 17.6155 18.56 17.625C19.1122 17.6345 19.5676 17.1945 19.5771 16.6423L17.5774 16.608ZM19.5962 15.5268C19.6057 14.9746 19.1658 14.5193 18.6136 14.5098C18.0614 14.5003 17.606 14.9403 17.5965 15.4925L19.5962 15.5268ZM19.5472 16.8684C19.6815 16.3327 19.3562 15.7895 18.8205 15.6552C18.2848 15.5208 17.7416 15.8462 17.6073 16.3819L19.5472 16.8684ZM18.2763 17.825L19.2439 18.0776L19.2463 18.0682L18.2763 17.825ZM15.5414 20.8454L15.8886 21.7832L15.5414 20.8454ZM12.0688 19.5121C11.6149 19.1974 10.9919 19.3102 10.6772 19.7641C10.3625 20.2179 10.4753 20.841 10.9291 21.1557L12.0688 19.5121ZM12.4989 20.3441C12.5046 19.7919 12.0615 19.3396 11.5092 19.3339C10.957 19.3283 10.5047 19.7714 10.499 20.3236L12.4989 20.3441ZM11.3936 30.6206L12.3935 30.6326L12.3935 30.6309L11.3936 30.6206ZM12.4999 33.361L11.7886 34.0639L11.7886 34.0639L12.4999 33.361ZM15.2269 34.5V33.5H15.2268L15.2269 34.5ZM19.1656 35.5C19.7179 35.5 20.1656 35.0523 20.1656 34.5C20.1656 33.9477 19.7179 33.5 19.1656 33.5V35.5ZM10.9266 21.1539C11.3795 21.47 12.0029 21.3591 12.319 20.9062C12.6351 20.4533 12.5242 19.8299 12.0713 19.5139L10.9266 21.1539ZM9.73372 15.5096L8.7963 15.1614C8.78518 15.1914 8.77551 15.2218 8.7673 15.2527L9.73372 15.5096ZM11.3341 11.201L12.2716 11.5492C12.2812 11.5232 12.2897 11.4969 12.2972 11.4702L11.3341 11.201ZM13.4597 9.58331V8.58331L13.4568 8.58332L13.4597 9.58331ZM32.5363 9.58331L32.5392 8.58331H32.5363V9.58331ZM34.6619 11.201L33.6988 11.4702C33.7063 11.4968 33.7148 11.5231 33.7244 11.549L34.6619 11.201ZM36.2623 15.5116L37.2287 15.2547C37.2205 15.2238 37.2109 15.1934 37.1998 15.1635L36.2623 15.5116ZM33.9262 19.5142C33.4735 19.8305 33.3629 20.454 33.6793 20.9067C33.9956 21.3594 34.619 21.4699 35.0717 21.1536L33.9262 19.5142ZM18.1656 34.5C18.1656 35.0523 18.6133 35.5 19.1656 35.5C19.7179 35.5 20.1656 35.0523 20.1656 34.5H18.1656ZM25.8323 34.5C25.8323 35.0523 26.28 35.5 26.8323 35.5C27.3846 35.5 27.8323 35.0523 27.8323 34.5H25.8323ZM19.1656 33.5C18.6133 33.5 18.1656 33.9477 18.1656 34.5C18.1656 35.0523 18.6133 35.5 19.1656 35.5V33.5ZM26.8323 35.5C27.3846 35.5 27.8323 35.0523 27.8323 34.5C27.8323 33.9477 27.3846 33.5 26.8323 33.5V35.5ZM26.4208 16.6372C26.4274 17.1894 26.8805 17.6317 27.4327 17.6251C27.985 17.6184 28.4273 17.1654 28.4206 16.6131L26.4208 16.6372ZM28.4072 15.4976C28.4006 14.9454 27.9475 14.5031 27.3953 14.5097C26.843 14.5164 26.4007 14.9694 26.4074 15.5217L28.4072 15.4976ZM28.3962 16.3808C28.2612 15.8452 27.7176 15.5205 27.1821 15.6555C26.6466 15.7904 26.3218 16.334 26.4568 16.8695L28.3962 16.3808ZM27.7274 17.8192L26.7577 18.0636L26.7597 18.0715L27.7274 17.8192ZM30.4585 20.8396L30.1103 21.7771L30.4585 20.8396ZM35.0674 21.1566C35.5218 20.8427 35.6356 20.2198 35.3217 19.7655C35.0078 19.3111 34.3849 19.1972 33.9305 19.5112L35.0674 21.1566ZM35.4989 20.3242C35.4936 19.7719 35.0415 19.3286 34.4893 19.3339C33.937 19.3393 33.4937 19.7913 33.499 20.3436L35.4989 20.3242ZM34.5986 30.6206L33.5987 30.6303L33.5987 30.6326L34.5986 30.6206ZM33.4923 33.361L32.781 32.6581L33.4923 33.361ZM30.7653 34.5L30.7654 33.5H30.7653V34.5ZM26.8323 33.5C26.28 33.5 25.8323 33.9477 25.8323 34.5C25.8323 35.0523 26.28 35.5 26.8323 35.5V33.5ZM17.5772 16.6251C17.5772 19.6195 20.0046 22.0469 22.999 22.0469V20.0469C21.1092 20.0469 19.5772 18.5149 19.5772 16.6251H17.5772ZM22.999 22.0469C25.9933 22.0469 28.4207 19.6195 28.4207 16.6251H26.4207C26.4207 18.5149 24.8887 20.0469 22.999 20.0469V22.0469ZM19.5771 16.6423L19.5962 15.5268L17.5965 15.4925L17.5774 16.608L19.5771 16.6423ZM17.6073 16.3819L17.3063 17.5817L19.2463 18.0682L19.5472 16.8684L17.6073 16.3819ZM17.3087 17.5723C17.0275 18.6494 16.2381 19.5212 15.1942 19.9076L15.8886 21.7832C17.545 21.17 18.7976 19.7866 19.2439 18.0776L17.3087 17.5723ZM15.1942 19.9076C14.1503 20.2941 12.9835 20.1464 12.0688 19.5121L10.9291 21.1557C12.3806 22.1621 14.2321 22.3964 15.8886 21.7832L15.1942 19.9076ZM10.499 20.3236L10.3936 30.6104L12.3935 30.6309L12.4989 20.3441L10.499 20.3236ZM10.3936 30.6086C10.3781 31.9005 10.8805 33.1449 11.7886 34.0639L13.2112 32.6581C12.6789 32.1194 12.3844 31.39 12.3935 30.6326L10.3936 30.6086ZM11.7886 34.0639C12.6967 34.9829 13.935 35.5001 15.227 35.5L15.2268 33.5C14.4694 33.5 13.7436 33.1969 13.2112 32.6581L11.7886 34.0639ZM15.2269 35.5H19.1656V33.5H15.2269V35.5ZM12.0713 19.5139C10.8722 18.677 10.3244 17.1797 10.7001 15.7666L8.7673 15.2527C8.17552 17.4781 9.03832 19.836 10.9266 21.1539L12.0713 19.5139ZM10.6711 15.8578L12.2716 11.5492L10.3967 10.8528L8.7963 15.1614L10.6711 15.8578ZM12.2972 11.4702C12.4435 10.9471 12.9194 10.5849 13.4626 10.5833L13.4568 8.58332C12.0186 8.58748 10.7583 9.54665 10.3711 10.9317L12.2972 11.4702ZM13.4597 10.5833H32.5363V8.58331H13.4597V10.5833ZM32.5334 10.5833C33.0766 10.5849 33.5526 10.9471 33.6988 11.4702L35.625 10.9317C35.2377 9.54665 33.9774 8.58748 32.5392 8.58332L32.5334 10.5833ZM33.7244 11.549L35.3248 15.8596L37.1998 15.1635L35.5994 10.8529L33.7244 11.549ZM35.2959 15.7684C35.6713 17.1808 35.1241 18.6772 33.9262 19.5142L35.0717 21.1536C36.9582 19.8354 37.8199 17.4789 37.2287 15.2547L35.2959 15.7684ZM20.1656 34.5V28.75H18.1656V34.5H20.1656ZM20.1656 28.75C20.1656 28.2437 20.576 27.8333 21.0823 27.8333V25.8333C19.4715 25.8333 18.1656 27.1391 18.1656 28.75H20.1656ZM21.0823 27.8333H24.9156V25.8333H21.0823V27.8333ZM24.9156 27.8333C25.4219 27.8333 25.8323 28.2437 25.8323 28.75H27.8323C27.8323 27.1391 26.5265 25.8333 24.9156 25.8333V27.8333ZM25.8323 28.75V34.5H27.8323V28.75H25.8323ZM19.1656 35.5H26.8323V33.5H19.1656V35.5ZM28.4206 16.6131L28.4072 15.4976L26.4074 15.5217L26.4208 16.6372L28.4206 16.6131ZM26.4568 16.8695L26.7577 18.0636L28.6971 17.5749L28.3962 16.3808L26.4568 16.8695ZM26.7597 18.0715C27.205 19.7794 28.4557 21.1626 30.1103 21.7771L30.8066 19.9022C29.7638 19.5149 28.9757 18.6433 28.695 17.5669L26.7597 18.0715ZM30.1103 21.7771C31.7649 22.3915 33.6153 22.1599 35.0674 21.1566L33.9305 19.5112C33.0154 20.1434 31.8493 20.2894 30.8066 19.9022L30.1103 21.7771ZM33.499 20.3436L33.5987 30.6303L35.5986 30.611L35.4989 20.3242L33.499 20.3436ZM33.5987 30.6326C33.6078 31.39 33.3133 32.1194 32.781 32.6581L34.2036 34.0639C35.1117 33.1449 35.6141 31.9005 35.5986 30.6086L33.5987 30.6326ZM32.781 32.6581C32.2486 33.1969 31.5227 33.5 30.7654 33.5L30.7652 35.5C32.0572 35.5001 33.2955 34.9829 34.2036 34.0639L32.781 32.6581ZM30.7653 33.5H26.8323V35.5H30.7653V33.5Z" fill="white"/>
</svg>
