<svg width="32" height="32" viewBox="0 0 32 32" fill="none" xmlns="http://www.w3.org/2000/svg">
<g clip-path="url(#clip0_546_2824)">
<path d="M30.6667 26.6667C30.313 26.6667 29.9739 26.8071 29.7239 27.0572C29.4738 27.3072 29.3333 27.6464 29.3333 28C29.3333 28.4587 28.424 29.3333 27 29.3333C26.6 29.3474 26.2019 29.2723 25.8345 29.1134C25.4671 28.9545 25.1397 28.7158 24.876 28.4147C24.9281 28.3297 24.9851 28.2477 25.0467 28.1693C27.2211 25.889 28.6834 23.024 29.2547 19.9253C29.4238 18.9931 29.2564 18.031 28.7825 17.2106C28.3086 16.3901 27.5588 15.7646 26.6667 15.4453V12C26.6667 10.5855 26.1048 9.22896 25.1046 8.22876C24.1044 7.22857 22.7478 6.66667 21.3333 6.66667V5.33333C21.3333 3.91885 20.7714 2.56229 19.7712 1.5621C18.771 0.561903 17.4145 0 16 0C14.5855 0 13.229 0.561903 12.2288 1.5621C11.2286 2.56229 10.6667 3.91885 10.6667 5.33333V6.66667C9.25218 6.66667 7.89562 7.22857 6.89543 8.22876C5.89524 9.22896 5.33333 10.5855 5.33333 12V15.428C4.43012 15.74 3.66845 16.365 3.18615 17.1899C2.70386 18.0149 2.53283 18.9852 2.704 19.9253C3.28954 23.0278 4.76613 25.8925 6.95333 28.1693C7.01732 28.2498 7.07653 28.3339 7.13067 28.4213C6.86672 28.7235 6.53814 28.9624 6.1693 29.1202C5.80046 29.2781 5.40082 29.3509 5 29.3333C3.548 29.3333 2.66667 28.408 2.66667 28C2.66667 27.6464 2.52619 27.3072 2.27614 27.0572C2.02609 26.8071 1.68696 26.6667 1.33333 26.6667C0.979711 26.6667 0.640573 26.8071 0.390524 27.0572C0.140476 27.3072 0 27.6464 0 28C0 30.168 2.29067 32 5 32C6.34824 32.0122 7.65587 31.5389 8.684 30.6667C9.70947 31.5231 11.0021 31.994 12.3381 31.9979C13.6742 32.0018 14.9696 31.5384 16 30.688C17.0342 31.5376 18.3321 32.0002 19.6705 31.9963C21.0089 31.9924 22.3041 31.5223 23.3333 30.6667C24.3553 31.5342 25.6541 32.0072 26.9947 32C29.7093 32 32 30.168 32 28C32 27.6464 31.8595 27.3072 31.6095 27.0572C31.3594 26.8071 31.0203 26.6667 30.6667 26.6667ZM13.3333 5.33333C13.3333 4.62609 13.6143 3.94781 14.1144 3.44772C14.6145 2.94762 15.2928 2.66667 16 2.66667C16.7072 2.66667 17.3855 2.94762 17.8856 3.44772C18.3857 3.94781 18.6667 4.62609 18.6667 5.33333V6.66667H13.3333V5.33333ZM10.6667 9.33333H21.3333C22.0406 9.33333 22.7189 9.61429 23.219 10.1144C23.719 10.6145 24 11.2928 24 12V14.56L17.264 12.3493C16.4451 12.08 15.5615 12.08 14.7427 12.3493L8 14.5507V12C8 11.2928 8.28095 10.6145 8.78105 10.1144C9.28115 9.61429 9.95942 9.33333 10.6667 9.33333V9.33333ZM12.3333 29.3333C11.8877 29.3577 11.4433 29.2663 11.0435 29.0679C10.6437 28.8695 10.3021 28.571 10.052 28.2013C9.77427 27.5356 9.39263 26.9181 8.92133 26.372C7.08321 24.469 5.83682 22.0734 5.33333 19.476C5.27177 19.1565 5.32703 18.8255 5.48904 18.5433C5.65105 18.2612 5.90904 18.0466 6.216 17.9387L14.6667 15.1773V28C14.6667 28.4587 13.7573 29.3333 12.3333 29.3333ZM19.6667 29.3333C18.2147 29.3333 17.3333 28.408 17.3333 28V15.1787L25.74 17.9373C26.048 18.045 26.3071 18.2597 26.4701 18.5424C26.6331 18.825 26.6891 19.1568 26.628 19.4773C26.1391 22.0713 24.9058 24.4669 23.0787 26.372C22.6044 26.9189 22.2224 27.5395 21.948 28.2093C21.6978 28.5783 21.3559 28.876 20.956 29.073C20.556 29.2701 20.1117 29.3598 19.6667 29.3333V29.3333Z" fill="white"/>
</g>
<defs>
<clipPath id="clip0_546_2824">
<rect width="32" height="32" fill="white"/>
</clipPath>
</defs>
</svg>
