<svg width="42" height="42" viewBox="0 0 42 42" fill="none" xmlns="http://www.w3.org/2000/svg">
<path fill-rule="evenodd" clip-rule="evenodd" d="M28.8643 16.7999V20.9842H29.9581C31.8811 21.0961 33.3523 22.7409 33.2498 24.6644C33.3493 26.586 31.879 28.2275 29.9581 28.3394H28.8643C28.6419 31.0759 26.3821 33.1987 23.6371 33.2499H17.0676C14.105 33.183 11.756 30.7299 11.8176 27.7672V16.7999H28.8643Z" stroke="white" stroke-width="2.5" stroke-linecap="round" stroke-linejoin="round"/>
<path d="M23.6373 32C22.9469 32 22.3873 32.5596 22.3873 33.25C22.3873 33.9404 22.9469 34.5 23.6373 34.5V32ZM33.25 34.5C33.9404 34.5 34.5 33.9404 34.5 33.25C34.5 32.5596 33.9404 32 33.25 32V34.5ZM17.0678 34.5C17.7581 34.5 18.3178 33.9404 18.3178 33.25C18.3178 32.5596 17.7581 32 17.0678 32V34.5ZM8.75 32C8.05964 32 7.5 32.5596 7.5 33.25C7.5 33.9404 8.05964 34.5 8.75 34.5V32ZM30.1145 20.9842C30.1145 20.2939 29.5549 19.7342 28.8645 19.7342C28.1741 19.7342 27.6145 20.2939 27.6145 20.9842H30.1145ZM27.6145 28.35C27.6145 29.0404 28.1741 29.6 28.8645 29.6C29.5549 29.6 30.1145 29.0404 30.1145 28.35H27.6145ZM15.6381 14.1619C16.1828 14.5861 16.9682 14.4885 17.3924 13.9439C17.8166 13.3992 17.719 12.6138 17.1744 12.1896L15.6381 14.1619ZM14.8806 10.1089L16.1305 10.0912L14.8806 10.1089ZM17.1145 7.964C17.6469 7.52452 17.7222 6.73666 17.2827 6.20426C16.8433 5.67186 16.0554 5.59652 15.523 6.036L17.1145 7.964ZM20.2319 14.1619C20.7765 14.5861 21.5619 14.4885 21.9862 13.9439C22.4104 13.3992 22.3128 12.6138 21.7681 12.1896L20.2319 14.1619ZM19.4744 10.1089L20.7242 10.0912L19.4744 10.1089ZM21.7082 7.964C22.2406 7.52452 22.316 6.73666 21.8765 6.20426C21.437 5.67186 20.6492 5.59652 20.1168 6.036L21.7082 7.964ZM24.8256 14.1619C25.3703 14.5861 26.1557 14.4885 26.5799 13.9439C27.0041 13.3992 26.9065 12.6138 26.3619 12.1896L24.8256 14.1619ZM24.0681 10.1089L25.318 10.0912L24.0681 10.1089ZM26.302 7.964C26.8344 7.52452 26.9097 6.73666 26.4702 6.20426C26.0308 5.67186 25.2429 5.59652 24.7105 6.036L26.302 7.964ZM23.6373 34.5H33.25V32H23.6373V34.5ZM17.0678 32H8.75V34.5H17.0678V32ZM27.6145 20.9842V28.35H30.1145V20.9842H27.6145ZM17.1744 12.1896C16.5261 11.6847 16.1421 10.9128 16.1305 10.0912L13.6307 10.1266C13.6531 11.7065 14.3915 13.1909 15.6381 14.1619L17.1744 12.1896ZM16.1305 10.0912C16.1188 9.26955 16.4808 8.48708 17.1145 7.964L15.523 6.036C14.3044 7.0419 13.6083 8.54661 13.6307 10.1266L16.1305 10.0912ZM21.7681 12.1896C21.1199 11.6847 20.7359 10.9128 20.7242 10.0912L18.2245 10.1266C18.2469 11.7065 18.9853 13.1909 20.2319 14.1619L21.7681 12.1896ZM20.7242 10.0912C20.7126 9.26955 21.0746 8.48708 21.7082 7.964L20.1168 6.036C18.8982 7.0419 18.2021 8.54661 18.2245 10.1266L20.7242 10.0912ZM26.3619 12.1896C25.7136 11.6847 25.3296 10.9128 25.318 10.0912L22.8182 10.1266C22.8406 11.7065 23.579 13.1909 24.8256 14.1619L26.3619 12.1896ZM25.318 10.0912C25.3063 9.26955 25.6683 8.48708 26.302 7.964L24.7105 6.036C23.4919 7.0419 22.7958 8.54661 22.8182 10.1266L25.318 10.0912Z" fill="white"/>
</svg>
