<svg width="40" height="40" viewBox="0 0 40 40" fill="none" xmlns="http://www.w3.org/2000/svg">
<path d="M34.9997 17.9666V13.3333C34.9997 10.5833 32.7497 8.33331 29.9997 8.33331H23.333C22.0497 8.33331 20.883 8.83331 19.9997 9.63331C19.1163 8.83331 17.9497 8.33331 16.6663 8.33331H9.99967C7.24967 8.33331 4.99967 10.5833 4.99967 13.3333V17.9666C3.98301 18.8833 3.33301 20.2 3.33301 21.6666V31.6666H6.66634V28.3333H33.333V31.6666H36.6663V21.6666C36.6663 20.2 36.0163 18.8833 34.9997 17.9666ZM23.333 11.6666H29.9997C30.9163 11.6666 31.6663 12.4166 31.6663 13.3333V16.6666H21.6663V13.3333C21.6663 12.4166 22.4163 11.6666 23.333 11.6666ZM8.33301 13.3333C8.33301 12.4166 9.08301 11.6666 9.99967 11.6666H16.6663C17.583 11.6666 18.333 12.4166 18.333 13.3333V16.6666H8.33301V13.3333ZM6.66634 25V21.6666C6.66634 20.75 7.41634 20 8.33301 20H31.6663C32.583 20 33.333 20.75 33.333 21.6666V25H6.66634Z" fill="white"/>
</svg>
