<svg width="34" height="24" viewBox="0 0 34 24" fill="none" xmlns="http://www.w3.org/2000/svg">
<path d="M31.9997 9.96665V5.33331C31.9997 2.58331 29.7497 0.333313 26.9997 0.333313H20.333C19.0497 0.333313 17.883 0.833313 16.9997 1.63331C16.1163 0.833313 14.9497 0.333313 13.6663 0.333313H6.99967C4.24967 0.333313 1.99967 2.58331 1.99967 5.33331V9.96665C0.983008 10.8833 0.333008 12.2 0.333008 13.6666V23.6666H3.66634V20.3333H30.333V23.6666H33.6663V13.6666C33.6663 12.2 33.0163 10.8833 31.9997 9.96665ZM20.333 3.66665H26.9997C27.9163 3.66665 28.6663 4.41665 28.6663 5.33331V8.66665H18.6663V5.33331C18.6663 4.41665 19.4163 3.66665 20.333 3.66665ZM5.33301 5.33331C5.33301 4.41665 6.08301 3.66665 6.99967 3.66665H13.6663C14.583 3.66665 15.333 4.41665 15.333 5.33331V8.66665H5.33301V5.33331ZM3.66634 17V13.6666C3.66634 12.75 4.41634 12 5.33301 12H28.6663C29.583 12 30.333 12.75 30.333 13.6666V17H3.66634Z" fill="white"/>
</svg>
