<svg width="31" height="31" viewBox="0 0 31 31" fill="none" xmlns="http://www.w3.org/2000/svg">
<g clip-path="url(#clip0_546_2858)">
<path d="M26.9958 5.54262C26.5409 4.29774 25.7148 3.22253 24.629 2.4623C23.5433 1.70207 22.2504 1.29348 20.925 1.29175H10.075C8.7496 1.29348 7.45668 1.70207 6.37097 2.4623C5.28526 3.22253 4.45911 4.29774 4.00417 5.54262L0.516673 15.1358C0.17367 16.0807 -0.00119445 17.0783 6.14041e-06 18.0834V19.3751C0.0023109 20.3733 0.23694 21.3572 0.685319 22.2491C1.1337 23.1409 1.78352 23.9161 2.58334 24.5133C2.58334 24.5237 2.58334 24.5314 2.58334 24.5417V27.1251C2.58334 28.1528 2.9916 29.1384 3.7183 29.8651C4.445 30.5918 5.43063 31.0001 6.45834 31.0001C7.48605 31.0001 8.47168 30.5918 9.19838 29.8651C9.92508 29.1384 10.3333 28.1528 10.3333 27.1251V25.8334H20.6667V27.1251C20.6667 28.1528 21.0749 29.1384 21.8016 29.8651C22.5283 30.5918 23.514 31.0001 24.5417 31.0001C25.5694 31.0001 26.555 30.5918 27.2817 29.8651C28.0084 29.1384 28.4167 28.1528 28.4167 27.1251V24.5417C28.4167 24.5314 28.4167 24.5237 28.4167 24.5133C29.2165 23.9161 29.8663 23.1409 30.3147 22.2491C30.7631 21.3572 30.9977 20.3733 31 19.3751V18.0834C31.0013 17.0787 30.8265 16.0815 30.4833 15.1371L26.9958 5.54262ZM6.43509 6.42612C6.7082 5.67976 7.20355 5.03506 7.85438 4.57892C8.50522 4.12278 9.28025 3.87713 10.075 3.87508H20.925C21.7202 3.8766 22.4958 4.12201 23.1472 4.57818C23.7985 5.03436 24.2942 5.67935 24.5675 6.42612L27.3937 14.2084H3.60505L6.43509 6.42612ZM7.75001 27.1251C7.75001 27.4677 7.61392 27.7962 7.37169 28.0384C7.12945 28.2807 6.80091 28.4167 6.45834 28.4167C6.11577 28.4167 5.78723 28.2807 5.54499 28.0384C5.30276 27.7962 5.16667 27.4677 5.16667 27.1251V25.7042C5.5918 25.7906 6.02454 25.8339 6.45834 25.8334H7.75001V27.1251ZM25.8333 27.1251C25.8333 27.4677 25.6973 27.7962 25.455 28.0384C25.2128 28.2807 24.8842 28.4167 24.5417 28.4167C24.1991 28.4167 23.8706 28.2807 23.6283 28.0384C23.3861 27.7962 23.25 27.4677 23.25 27.1251V25.8334H24.5417C24.9755 25.8339 25.4082 25.7906 25.8333 25.7042V27.1251ZM28.4167 19.3751C28.4167 20.4028 28.0084 21.3884 27.2817 22.1151C26.555 22.8418 25.5694 23.2501 24.5417 23.2501H6.45834C5.43063 23.2501 4.445 22.8418 3.7183 22.1151C2.9916 21.3884 2.58334 20.4028 2.58334 19.3751V18.0834C2.5886 17.6485 2.64101 17.2154 2.73963 16.7917H5.16667V18.0834C5.16667 18.426 5.30276 18.7545 5.54499 18.9968C5.78723 19.239 6.11577 19.3751 6.45834 19.3751C6.80091 19.3751 7.12945 19.239 7.37169 18.9968C7.61392 18.7545 7.75001 18.426 7.75001 18.0834V16.7917H23.25V18.0834C23.25 18.426 23.3861 18.7545 23.6283 18.9968C23.8706 19.239 24.1991 19.3751 24.5417 19.3751C24.8842 19.3751 25.2128 19.239 25.455 18.9968C25.6973 18.7545 25.8333 18.426 25.8333 18.0834V16.7917H28.2604C28.3591 17.2154 28.4115 17.6485 28.4167 18.0834V19.3751Z" fill="white"/>
</g>
<defs>
<clipPath id="clip0_546_2858">
<rect width="31" height="31" fill="white"/>
</clipPath>
</defs>
</svg>
