<svg width="47" height="47" viewBox="0 0 47 47" fill="none" xmlns="http://www.w3.org/2000/svg">
<g clip-path="url(#clip0_1440_1716)">
<path d="M36.0931 23.0503C35.4954 22.252 34.646 21.6785 33.6822 21.4224C34.152 20.0569 34.4991 18.6522 34.7195 17.225C34.7915 16.7062 34.7421 16.1778 34.5752 15.6814C34.4083 15.1849 34.1284 14.734 33.7577 14.3641C33.3869 13.9942 32.9353 13.7154 32.4385 13.5497C31.9416 13.3839 31.4131 13.3358 30.8945 13.409C30.7527 13.4281 30.332 13.49 29.7571 13.6014C30.1131 12.8133 30.2817 11.9535 30.2499 11.0893C30.2451 10.9415 30.2114 10.7962 30.1505 10.6615C30.0896 10.5268 30.0027 10.4054 29.8949 10.3043C29.7871 10.2032 29.6604 10.1243 29.5221 10.0721C29.3838 10.02 29.2366 9.99554 29.0889 10.0003C28.9411 10.005 28.7958 10.0388 28.6611 10.0997C28.5264 10.1606 28.405 10.2474 28.3039 10.3552C28.2028 10.463 28.1239 10.5897 28.0717 10.728C28.0196 10.8663 27.9951 11.0135 27.9999 11.1613C28.0191 11.7047 27.9076 12.2448 27.6747 12.7363C27.512 12.2971 27.28 11.8869 26.9874 11.5213C26.4901 10.9553 25.8588 10.523 25.1513 10.264C24.4437 10.0049 23.6826 9.92743 22.9374 10.0385C22.1203 10.1041 21.3392 10.4032 20.6874 10.9003C19.9504 10.3459 19.0589 10.0352 18.137 10.0115C16.9672 9.89814 15.8002 10.2529 14.8914 10.9981C14.4299 11.409 14.0574 11.9098 13.7966 12.4699C13.5358 13.03 13.3923 13.6374 13.3749 14.255C13.344 15.2439 13.6319 16.2165 14.1961 17.0293C13.5098 17.6178 12.977 18.3645 12.6438 19.2049C12.3105 20.0454 12.1869 20.9543 12.2836 21.8533C11.3939 22.3491 10.7006 23.1343 10.3187 24.0785C9.93684 25.0227 9.88944 26.0691 10.1844 27.044C10.955 29.7255 12.3893 32.1693 14.3547 34.1495C16.2402 35.988 18.7728 37.0119 21.4062 37.0003H25.5935C28.2267 37.0121 30.7589 35.9882 32.6439 34.1495C34.61 32.1697 36.0448 29.7257 36.8154 27.044C37.0162 26.3683 37.0555 25.6548 36.9301 24.9611C36.8046 24.2674 36.5179 23.6129 36.0931 23.0503ZM31.2072 15.6365C31.3813 15.613 31.5585 15.6301 31.7249 15.6864C31.8913 15.7427 32.0425 15.8367 32.1665 15.9611C32.2906 16.0855 32.3842 16.2369 32.4401 16.4035C32.496 16.57 32.5126 16.7472 32.4886 16.9213C32.2527 18.3986 31.8702 19.8488 31.3467 21.2503H28.4656L29.9202 19.7956C30.1252 19.5835 30.2386 19.2993 30.236 19.0043C30.2334 18.7093 30.1151 18.4272 29.9065 18.2186C29.698 18.01 29.4158 17.8917 29.1208 17.8891C28.8258 17.8866 28.5417 18 28.3295 18.2049L25.2841 21.2503H23.5415C23.4593 20.6586 23.5157 20.0559 23.7063 19.4897C23.8968 18.9235 24.2163 18.4094 24.6395 17.9878C25.1199 17.5029 26.9615 16.1878 31.2072 15.6365ZM15.6249 14.3304C15.6316 14.0207 15.7015 13.7156 15.8301 13.4338C15.9587 13.1519 16.1434 12.8993 16.373 12.6913C16.8371 12.3482 17.4137 12.1931 17.9874 12.257C18.2644 12.2456 18.5408 12.293 18.7983 12.3959C19.0557 12.4989 19.2885 12.6551 19.4814 12.8544C19.6332 13.024 19.819 13.1597 20.0269 13.2525C20.2347 13.3454 20.4598 13.3933 20.6874 13.3933V13.3933C20.9145 13.3921 21.1388 13.3433 21.3458 13.2499C21.5528 13.1565 21.7378 13.0206 21.8889 12.851C22.0567 12.6735 22.258 12.5311 22.4812 12.432C22.7045 12.333 22.9452 12.2792 23.1894 12.2739C23.5612 12.2077 23.9437 12.2346 24.3026 12.3524C24.6615 12.4702 24.9856 12.6752 25.2459 12.9489C25.5874 13.3861 25.7656 13.9288 25.7499 14.4834C25.7499 14.5565 25.7499 14.7163 25.7499 14.7163C24.2564 15.254 22.9807 16.267 22.1184 17.5996C21.408 16.7587 20.4628 16.1488 19.4038 15.8482C18.3448 15.5476 17.2202 15.5699 16.1739 15.9121C15.8005 15.4715 15.6048 14.9076 15.6249 14.3304V14.3304ZM14.4999 21.2503C14.4999 20.3552 14.8554 19.4967 15.4884 18.8638C16.1213 18.2308 16.9798 17.8753 17.8749 17.8753C18.77 17.8753 19.6284 18.2308 20.2614 18.8638C20.8943 19.4967 21.2499 20.3552 21.2499 21.2503H14.4999ZM34.6554 26.4129C33.9832 28.7272 32.7461 30.838 31.0554 32.5554C29.5935 33.9757 27.6317 34.7641 25.5935 34.7503H21.4062C19.3675 34.7636 17.4051 33.9753 15.9421 32.5554C14.2513 30.8381 13.0142 28.7272 12.3421 26.4129C12.2413 26.0723 12.2217 25.7128 12.285 25.3632C12.3483 25.0137 12.4927 24.6839 12.7066 24.4003C12.9142 24.1203 13.1846 23.893 13.496 23.7367C13.8075 23.5804 14.1514 23.4994 14.4999 23.5003H32.4999C32.8495 23.4983 33.1947 23.5788 33.5074 23.7352C33.8202 23.8915 34.0916 24.1194 34.2999 24.4003C34.5123 24.6846 34.655 25.0148 34.7168 25.3643C34.7785 25.7139 34.7575 26.073 34.6554 26.4129V26.4129Z" fill="white"/>
</g>
<defs>
<clipPath id="clip0_1440_1716">
<rect width="27" height="27" fill="white" transform="translate(10 10)"/>
</clipPath>
</defs>
</svg>
