<svg width="16" height="17" viewBox="0 0 16 17" fill="none" xmlns="http://www.w3.org/2000/svg">
<path fill-rule="evenodd" clip-rule="evenodd" d="M1 9.95428C1.01239 11.0398 1.45555 12.076 2.23197 12.8348C3.00838 13.5936 4.05445 14.0128 5.14 14.0003H5.7L7.36 15.7323C7.5291 15.9036 7.75979 16 8.0005 16C8.24121 16 8.4719 15.9036 8.641 15.7323L10.3 14.0003H10.86C11.9456 14.0128 12.9916 13.5936 13.768 12.8348C14.5444 12.076 14.9876 11.0398 15 9.95428V5.04428C14.9731 2.7845 13.1198 0.974168 10.86 1.00028H5.14C2.88021 0.974168 1.0269 2.7845 1 5.04428V9.95428Z" stroke="#245288" stroke-width="1.5" stroke-linecap="round" stroke-linejoin="round"/>
<path d="M5 5.25024C4.58579 5.25024 4.25 5.58603 4.25 6.00024C4.25 6.41446 4.58579 6.75024 5 6.75024V5.25024ZM11 6.75024C11.4142 6.75024 11.75 6.41446 11.75 6.00024C11.75 5.58603 11.4142 5.25024 11 5.25024V6.75024ZM5 8.25024C4.58579 8.25024 4.25 8.58603 4.25 9.00024C4.25 9.41446 4.58579 9.75024 5 9.75024V8.25024ZM11 9.75024C11.4142 9.75024 11.75 9.41446 11.75 9.00024C11.75 8.58603 11.4142 8.25024 11 8.25024V9.75024ZM5 6.75024H11V5.25024H5V6.75024ZM5 9.75024H11V8.25024H5V9.75024Z" fill="#245288"/>
</svg>
