<svg width="21" height="18" viewBox="0 0 21 18" fill="none" xmlns="http://www.w3.org/2000/svg">
<path d="M15.2724 0.750002H15.2723C14.4522 0.749981 13.6447 0.954015 12.9218 1.34413C12.1988 1.73426 11.5828 2.29844 11.1289 2.98669L10.5029 3.9358L9.87676 2.98683C9.42218 2.29791 8.80518 1.73331 8.08117 1.34313C7.35719 0.95297 6.54859 0.749271 5.72757 0.750002L5.7269 0.750003C2.99036 0.750002 0.784919 2.98134 0.749568 5.76607L15.2724 0.750002ZM15.2724 0.750002C18.0093 0.750002 20.2156 2.98172 20.2497 5.7661L20.2497 5.76623M15.2724 0.750002L20.2497 5.76623M20.2497 5.76623C20.2825 8.41306 18.8691 10.733 16.9525 12.6515C15.0412 14.5649 12.7093 15.9963 11.1021 16.8508L11.1008 16.8515C10.881 16.9689 10.6817 17.0741 10.5027 17.1647C10.3175 17.0714 10.1151 16.9668 9.89752 16.851L9.89715 16.8508M20.2497 5.76623L9.89715 16.8508M9.89715 16.8508C8.28994 15.9963 5.95841 14.5649 4.0472 12.6516C2.13087 10.7331 0.717405 8.4132 0.749564 5.7664L9.89715 16.8508Z" stroke="#8AB8EE" stroke-width="1.5"/>
</svg>
