<svg width="21" height="17" viewBox="0 0 21 17" fill="none" xmlns="http://www.w3.org/2000/svg">
<path d="M21.0006 5.4371C20.9617 2.43436 18.4363 2.13359e-06 15.2733 2.13359e-06C14.3287 -2.06417e-05 13.3988 0.221944 12.5666 0.64609C11.7344 1.07024 11.0257 1.68337 10.5037 2.43079C9.98107 1.68268 9.27134 1.06914 8.43796 0.644964C7.60457 0.220793 6.67348 -0.000793224 5.72787 2.13359e-06C2.56488 2.13359e-06 0.0407654 2.43436 0.000600422 5.4371C-0.0709434 10.9779 6.26885 14.8945 9.54606 16.5401C9.90629 16.7212 10.2276 16.8749 10.5012 17C10.7736 16.8808 11.0962 16.7212 11.4551 16.5401C14.7324 14.8945 21.0734 10.9779 21.0006 5.4371Z" fill="#8AB8EE"/>
</svg>
