<svg width="16" height="16" viewBox="0 0 16 16" fill="none" xmlns="http://www.w3.org/2000/svg">
<path fill-rule="evenodd" clip-rule="evenodd" d="M3.90863 4.24128C4.49529 3.62328 4.70263 3.44995 4.95263 3.36928C5.12564 3.32395 5.30709 3.32143 5.48129 3.36195C5.71063 3.42861 5.77129 3.47928 6.52329 4.22861C7.18396 4.88661 7.24996 4.95795 7.31329 5.08661C7.4344 5.31246 7.45331 5.57927 7.36529 5.81995C7.29863 6.00328 7.20396 6.12461 6.80329 6.52661L6.54196 6.78861C6.47333 6.85836 6.4572 6.96427 6.50196 7.05128C7.08258 8.04185 7.90634 8.8679 8.89529 9.45128C9.00913 9.51223 9.14931 9.49255 9.24196 9.40261L9.49329 9.15528C9.64864 8.99605 9.81314 8.84602 9.98596 8.70595C10.2574 8.53929 10.5956 8.52442 10.8806 8.66661C11.02 8.73328 11.066 8.77461 11.7473 9.45461C12.45 10.1553 12.47 10.1773 12.5473 10.3379C12.6928 10.6039 12.6913 10.926 12.5433 11.1906C12.468 11.3399 12.422 11.3939 12.0266 11.7979C11.788 12.0419 11.5633 12.2646 11.5273 12.2973C11.2012 12.5673 10.7827 12.6998 10.3606 12.6666C9.58832 12.5962 8.8408 12.3575 8.17063 11.9673C6.68605 11.1807 5.42223 10.0347 4.49463 8.63395C4.29259 8.34079 4.11297 8.03281 3.95729 7.71261C3.53968 6.99686 3.32403 6.18124 3.33329 5.35261C3.36518 4.91912 3.57306 4.51756 3.90863 4.24128Z" stroke="#18375B" stroke-width="1.2" stroke-linecap="round" stroke-linejoin="round"/>
</svg>
