<svg width="66" height="66" viewBox="0 0 66 66" fill="none" xmlns="http://www.w3.org/2000/svg">
<g filter="url(#filter0_d_445_2607)">
<circle cx="33" cy="29" r="23" fill="white"/>
</g>
<path d="M31.5061 29.374C31.2132 29.0811 30.7383 29.0811 30.4454 29.374C30.1525 29.6669 30.1525 30.1418 30.4454 30.4347L31.5061 29.374ZM32.4696 32.4589C32.7625 32.7518 33.2374 32.7518 33.5303 32.4589C33.8232 32.166 33.8232 31.6911 33.5303 31.3983L32.4696 32.4589ZM30.4454 33.4225C30.1525 33.7153 30.1525 34.1902 30.4454 34.4831C30.7383 34.776 31.2132 34.776 31.5061 34.4831L30.4454 33.4225ZM33.5303 32.4589C33.8232 32.166 33.8232 31.6911 33.5303 31.3982C33.2374 31.1053 32.7625 31.1053 32.4696 31.3982L33.5303 32.4589ZM35.5557 30.4347C35.8486 30.1418 35.8486 29.6669 35.5557 29.374C35.2628 29.0811 34.7879 29.0811 34.495 29.374L35.5557 30.4347ZM32.4708 31.3983C32.1779 31.6911 32.1779 32.166 32.4708 32.4589C32.7637 32.7518 33.2386 32.7518 33.5314 32.4589L32.4708 31.3983ZM34.495 34.4831C34.7879 34.776 35.2628 34.776 35.5557 34.4831C35.8486 34.1902 35.8486 33.7153 35.5557 33.4225L34.495 34.4831ZM33.5314 31.3982C33.2386 31.1053 32.7637 31.1053 32.4708 31.3982C32.1779 31.6911 32.1779 32.166 32.4708 32.4589L33.5314 31.3982ZM35.1415 21.75C35.5557 21.75 35.8915 21.4142 35.8915 21C35.8915 20.5858 35.5557 20.25 35.1415 20.25V21.75ZM31.0943 20.25C30.6801 20.25 30.3443 20.5858 30.3443 21C30.3443 21.4142 30.6801 21.75 31.0943 21.75V20.25ZM39.0725 24.1786C39.4868 24.1786 39.8225 23.8428 39.8225 23.4286C39.8225 23.0144 39.4868 22.6786 39.0725 22.6786V24.1786ZM26.9297 22.6786C26.5155 22.6786 26.1797 23.0144 26.1797 23.4286C26.1797 23.8428 26.5155 24.1786 26.9297 24.1786V22.6786ZM27.8188 37.1109L27.2885 37.6412L27.2885 37.6412L27.8188 37.1109ZM26.9297 34.9643H27.6797H26.9297ZM30.4454 30.4347L32.4696 32.4589L33.5303 31.3983L31.5061 29.374L30.4454 30.4347ZM31.5061 34.4831L33.5303 32.4589L32.4696 31.3982L30.4454 33.4225L31.5061 34.4831ZM34.495 29.374L32.4708 31.3983L33.5314 32.4589L35.5557 30.4347L34.495 29.374ZM35.5557 33.4225L33.5314 31.3982L32.4708 32.4589L34.495 34.4831L35.5557 33.4225ZM35.1415 20.25H31.0943V21.75H35.1415V20.25ZM39.0725 22.6786H26.9297V24.1786H39.0725V22.6786ZM27.9412 26.6071H38.061V25.1071H27.9412V26.6071ZM38.061 26.6071C38.2055 26.6071 38.3225 26.7242 38.3225 26.8686H39.8225C39.8225 25.8958 39.0339 25.1071 38.061 25.1071V26.6071ZM38.3225 26.8686V34.9643H39.8225V26.8686H38.3225ZM38.3225 34.9643C38.3225 36.2267 37.2992 37.25 36.0368 37.25V38.75C38.1276 38.75 39.8225 37.0551 39.8225 34.9643H38.3225ZM36.0368 37.25H29.9654V38.75H36.0368V37.25ZM29.9654 37.25C29.3592 37.25 28.7778 37.0092 28.3492 36.5805L27.2885 37.6412C27.9985 38.3511 28.9614 38.75 29.9654 38.75V37.25ZM28.3492 36.5805C27.9205 36.1519 27.6797 35.5705 27.6797 34.9643H26.1797C26.1797 35.9683 26.5785 36.9312 27.2885 37.6412L28.3492 36.5805ZM27.6797 34.9643V26.8686H26.1797V34.9643H27.6797ZM27.6797 26.8686C27.6797 26.7242 27.7968 26.6071 27.9412 26.6071V25.1071C26.9683 25.1071 26.1797 25.8958 26.1797 26.8686H27.6797Z" fill="#306EB5"/>
<defs>
<filter id="filter0_d_445_2607" x="0" y="0" width="66" height="66" filterUnits="userSpaceOnUse" color-interpolation-filters="sRGB">
<feFlood flood-opacity="0" result="BackgroundImageFix"/>
<feColorMatrix in="SourceAlpha" type="matrix" values="0 0 0 0 0 0 0 0 0 0 0 0 0 0 0 0 0 0 127 0" result="hardAlpha"/>
<feOffset dy="4"/>
<feGaussianBlur stdDeviation="5"/>
<feComposite in2="hardAlpha" operator="out"/>
<feColorMatrix type="matrix" values="0 0 0 0 0.191649 0 0 0 0 0.306446 0 0 0 0 0.554167 0 0 0 0.25 0"/>
<feBlend mode="normal" in2="BackgroundImageFix" result="effect1_dropShadow_445_2607"/>
<feBlend mode="normal" in="SourceGraphic" in2="effect1_dropShadow_445_2607" result="shape"/>
</filter>
</defs>
</svg>
