<svg width="648" height="149" viewBox="0 0 648 149" fill="none" xmlns="http://www.w3.org/2000/svg">
<rect width="120" height="120" rx="60" fill="#8AB8EE"/>
<path d="M53.459 136.951V138.072C53.4453 139.576 53.4727 141.299 52.9121 143.91L51.4219 143.76C51.6338 142.769 51.7637 141.887 51.8457 141.094L44.5586 141.504L44.3398 140.205L51.9277 139.932C51.9551 139.289 51.9619 138.715 51.9688 138.182H44.7227V136.951H53.459ZM54.6758 145.441V146.699H43.4102V145.441H47.5664V142.393H49.0703V145.441H54.6758ZM61.8945 137.553C61.8945 139.467 63.7676 141.381 66.3516 141.832L65.668 143.104C63.5967 142.666 61.9014 141.415 61.1016 139.754C60.2812 141.401 58.5859 142.659 56.5215 143.104L55.8516 141.832C58.4082 141.367 60.2676 139.453 60.2812 137.553V136.637H61.8945V137.553ZM66.8027 145.387V146.645H55.5098V145.387H66.8027ZM77.959 135.857V143.131H76.4414V141.422H73.9531V142.379H68.1426V136.787H73.9531V137.744H76.4414V135.857H77.959ZM69.6602 137.99V141.162H72.4492V137.99H69.6602ZM73.7754 143.459C76.4004 143.459 78 144.334 78 145.838C78 147.342 76.4004 148.203 73.7754 148.203C71.1641 148.203 69.5645 147.342 69.5781 145.838C69.5645 144.334 71.1641 143.459 73.7754 143.459ZM73.7754 144.621C72.0527 144.621 71.082 145.045 71.082 145.838C71.082 146.604 72.0527 147.027 73.7754 147.027C75.498 147.027 76.4824 146.604 76.4824 145.838C76.4824 145.045 75.498 144.621 73.7754 144.621ZM73.9531 140.191H76.4414V138.947H73.9531V140.191Z" fill="#306EB5"/>
<rect x="176" width="120" height="120" rx="60" fill="#8AB8EE"/>
<path d="M227.459 136.951V138.072C227.445 139.576 227.473 141.299 226.912 143.91L225.422 143.76C225.634 142.769 225.764 141.887 225.846 141.094L218.559 141.504L218.34 140.205L225.928 139.932C225.955 139.289 225.962 138.715 225.969 138.182H218.723V136.951H227.459ZM228.676 145.441V146.699H217.41V145.441H221.566V142.393H223.07V145.441H228.676ZM235.895 137.553C235.895 139.467 237.768 141.381 240.352 141.832L239.668 143.104C237.597 142.666 235.901 141.415 235.102 139.754C234.281 141.401 232.586 142.659 230.521 143.104L229.852 141.832C232.408 141.367 234.268 139.453 234.281 137.553V136.637H235.895V137.553ZM240.803 145.387V146.645H229.51V145.387H240.803ZM251.959 135.857V143.131H250.441V141.422H247.953V142.379H242.143V136.787H247.953V137.744H250.441V135.857H251.959ZM243.66 137.99V141.162H246.449V137.99H243.66ZM247.775 143.459C250.4 143.459 252 144.334 252 145.838C252 147.342 250.4 148.203 247.775 148.203C245.164 148.203 243.564 147.342 243.578 145.838C243.564 144.334 245.164 143.459 247.775 143.459ZM247.775 144.621C246.053 144.621 245.082 145.045 245.082 145.838C245.082 146.604 246.053 147.027 247.775 147.027C249.498 147.027 250.482 146.604 250.482 145.838C250.482 145.045 249.498 144.621 247.775 144.621ZM247.953 140.191H250.441V138.947H247.953V140.191Z" fill="#306EB5"/>
<rect x="352" width="120" height="120" rx="60" fill="#8AB8EE"/>
<path d="M403.459 136.951V138.072C403.445 139.576 403.473 141.299 402.912 143.91L401.422 143.76C401.634 142.769 401.764 141.887 401.846 141.094L394.559 141.504L394.34 140.205L401.928 139.932C401.955 139.289 401.962 138.715 401.969 138.182H394.723V136.951H403.459ZM404.676 145.441V146.699H393.41V145.441H397.566V142.393H399.07V145.441H404.676ZM411.895 137.553C411.895 139.467 413.768 141.381 416.352 141.832L415.668 143.104C413.597 142.666 411.901 141.415 411.102 139.754C410.281 141.401 408.586 142.659 406.521 143.104L405.852 141.832C408.408 141.367 410.268 139.453 410.281 137.553V136.637H411.895V137.553ZM416.803 145.387V146.645H405.51V145.387H416.803ZM427.959 135.857V143.131H426.441V141.422H423.953V142.379H418.143V136.787H423.953V137.744H426.441V135.857H427.959ZM419.66 137.99V141.162H422.449V137.99H419.66ZM423.775 143.459C426.4 143.459 428 144.334 428 145.838C428 147.342 426.4 148.203 423.775 148.203C421.164 148.203 419.564 147.342 419.578 145.838C419.564 144.334 421.164 143.459 423.775 143.459ZM423.775 144.621C422.053 144.621 421.082 145.045 421.082 145.838C421.082 146.604 422.053 147.027 423.775 147.027C425.498 147.027 426.482 146.604 426.482 145.838C426.482 145.045 425.498 144.621 423.775 144.621ZM423.953 140.191H426.441V138.947H423.953V140.191Z" fill="#306EB5"/>
<path d="M579.459 136.951V138.072C579.445 139.576 579.473 141.299 578.912 143.91L577.422 143.76C577.634 142.769 577.764 141.887 577.846 141.094L570.559 141.504L570.34 140.205L577.928 139.932C577.955 139.289 577.962 138.715 577.969 138.182H570.723V136.951H579.459ZM580.676 145.441V146.699H569.41V145.441H573.566V142.393H575.07V145.441H580.676ZM587.895 137.553C587.895 139.467 589.768 141.381 592.352 141.832L591.668 143.104C589.597 142.666 587.901 141.415 587.102 139.754C586.281 141.401 584.586 142.659 582.521 143.104L581.852 141.832C584.408 141.367 586.268 139.453 586.281 137.553V136.637H587.895V137.553ZM592.803 145.387V146.645H581.51V145.387H592.803ZM603.959 135.857V143.131H602.441V141.422H599.953V142.379H594.143V136.787H599.953V137.744H602.441V135.857H603.959ZM595.66 137.99V141.162H598.449V137.99H595.66ZM599.775 143.459C602.4 143.459 604 144.334 604 145.838C604 147.342 602.4 148.203 599.775 148.203C597.164 148.203 595.564 147.342 595.578 145.838C595.564 144.334 597.164 143.459 599.775 143.459ZM599.775 144.621C598.053 144.621 597.082 145.045 597.082 145.838C597.082 146.604 598.053 147.027 599.775 147.027C601.498 147.027 602.482 146.604 602.482 145.838C602.482 145.045 601.498 144.621 599.775 144.621ZM599.953 140.191H602.441V138.947H599.953V140.191Z" fill="#306EB5"/>
<rect x="528" width="120" height="120" rx="60" fill="#8AB8EE"/>
</svg>
