<svg width="16" height="17" viewBox="0 0 16 17" fill="none" xmlns="http://www.w3.org/2000/svg">
<path d="M8.026 13.1019C7.92445 12.8844 7.71419 12.7258 7.45972 12.6975C7.24428 12.6736 7.03334 12.6285 6.83272 12.5636C6.74273 12.5341 6.65832 12.5019 6.58019 12.4674L6.70999 12.1223C6.80167 12.1622 6.89616 12.1988 6.99286 12.2317L6.9969 12.2331L7.00096 12.2344C7.31136 12.3344 7.61674 12.3851 7.90862 12.3851C8.20156 12.3851 8.414 12.3469 8.57719 12.2647L8.58695 12.2598L8.59647 12.2545C8.84369 12.1161 8.98548 11.8784 8.98548 11.6021C8.98548 11.2955 8.81585 11.041 8.51993 10.9035C8.37115 10.8329 8.15975 10.7656 7.85525 10.6917C7.54295 10.6147 7.28057 10.533 7.07714 10.4493C6.92833 10.3837 6.79935 10.279 6.68304 10.1293C6.58297 9.99577 6.53223 9.7948 6.53223 9.53192C6.53223 9.21478 6.62385 8.95298 6.81233 8.73156C6.98017 8.5375 7.21845 8.40578 7.53826 8.33185C7.7754 8.277 7.96048 8.11194 8.04367 7.89871C8.13769 8.11488 8.33785 8.27555 8.58681 8.31424C8.79482 8.34657 8.98584 8.39799 9.15753 8.46774L9.038 8.80595C8.71378 8.67905 8.3947 8.6149 8.08612 8.6149C7.06117 8.6149 7.00925 9.30435 7.00925 9.44256C7.00925 9.74214 7.1752 9.99338 7.46455 10.1319L7.47267 10.1357L7.48092 10.1393C7.62701 10.2029 7.83444 10.2642 8.13374 10.3322C8.44317 10.4004 8.7012 10.4785 8.90397 10.5651L8.90814 10.5669L8.91235 10.5686C9.06292 10.6297 9.19207 10.7317 9.30718 10.8805L9.30901 10.8829L9.31087 10.8852C9.41149 11.012 9.4625 11.2082 9.4625 11.4681C9.4625 11.7682 9.37336 12.0223 9.18998 12.2448C9.03098 12.4378 8.80889 12.5713 8.51095 12.6532C8.28088 12.7163 8.10239 12.8878 8.026 13.1019Z" fill="#306EB5"/>
<path d="M8.28524 14H7.79142C7.68097 14 7.59142 13.9105 7.59142 13.8V13.3985C7.59142 13.2929 7.50923 13.2061 7.40427 13.1944C7.15423 13.1667 6.91233 13.115 6.67859 13.0394C6.45152 12.9648 6.2548 12.8764 6.08842 12.7739C6.01195 12.7269 5.98414 12.6312 6.01575 12.5472L6.35447 11.6466C6.40009 11.5254 6.5473 11.479 6.6607 11.5417C6.81372 11.6262 6.97816 11.6985 7.15402 11.7585C7.41604 11.8429 7.66749 11.8851 7.90838 11.8851C8.11546 11.8851 8.26337 11.8628 8.35212 11.8181C8.44087 11.7684 8.48524 11.6964 8.48524 11.6021C8.48524 11.4929 8.42608 11.411 8.30775 11.3564C8.19364 11.3018 8.00347 11.2422 7.73722 11.1777C7.39491 11.0933 7.10965 11.0039 6.88144 10.9096C6.65323 10.8103 6.4546 10.6514 6.28556 10.433C6.11651 10.2096 6.03199 9.90922 6.03199 9.53191C6.03199 9.09504 6.16512 8.72021 6.43136 8.40745C6.67127 8.13002 7.00261 7.94243 7.4254 7.84469C7.52057 7.82268 7.59142 7.74015 7.59142 7.64247V7.2C7.59142 7.08954 7.68097 7 7.79142 7H8.28524C8.3957 7 8.48524 7.08954 8.48524 7.2V7.61719C8.48524 7.71936 8.56239 7.80447 8.66335 7.82016C9.03368 7.87772 9.35908 7.98664 9.63954 8.14693C9.71907 8.19238 9.7507 8.28924 9.72017 8.37561L9.40316 9.27254C9.36115 9.39139 9.22112 9.44169 9.10855 9.38494C8.75145 9.20491 8.41056 9.11489 8.08588 9.11489C7.7013 9.11489 7.50901 9.22411 7.50901 9.44255C7.50901 9.54681 7.56607 9.62624 7.68017 9.68085C7.79428 9.7305 7.98234 9.78511 8.24435 9.84468C8.58244 9.91915 8.8677 10.006 9.10014 10.1053C9.33257 10.1997 9.53331 10.356 9.70236 10.5745C9.87563 10.7929 9.96226 11.0908 9.96226 11.4681C9.96226 11.8851 9.83337 12.25 9.57557 12.5628C9.35097 12.8354 9.04016 13.0262 8.64314 13.1353C8.55188 13.1604 8.48524 13.2412 8.48524 13.3358V13.8C8.48524 13.9105 8.3957 14 8.28524 14Z" fill="#306EB5"/>
<path fill-rule="evenodd" clip-rule="evenodd" d="M5.83831 1H10.1683C11.2773 1 10.6683 2.664 10.2193 3.679L9.70831 4.843L9.63931 5C10.1233 4.97651 10.6019 5.11054 11.0033 5.382C12.5047 6.75583 13.7233 8.40982 14.5903 10.251C14.9282 10.9318 15.0623 11.6958 14.9763 12.451C14.8732 14.3759 13.3289 15.9098 11.4033 16H4.60331C2.67726 15.9125 1.13066 14.3802 1.02531 12.455C0.939353 11.6998 1.07339 10.9358 1.41131 10.255C2.27941 8.41197 3.49965 6.75655 5.00331 5.382C5.40472 5.11054 5.8833 4.97651 6.36731 5L6.28731 4.819L5.78731 3.679C5.34031 2.664 4.72831 1 5.83831 1Z" stroke="#306EB5" stroke-width="1.5" stroke-linecap="round" stroke-linejoin="round"/>
<path d="M9.63893 5.75C10.0531 5.75 10.3889 5.41421 10.3889 5C10.3889 4.58579 10.0531 4.25 9.63893 4.25V5.75ZM6.36693 4.25C5.95272 4.25 5.61693 4.58579 5.61693 5C5.61693 5.41421 5.95272 5.75 6.36693 5.75V4.25ZM12.3702 4.65392C12.7314 4.45107 12.8597 3.99387 12.6568 3.63272C12.454 3.27157 11.9968 3.14324 11.6357 3.34608L12.3702 4.65392ZM9.70793 4.843L9.84915 5.57959L9.85126 5.57918L9.70793 4.843ZM6.28693 4.819L6.43848 4.08444L6.43179 4.08312L6.28693 4.819ZM4.3587 3.33975C3.99405 3.14327 3.53916 3.27959 3.34268 3.64423C3.1462 4.00888 3.28252 4.46377 3.64716 4.66025L4.3587 3.33975ZM9.63893 4.25H6.36693V5.75H9.63893V4.25ZM11.6357 3.34608C10.9903 3.70854 10.2911 3.96537 9.5646 4.10682L9.85126 5.57918C10.7349 5.40713 11.5853 5.09476 12.3702 4.65392L11.6357 3.34608ZM9.56671 4.10642C8.53265 4.30467 7.46965 4.29721 6.43847 4.08447L6.13539 5.55353C7.35958 5.80609 8.62154 5.81495 9.84915 5.57958L9.56671 4.10642ZM6.43179 4.08312C5.70743 3.94053 5.00861 3.68995 4.3587 3.33975L3.64716 4.66025C4.42931 5.0817 5.27033 5.38327 6.14207 5.55488L6.43179 4.08312Z" fill="#306EB5"/>
</svg>
