<svg width="25" height="21" viewBox="0 0 25 21" fill="none" xmlns="http://www.w3.org/2000/svg">
<path d="M12.5038 4.00274C12.1711 4.00277 11.8601 3.83727 11.6742 3.56122C11.1448 2.77492 10.4249 2.12848 9.57758 1.68096C8.7302 1.23341 7.78252 0.999162 6.81937 1L6.8185 1C3.60325 1 1.04167 3.56442 1.00064 6.72885L12.5038 4.00274ZM12.5038 4.00274C12.8366 4.0027 13.1476 3.83711 13.3334 3.56102C13.862 2.77551 14.5808 2.12955 15.4269 1.6821C16.273 1.23461 17.2194 0.999979 18.1814 1C21.3972 1 23.9598 3.56494 23.9993 6.7289L23.9993 6.72907M12.5038 4.00274L23.9993 6.72907M23.9993 6.72907C24.0377 9.76148 22.3852 12.4354 20.1129 14.6647C17.8489 16.8858 15.0836 18.5501 13.1742 19.545L13.1724 19.5459C12.9275 19.6741 12.7047 19.7895 12.5035 19.8899C12.295 19.7866 12.0686 19.6717 11.8263 19.5453L11.8258 19.545M23.9993 6.72907L11.8258 19.545M11.8258 19.545C9.91638 18.5501 7.15146 16.8859 4.88766 14.6647M11.8258 19.545L4.88766 14.6647M4.88766 14.6647C2.61564 12.4355 0.963065 9.76168 1.00063 6.7293L4.88766 14.6647Z" stroke="white" stroke-width="2" stroke-linejoin="round"/>
</svg>
