<svg width="25" height="21" viewBox="0 0 25 21" fill="none" xmlns="http://www.w3.org/2000/svg">
<path d="M24.0986 6.99955C24.0556 3.61592 21.266 0.872763 17.772 0.872763C16.7286 0.872737 15.7014 1.12286 14.782 1.60081C13.8627 2.07876 13.0798 2.76967 12.5033 3.61189C11.9266 2.76984 11.1437 2.07906 10.2244 1.60113C9.3051 1.1232 8.27798 0.872975 7.23459 0.872763C3.73368 0.872763 0.945422 3.61592 0.901054 6.99955C0.822023 13.2432 7.82524 17.6526 11.4454 19.5109C11.8433 19.715 12.1983 19.8882 12.5005 20.0292C12.8014 19.8949 13.1577 19.715 13.5543 19.5109C17.1744 17.6526 24.179 13.2432 24.0986 6.99955Z" stroke="white" stroke-width="2" stroke-miterlimit="10"/>
</svg>
