<svg width="25" height="21" viewBox="0 0 25 21" fill="none" xmlns="http://www.w3.org/2000/svg">
<path d="M24.9993 6.71641C24.9529 3.00715 21.9467 2.63561e-06 18.1815 2.63561e-06C17.057 -2.54985e-05 15.9501 0.274166 14.9594 0.798112C13.9687 1.32206 13.125 2.07946 12.5037 3.00274C11.8815 2.07861 11.0367 1.3207 10.0446 0.796721C9.05253 0.272744 7.94416 -0.000979865 6.8185 2.63561e-06C3.05325 2.63561e-06 0.0485274 3.00715 0.000714747 6.71641C-0.0844515 13.5609 7.46248 18.3991 11.3637 20.4318C11.7925 20.6556 12.175 20.8454 12.5007 21C12.825 20.8528 13.209 20.6556 13.6363 20.4318C17.5375 18.3991 25.0859 13.5609 24.9993 6.71641Z" fill="white"/>
</svg>
